<?xml version="1.0" encoding="UTF-8"?>
<svg id="Layer_1" data-name="Layer 1" xmlns="http://www.w3.org/2000/svg" viewBox="0 0 445 558">
  <defs>
    <style>
      .cls-1 {
        fill: #f2aed8;
      }

      .cls-1, .cls-2, .cls-3, .cls-4, .cls-5, .cls-6, .cls-7, .cls-8, .cls-9, .cls-10, .cls-11, .cls-12, .cls-13, .cls-14 {
        stroke-width: 0px;
      }

      .cls-2 {
        fill: #f8d7dd;
      }

      .cls-3 {
        fill: #f5c2db;
      }

      .cls-4 {
        fill: #ec92c9;
      }

      .cls-5 {
        fill: #f7d4dd;
      }

      .cls-6 {
        fill: #f5c2da;
      }

      .cls-7 {
        fill: #fedce3;
      }

      .cls-8 {
        fill: #edaad4;
      }

      .cls-9 {
        fill: #f7c3dd;
      }

      .cls-10 {
        fill: #fddbe2;
      }

      .cls-11 {
        fill: #f8c5dd;
      }

      .cls-12 {
        fill: #fec8e3;
      }

      .cls-13 {
        fill: #f9d6de;
      }

      .cls-14 {
        fill: #f7d5dc;
      }
    </style>
  </defs>
  <path class="cls-4" d="M223.98,357.61c-24.04,8.86-47.81,18.38-71.36,28.49-13.94,5.98-28.07,11.53-42.12,17.26-1.61.66-3.24,1.31-4.9,1.8-6.64,1.95-8.4,1.3-10.99-4.95-5.16-12.45-11.72-24.19-17.64-36.26-1.6-3.41.73-4.08,3.13-3.95,14.62.74,27.81-5.07,41.08-9.65,11.25-3.88,22.41-8.28,33.35-13.09,21.01-8.25,42.5-15.32,62.67-25.66,2.37-1.22,5.02-3.79,7.96-.71,3.33,13.71,2.57,27.64,2.28,41.53-.05,2.26-.86,4.44-3.47,5.21Z"/>
  <path class="cls-2" d="M279.7,239.3c1.76,1.03,3.6,1.68,5.69,1.54,8.27-.54,15.64,2.23,22.82,6,3,1.58,5.87,3.73,9.83,4.02.86-5.23-1.21-9.95-1.1-14.89.36-16.3,12.45-32.93,28.04-37.58,1.42-.42,2.88-.91,4.34-.97,5.71-.24,11.47-1.02,17.07-1.11,8.06-.13,16.18,1.69,23.66,5.61,16.2,8.49,24.52,22.79,29.37,39.49,4.9,16.85,6.8,34.27,5.43,51.67-1.09,13.82-1.25,27.77-3.97,41.47-.57,2.89-.28,5.98-.26,8.97.1,18.28-1.94,36.23-8.25,53.53-.5,1.38-.59,2.91-.87,4.37-8.72-.62-16.68-4.37-25.25-5.88-25.55-4.5-51.35-8.86-74.36-21.72-28.53-15.94-54.03-35.82-73.8-62.21-6.58-8.79-11.42-18.69-15.23-29.04-2.3-14.68,2.3-25.08,15.22-31.61,11.31-5.71,23.34-9.77,35.89-12.04,1.92-.12,3.84-.02,5.74.37Z"/>
  <path class="cls-9" d="M224.11,282.86c.75.64,1.92,1.14,2.18,1.94,5.83,18.04,17.53,31.99,30.53,45.27,12.11,12.36,25.73,22.55,40.03,32.17,11.89,8,24.07,15.04,37.74,19.28,17.8,5.53,35.96,9.52,54.37,12.53,7.81,1.28,15.67,2.97,22.55,7.36.78,8.65.31,17.32.12,25.98-.2,9.13-3.54,12.67-12.65,12.94-5.25.16-10.23,1.94-15.56,1.63-15.62-.93-30.97-2.54-46.25-6.73-14.1-3.86-27.17-9.62-40.05-16.11-25.81-13.01-48.61-30.09-68.46-51.14-2.91-3.08-3.96-6.54-4.67-10.38,1.35-1.93,1.71-4.09,1.57-6.39-.49-7.66-.36-15.36-.65-23.01-.23-6.07-1.36-12.18-.87-18.29-4.49-7.28-3-15.35-2.99-23.2,0-1.77,1.2-3.24,3.06-3.87Z"/>
  <path class="cls-8" d="M279.7,239.3c-1.13,1.73-2.9,1.56-4.62,1.54-1.94-1.98-1.83-4.53-1.99-7.02-1.06-16.27-6.3-31.21-14.21-45.38-9.84-17.62-25.5-22.18-44.37-21.34-15.79.7-30.61,4.15-44.58,11.5-6.25,3.29-11.91,7.18-16.29,12.92-4.29,5.62-7.98,5.32-11.42-.79-2.57-4.57-4.68-9.39-7.04-14.08-6.12-12.16-14.62-21.97-27.3-27.68-2.73-1.23-5.63-2.33-7.95-4.19-10.23-8.19-21.44-9.12-33.97-6.56-8.72,1.78-15.26,5.92-20.48,12.58-10.16,12.97-14.24,28.3-17.59,44.12-7.4,34.97,2.28,66.59,16.98,97.72,9.04,19.13,21.11,36.26,32.63,53.77,6.87,10.44,9.12,11.27,21.29,7.44,15-4.73,29.79-10.13,44.93-14.43,3.66-1.04,7.27-3.93,11.33-1-3.02,3.34-7.47,3.98-11.32,5.38-12.37,4.49-24.33,10.12-37.1,13.53-5.99,1.6-11.92,3.44-17.96,4.82-2.88.66-5.92.61-8.85-.5-2.03-.77-2.58.7-2.85,2.31-9.22-13.89-18.35-27.83-27.68-41.64-7.32-10.84-12.1-22.93-16.84-34.93-3.47-8.78-7.29-17.48-10.07-26.55-5.33-17.4-6.51-34.98-4.39-53.11,1.31-11.21,3.02-22.18,6.67-32.81,4.41-12.82,10.24-24.89,20.09-34.58,5.06-4.97,10.46-9.03,18.02-9.61,7.35-.56,14.44-2.68,22.11-1.21,5.63,1.07,10.41,3.32,15.02,6.23,5.49,3.46,10.96,6.86,17.06,9.25,3.92,1.54,6.94,4.39,9.91,7.6,8.4,9.09,15.11,19.1,19.65,30.59.27.68.81,1.25,1.43,2.18,9.67-9.51,20.94-15.2,32.94-19.59,19.52-7.14,39.34-8.19,59.41-2.65,3.35.93,6.54,2.47,9.22,4.84,9.66,8.55,17.75,18.29,22.19,30.59,4.75,13.16,9,26.46,7.98,40.77Z"/>
  <path class="cls-1" d="M155.07,338.42c-3.12-.28-5.86,1.14-8.65,2.12-14.52,5.1-29.67,8.28-43.82,14.51-4.33,1.91-9.31,1.58-13.67,3.6-2.39,1.11-3.61-.88-5.08-2.15-5.95-5.11-10.35-11.47-14.28-18.13-4.19-7.08-9.02-13.71-13.6-20.53-5.4-8.06-9.46-16.96-13.34-25.84-5.07-11.63-10.51-23.11-14.16-35.35-2.29-7.68-4.48-15.31-3.93-23.38.26-3.85-1.39-7.29-1.66-11.05-.48-6.58,1.11-12.91,1.89-19.27.93-7.58,2.12-15.22,4.24-22.65,3.38-11.87,8.08-23.22,16.23-32.49,4.73-5.38,9.96-10.68,18.56-11.02,7.79-.31,15.37-3.92,23.45-1.1,2.62.91,5.06,1.87,7.39,3.39,3.54,2.32,7.05,4.89,10.93,6.42,9.81,3.86,17.31,10.53,24.13,18.24,3.18,3.59,5.2,7.85,7.34,12.04,2.59,5.08,4.79,10.37,7.5,15.38,2.14,3.96,4.2,4.2,6.51.59,6.9-10.79,17.95-15.46,29.04-19.88,9.73-3.88,19.79-5.88,30.48-6.43,8.27-.43,16.2.3,24.24,1.28,10.94,1.34,17.89,8.87,23.5,17.06,9.09,13.28,14.11,28.44,16.55,44.33.64,4.15.18,8.48.23,12.72-10.51,1.04-19.93,5.73-29.79,8.97-4.01,1.32-7.79,3.2-11.12,5.83-6.85,5.41-10.63,12.31-10.12,21.26.11,1.98.04,3.98.05,5.96-2.07,3.36-1.6,7.01-1.29,10.66.46,5.46.82,10.94,1.22,16.41-11.09,7.13-23.48,11.47-35.55,16.49-7.99,3.33-16.33,5.76-24.18,9.49-2.86,1.36-5.9,2.63-9.24,2.51Z"/>
  <path class="cls-7" d="M416.24,290.61c-.64,11.93-1.6,26.04-2.82,40.15-.75,8.63-1.67,17.37-1.61,26.02.09,11.95-3.09,23.09-6.2,34.35-.6,2.19-1.76,3-3.77,2.27-3.73-1.36-7.68-1.55-11.46-3.11-8.95-3.7-18.32-6.56-27.62-9.05-7.1-1.9-14.42-3.57-21.7-4.99-15.17-2.95-28.69-8.99-41.27-18.08-14.24-10.29-28.41-20.68-42.57-31.09-5.97-4.39-9.43-10.88-13.46-16.86-2.22-3.3-4.04-6.87-6.31-10.14-4.31-6.23-5.32-13.5-5.69-20.59-.42-8.08,5.01-13.33,11.78-16.76,8.26-4.18,17.43-5.78,26.25-8.33.71-.2,1.56,0,2.22-.28,13.23-5.65,25.29-2.16,37.06,4.49,5.19,2.93,10.61,5.43,15.96,8.08,1.81.89,3.74,1.75,5.57.08,1.93-1.76,1.87-4.19,1.18-6.29-.92-2.82-2.6-5.39-3.71-8.16-4.68-11.65-5.92-22.96,2.38-33.88,5.89-7.75,13.63-11.41,22.97-12,5.72-.36,11.52-.47,17.23.02,11.43.99,20.92,5.87,27.69,15.4,9.74,13.71,14.43,29.13,16.53,45.73.89,6.98,1.03,13.87,1.35,23.03Z"/>
  <path class="cls-12" d="M232.34,353.08c.65,1.98,1.1,3.59,1.73,5.13.47,1.16,1.22,2.38,2.73,1.94,1.28-.37,2.05-1.53,2.09-2.83.1-3.24.03-6.48.03-10.5,5.99,3.41,6.33-2.55,9.09-4.61,3.61-2.69,3.63-6.18,1.67-10.01,2.71-.25,3.68,1.48,4.5,2.74,5.45,8.35,13.15,14.22,21.26,19.63,9.93,6.62,19.6,13.61,29.7,20,16.3,10.31,34.17,15.93,52.92,19.31,14.91,2.69,29.46,7.11,44.47,9.32,1.91.28,4.07,1.16,4.35,3.54.98,8.09,3.29,16.15.32,24.36-.67,1.86-1.3,3.04-3.35,3.36-1.71.27-3.38,1.27-5.05,1.26-14.18-.11-28.41,1.49-42.48-1.92-14.01-3.39-27.93-6.86-41.24-12.68-10.11-4.42-19.68-9.85-29.11-15.33-17.64-10.26-34.37-21.98-48.75-36.78-4.37-4.49-7.19-8.84-4.9-15.95Z"/>
  <path class="cls-14" d="M158.6,224.57c2.19,6.3-.17,11.54-1.58,16.54-2.09,7.38-1.97,14.75-1.98,22.21,0,.75-.05,1.52.13,2.24.61,2.43,1.17,5.34,3.72,6.1,2.89.87,4.69-1.94,5.7-3.94,4.24-8.36,10.02-16.14,10.08-26.2.02-3.18.98-6.36,1.64-9.51.26-1.24,1.07-2.42,2.48-2.35,1.63.09,1.65,1.56,1.74,2.79.58,8.14-1.7,15.82-4.53,23.22-2.21,5.8-5.33,11.27-8.28,16.76-4.2,7.81-12.58,7.87-17.03.11-2.81-4.89-3.82-10.33-3.07-15.88,1.44-10.65,4.9-20.75,9.05-30.62.16-.38.74-.58,1.93-1.47Z"/>
  <path class="cls-13" d="M95.44,220.78c-2.45-.68-2.6-2.68-3.5-4.07-.7-1.08-1.43-2.08-2.67-2.5-2.52-.85-6.8,2.82-8.49,7.21-1.46,3.8-.82,6.5,2.59,7.13,6.92,1.27,8.83,6.37,10.8,11.95,1.69,4.77.32,8.92-2.04,12.77-2.6,4.24-8.17,6.38-12.31,5.32-5.46-1.39-8.68-5.77-9.16-12.53,2.5.38,2.49,2.85,3.63,4.32,2.55,3.27,7.3,4.87,10.64,3.57,3.23-1.26,5.48-4.86,5.57-8.93.16-6.81-2-9.89-8.29-11.8-4.54-1.37-7.12-5.84-5.93-10.42,1.02-3.91,2.63-7.45,5.72-10.31,5.32-4.92,10.74-3.77,13.22,3.03.57,1.56,1.84,3.11.2,5.23Z"/>
  <path class="cls-5" d="M142.67,245.71c-3,1.92-6.05,1.3-8.79,1.08-4.02-.31-5.73,1.52-6.87,5.05-1.56,4.82-2.29,10.11-6.68,14.32-1.93-2.85-1.68-5.6-.77-8.02,3.87-10.25,6.27-20.93,9.34-31.4,1.23-4.19,3.4-5.51,7.49-5.46,4.04.05,7.93.4,11.65,2.02.97.42,1.83,1.21,1.77,2.19-.09,1.56-1.45,1.82-2.74,1.81-4.47-.02-8.96.35-13.8-.52-1.09,4.79-2.17,9.53-3.3,14.53,3.99,2.01,9.1.23,12.71,4.38Z"/>
  <path class="cls-13" d="M101.53,220.02c1.19-2.19,2.93-3.03,4.55-2.93,5.91.36,11.8,1.01,17.67,1.72,1.21.15,2.23,1.15,2.16,2.64-.07,1.44-1.1,2.13-2.31,2.58-.46.17-.97.2-1.46.28-6.98,1.21-7.31,1.16-8.4,7.89-1.5,9.33-3.63,18.45-6.72,27.37-.62,1.79-.91,3.85-3.61,4.66-1.47-2.9-.89-5.64-.13-8.5,2.36-8.85,4.69-17.72,6.86-26.62,1.17-4.79,1.02-4.86-3.96-6.31-1.7-.49-3.31-1.01-4.67-2.77Z"/>
  <path class="cls-6" d="M324.6,312.69c-.12-6.57,1.98-8.68,8.23-8.84,5.89-.15,9.9,2.78,12.72,7.54,2.99,5.06,1.65,10.07-3.33,13.61-4.02,2.86-11.02,2-13.91-2.16-2.09-3-4.06-6.29-3.71-10.15Z"/>
  <path class="cls-3" d="M349.5,296.39c.59.06,1.44-.09,2.05.23,3.21,1.67,4.46.04,5.15-2.83.29-1.2.72-2.36,1.14-3.53.35-.97.99-1.97,2.03-1.87,1.39.13,2.38,1.47,2.05,2.63-1.92,6.62.76,10.57,6.83,12.94.69.27,1.35,1.6,1.34,2.43-.01.95-1.1,1.87-2.09,1.75-5.01-.6-7.91,1.48-9.06,6.38-.27,1.16-1.29,2.28-2.68,2.12-1.59-.19-1.78-1.7-1.59-2.87.96-5.96-1.45-9.97-6.77-12.51-1.38-.66-2.55-1.73-1.75-3.52.61-1.37,1.98-1.25,3.35-1.35Z"/>
  <path class="cls-11" d="M304.68,317.52c1.1.36,2.25.86,3.46,1.1,2.17.44,3.95.14,4.42-2.57.21-1.19.64-2.41,1.28-3.42.63-.99,1.52-2.08,3-1.61,1.07.34,1.43,1.37,1.61,2.34.17.97.25,2,.12,2.98-.46,3.47.99,5.66,4.19,6.96,1.63.66,3.31,1.69,2.65,3.85-.48,1.56-1.99,2.11-3.58,2.21-1.71.11-3.21.27-4.74,1.59-3.59,3.09-4.15,3.05-5.41-.85-1.04-3.2-2.79-5.08-5.71-6.32-1.12-.48-2.2-1.19-3.12-2-.9-.78-2.04-1.68-1.47-3.12.59-1.49,2.01-1.09,3.31-1.14Z"/>
  <path class="cls-10" d="M340.93,315.52c-.07,1.52-1.32,2.71-2.7,3.8-1.44,1.13-2.76.45-4.12-.25-1.68-.88-2.5-2.41-3.03-4.06-.6-1.89-1.17-4.1.37-5.64,1.94-1.93,3.56,0,5.14,1.1,1.78,1.24,4.2,1.87,4.34,5.05Z"/>
</svg>