<?xml version="1.0" encoding="UTF-8"?>
<svg id="Layer_1" data-name="Layer 1" xmlns="http://www.w3.org/2000/svg" viewBox="0 0 445 558">
  <defs>
    <style>
      .cls-1 {
        fill: #ed6e7a;
      }

      .cls-1, .cls-2, .cls-3, .cls-4, .cls-5, .cls-6, .cls-7, .cls-8, .cls-9, .cls-10, .cls-11, .cls-12, .cls-13, .cls-14, .cls-15, .cls-16, .cls-17, .cls-18, .cls-19, .cls-20, .cls-21, .cls-22, .cls-23, .cls-24, .cls-25, .cls-26, .cls-27, .cls-28, .cls-29, .cls-30 {
        stroke-width: 0px;
      }

      .cls-2 {
        fill: #eba7b1;
      }

      .cls-3 {
        fill: #f27ab6;
      }

      .cls-4 {
        fill: #ee7ab3;
      }

      .cls-5 {
        fill: #fac5df;
      }

      .cls-6 {
        fill: #f7e6e5;
      }

      .cls-7 {
        fill: #f7edeb;
      }

      .cls-8 {
        fill: #f7d6dc;
      }

      .cls-9 {
        fill: #e6a3ac;
      }

      .cls-10 {
        fill: #cd1d3f;
      }

      .cls-11 {
        fill: #d01e3f;
      }

      .cls-12 {
        fill: #f5e0e0;
      }

      .cls-13 {
        fill: #eb2d3d;
      }

      .cls-14 {
        fill: #ed2d3d;
      }

      .cls-15 {
        fill: #e5a3ac;
      }

      .cls-16 {
        fill: #eb77b1;
      }

      .cls-17 {
        fill: #f7eae8;
      }

      .cls-18 {
        fill: #f5c1db;
      }

      .cls-19 {
        fill: #ef79b4;
      }

      .cls-20 {
        fill: #ed7a86;
      }

      .cls-21 {
        fill: #fedce3;
      }

      .cls-22 {
        fill: #f8ebe9;
      }

      .cls-23 {
        fill: #ce1e3e;
      }

      .cls-24 {
        fill: #f6e8e6;
      }

      .cls-25 {
        fill: #eda8b2;
      }

      .cls-26 {
        fill: #f4eae8;
      }

      .cls-27 {
        fill: #f9c5df;
      }

      .cls-28 {
        fill: #ce1e3f;
      }

      .cls-29 {
        fill: #f8ecea;
      }

      .cls-30 {
        fill: #fec8e3;
      }
    </style>
  </defs>
  <path class="cls-25" d="M43.82,241.97c1.43-2.44,1.5-5.11,1.22-7.79-2.15-20.87-.99-41.81-1.15-62.72-.02-2.13-.64-4.43,1.2-6.23,1.02,3.32,4.12,5.03,5.95,7.74-.5,26.43,2.09,52.71,3.41,79.05.5,9.92,3.01,17.61,13.23,20.98.88.29,1.67.99,2.32,1.74.57,0,.55-.14-.08-.37-11.45-4.15-13.64-12.76-14.15-24.15-1.09-24.36-5.92-48.5-4.68-73.07.42-8.35,1.37-10.1,9.44-12.4,18-5.14,36.69-5.83,55.09-8.33,21.8-2.96,43.96-2.66,65.67-6.3,29.09-4.88,58.55-3.01,87.73-5.73,5.63-.52,11.27-1.22,16.53-3.23,17.95-6.85,36.16-3.98,54.39-1.89,3.57.41,5.19,2.65,5.35,5.91.92,18.52,6.13,36.62,4.83,55.41-1.42,20.61,1.46,41.01,4.71,61.32,1.36,8.49.68,10.45-7.53,12.91-16.49,4.95-32.03,11.92-47.01,20.35-6.23,3.51-12.03,7.38-17.3,12.25-4.63,4.29-9.5,8.47-15.77,10.37-5.85-1.88-5.41-5.67-2.4-9.52,2.9-3.71,7.05-5.93,11.4-7.76,4.3-1.81,8.5-3.89,10.95-8.2,1.23-2.17,2.25-4.48.83-6.92-1.55-2.64-4.2-3.27-7-3.03-4.92.42-8.55,3.26-11.94,6.58-1.32,1.29-2.49,3.69-4.69,2.75-2.44-1.05-1.67-3.7-1.75-5.86-.27-6.94,3.41-10.74,9.6-13.03,8.93-3.31,18.07-6.12,26.55-10.58,4.09-2.15,7.14-5.1,8.52-9.58,1.57-5.11-.28-8.01-5.65-8.66-7-.85-12.93,1.75-18.35,5.91-2.29,1.76-4.06,4.34-7.3,4.6-1.17-.14-2-.76-2.54-1.79-.88-2.33-.19-4.32,1.42-6.03,8.53-9.08,17.1-18.07,29.4-22.2,3.72-1.25,7.22-3.05,9.92-6,1.83-2.01,3.62-4.34,2.44-7.2-1.28-3.09-4.35-2.66-7-2.56-3.23.11-6.17,1.27-8.97,2.85-2.3,1.3-4.33,3.24-7.21,3.31-.74-.13-1.34-.49-1.81-1.07,1.05-7.84,5.55-14.43,7.85-21.83,2.25-7.25,4.61-14.38,2.69-22.15-1.02-4.14-2.81-7.55-7.52-7.61-4.88-.06-6.63,3.75-7.42,7.7-2.16,10.79.48,20.78,5.69,30.24.28.69.45,1.41.55,2.15.34,5.67-3.22,9.93-5.37,14.69-2.66,5.91-6.02,11.5-8.15,17.65-1.02,2.01-1.98,4.07-4.4,4.8-4.48-2.19-2.93-6.25-2.7-9.65.26-3.88,1.28-7.71,1.03-11.66-.26-4.05-1.38-7.8-4.34-10.62-3.48-3.31-7.74-6.1-12.51-3.54-4.64,2.5-4.05,7.26-3.06,11.78,2.12,9.65,6.82,17.73,14.38,24.12,1.03.94,2.15,1.78,3.26,2.63.56.45,1.03.97,1.44,1.55.87,8.53-4.73,15.2-6.64,22.94-.62.91-1.43,1.56-2.51,1.85-3.49-.89-3.53-4.34-4.9-6.76-2.4-4.23-4.27-8.83-8.63-11.54-3.27-2.04-6.8-3.01-10.32-.79-3.72,2.34-5.99,5.7-5.61,10.33.57,6.99,3.94,11.86,10.81,14.07,5.09,1.63,10.41,2.55,15.28,4.9.65.4,1.15.93,1.53,1.59.93,5.75.09,11.3-1.85,16.72-.54.51-1.19.78-1.94.76-3.03-2-4.74-5.49-8.03-7.22-1.8-.95-3.61-1.54-5.42-.14-1.52,1.17-1.64,2.77-1.35,4.58.4,2.5,2.16,5.08-.17,7.53-5.42,1.81-10.6-.51-15.88-.96-23.1-1.98-44.32,2.43-61.82,18.62-4.53,4.19-8.29,5-13.5,1.41-3.94-2.72-8.11-5.25-12.56-7.19,6.73,3.31,12.75,7.87,19.62,10.95,2.04.92,3.95,2.01,4.57,4.42.16,1.64-.36,2.94-1.88,3.73-2.86.96-5.31-.3-7.61-1.66-10.09-5.93-20.56-11.2-30.48-17.45-8.24-5.19-16.39-10.48-25.49-14.29-8.29-3.47-16.34-7.6-23.73-12.93-4.53-3.26-9.48-5.88-14.96-7.54-5.21-1.58-9.51-4.85-12.79-9.32-3.13-9.35-3.92-18.93-2.97-28.7Z"/>
  <path class="cls-8" d="M161.29,333.09c1.16-.61,1.48-1.68,1.54-2.88,12.77-15.72,27.52-27.99,48.98-29.45,10.96-.74,20.49,3.61,30.18,7.46,7.26,2.88,13.65,7.5,20.44,11.31,2.68,1.32,3.77,4,5.38,6.25.65.75,1.36,1.43,2.19,1.99,2.67,1.29,4.83,3.09,6.74,5.44,18.87,23.21,38.94,45.4,58.69,67.85,5.88,5.73,10.62,12.48,16.36,18.34,10.76,13.57,21.16,27.48,34.95,38.27,3.57,2.8,4.88,7.21,8.19,10.23,4.68,4.27,9.42,8.42,14.62,12.03-.59,6.81-2.28,9-10.54,8.26-8.09-.73-15.9,1.25-23.92.65-7.54-.57-15.16-.1-22.75-.14-3.41-.02-6.81.18-10.16-1.03-1.54-.55-3.42-.54-5.09-.31-20.2,2.86-40.51.76-60.77,1.33-10.02.28-20.07-.06-30.09.13-6.22.12-12.58,1.74-18.61.85-9.79-1.44-19.58-1.37-29.23-.67-14.28,1.03-28.65,1.12-42.86,3.62-6.63,1.17-13.44,2.15-20.33,2.04-13.45-.22-26.91-.01-40.37-.02-4.89,0-9.69.45-14.54,1.15-4.74.68-9.63.37-14.54-.73-4.69-1.06-9.68-.74-14.55.23-6.91,1.37-13.58-.36-19.9-2.85-3.14-1.24-5.62-4-5.15-8.08.16-4.11,2.62-7,5.16-9.87,20.82-21.63,41.74-43.07,60.38-66.76,13.55-17.22,28.77-33.19,43.96-49.03,7.12-7.43,12.28-16.48,20.13-23.22,1.43-1.76,3.84-1.21,5.53-2.37Z"/>
  <path class="cls-2" d="M268.57,328.81c-.53-.49-1.06-.98-1.59-1.47.24-.8.5-1.58.79-2.37.68-3.61,3.06-5.99,5.75-8.23,13.26-11.04,27.82-19.85,43.8-26.45,12.65-5.22,23.69-13.78,36.78-18.17,2.24-.75,2.61-2.38,2.37-4.66-2.94-28.71-2.69-57.59-4.55-86.37-.81-12.45-1.52-24.88-3.16-37.26-1.03-7.76-1.95-8.9-10.55-8.28-20.7,1.48-41.42,2.39-62.07,4.86-24,2.86-48.09,6.16-72.37,2.71-1.71-.24-3.46-.26-5.11.2-18.32,5.08-37.48,3.56-55.95,6.99-22.9,4.25-46.32,3.28-69.15,7.81-9.47,1.88-17.86,5.45-23.89,13.37-1.64-.85-1.32.56-1.51,1.34-.21.9-.11,1.96-1.79,2.39-2.14-3.05-.57-6.72-1.29-9.99,1.8-6.1,5.9-9.61,11.88-11.67,11.48-3.97,22.96-7.65,35.33-7.27,3.88.12,7.57-1.76,11.51-1.28,4.66-5,10.91-2.85,16.5-3.7,22.24-.95,43.94-6.2,66.03-8.34,5.37-.52,10.75-.66,16.1-.39,29.68,1.46,58.88-4.14,88.32-5.78.75-.04,1.51-.01,2.26.06,1.64.05,3.32.24,4.9-.54.56-.29,1.15-.5,1.76-.65,1.86,2.04,4.27,1.96,6.75,1.84,6.31-.31,12.62.05,18.92-1.23,7.17-1.45,14.4,1,21.71.13,4.33-.52,8.32,3.74,9.65,8.53,2.03,7.31,2.49,14.91,2.61,22.35.28,17.52,2.59,34.97,1.81,52.52-.11,2.54,1,4.73,1.48,7.1,2.63,17.56,3.07,35.26,3.66,52.95.38,3.57-2.03,5.22-4.7,6.62-15.51,8.1-30.45,17.24-46.71,23.97-15.41,6.38-28.24,17.05-41.28,27.18-1.83,1.42-3.02,2.04-5,1.18Z"/>
  <path class="cls-27" d="M268.57,328.81c.96-.15,2.26.05,2.82-.5,14.78-14.81,32.36-25.09,51.44-33.44,12.24-5.35,23.81-12.28,35.48-18.86,2.41-1.36,5.96-1.28,7.11-4.64,2.65-4.5,6.97-7.13,11.22-9.76,3.87-2.4,7.74-4.76,11.01-7.98,2.09,3.12,6.24,2.7,8.8,5.78,6.18,7.43,7.9,16.05,8.62,25.09.88,11.18,2.37,22.38,1.56,33.58-.62,8.71.77,17.31.6,26.01-.14,7.1.35,14.5.66,21.75.45,10.75.27,21.53.15,32.29-.14,11.98,1.55,23.78,2.59,35.66,1.02,11.63,2.74,23.28,1.86,35.04-.29,3.89-.87,7.68-2.95,11.08-1.72-.01-3.39-.06-4.85-1.23-6.01-4.83-12.01-9.48-16.15-16.37-2.27-3.78-6.4-6.5-9.86-9.52-7.9-6.89-14.86-14.63-20.71-23.3-2.28-3.38-6.78-5.11-7.21-9.81,4.18-.73,6.02,2.7,8.39,4.94,14.22,13.43,27.16,28.16,41.52,41.46.88.82,1.58,1.88,3.51,2.35.9-7.49,1.13-15,.17-22.28-4.27-32.11-4.13-64.35-4.21-96.63-.06-23.45-1.63-46.86-4.34-70.17-.2-1.7-.54-3.38-.78-5.08-.76-5.2-3.05-6.65-8.01-4.07-32.54,16.91-65.32,33.37-97.84,50.33-1.74.91-3.34,2.03-4.83,3.32-5.51,4.76-5.7,6.16-1.04,11.97,14.84,18.5,30.5,36.32,45.73,54.5,2.76,3.29,7.41,6.1,5.6,11.74-5.93-4.06-9.84-10.16-14.27-15.49-5.76-6.93-12.42-12.99-17.96-20.15-8.92-11.51-19.34-21.83-27.96-33.61-1.65-2.25-4.28-2.17-5.85-4.01Z"/>
  <path class="cls-5" d="M32.05,475.51c-1.97,2.94-3.94,5.89-5.92,8.83-1.53-1.25-1.41-3.01-1.43-4.71-.04-3.67-.2-7.34-.01-11,.99-19.78-.8-39.54-1.89-59.2-1.36-24.43-1.27-48.82-.57-73.17.31-10.56-.38-21.45,2.27-31.96.35-1.37.33-3-.03-4.36-2.96-11.02-.68-21.72,1.83-32.41.52-2.21,1.94-3.28,4.08-3.59,6.21.45,11.8,2.58,16.79,6.28,1.83,6.16,8.62,8.05,11.53,13.3.92,1.77,2.49,3.02,3.57,4.65,2.19,3.29,1.72,6.02-1.88,7.86-6.34,3.24-12.39,6.86-17.15,12.29-.32.37-.72.87-1.13.9-10.9.79-8.9,9.14-9.54,16.06-3.24,34.89.12,69.69,1.33,104.52.46,13.18.25,26.36.16,39.54-.01,2.25-.78,4.3-2.01,6.19Z"/>
  <path class="cls-16" d="M120.12,143.5c-5.46.29-11.01-.45-16.31,1.52,6.22-11.34,13.86-21.73,21.66-31.97,10.47-13.77,20.03-28.24,31.38-41.34,6.06-7,12.13-13.98,18.32-20.86,4.08-4.54,9.37-4.49,14.9-3.61,12.51,1.97,22.6,8.72,32.34,16.16,18.18,13.89,36.47,27.65,54.4,41.86,7.99,6.33,15.96,12.8,22.85,20.42-.11.58-.23,1.16-.34,1.75-6.81,1.04-11.06-3.65-15.03-7.65-11.97-12.08-26.67-20.58-39.78-31.14-9.12-7.34-18.56-14.26-27.79-21.46-7.81-6.09-16.14-10.97-25.81-13.45-5.28-1.35-9.26-.11-13.05,4.06-12.19,13.39-23.67,27.36-34.27,42.01-8.32,11.49-17.81,22.06-25.91,33.72-2.63,3.79-4.22,6.58,1.86,8.1.65.16.81,1.11.58,1.88Z"/>
  <path class="cls-19" d="M387.65,253.63c-.16,1.65.08,3.46-1.79,4.4-7.32,3.67-13.44,9.17-20.44,13.33-.45-.83-1.33-1.7-1.28-2.49.67-9.8-1.62-19.41-1.67-29.17-.02-5.34.51-10.7-1.17-16-.68-2.15-1-4.89,1.29-6.8,9.17,11.69,17.51,23.93,25.05,36.72Z"/>
  <path class="cls-4" d="M46.75,271.29c-5.11-3.24-11.45-3.71-16.38-7.36,3.59-7.87,9.6-14.25,13.44-21.96,1.03.83,1.46,1.96,1.41,3.23-.35,8.83,1.85,17.38,2.91,26.05-.44.71-.9.69-1.38.04Z"/>
  <path class="cls-15" d="M49.67,171.5c2.63-9.67,10.8-12.45,19.01-14.55,13.23-3.39,26.87-3.68,40.43-4.82,9.11-.76,18.5-.25,27.41-3.4,5.07-1.79,10.66-1.42,15.87-1.76,8.24-.55,16.4-2.21,24.73-2.02,6.05.14,12.11-1.08,17.87-3.06,3.35-1.15,6.65-1.47,10.08-1.01,14.8,2.02,29.57,1.73,44.41.16,6.51-.69,12.94-1.97,19.58-2.02,7.47-.06,14.97-1.28,22.39-2.42,4.83-.74,9.69-.58,14.53-1.08,13.05-1.35,26.22-1.55,39.35-2.16,3.89-.18,5.17,2.59,5.32,5.67.62,12.86,2.69,25.58,3.38,38.47.72,13.4.1,26.86,1.46,40.14.98,9.53.5,18.99,1.25,28.44.56,7.02,1,14.07,1.89,21.03.48,3.72-.31,5.85-3.37,6.9-10.91,3.73-20.71,9.55-30.51,15.44-1.86,1.12-3.99,1.81-6.04,2.59-17.29,6.55-32.24,16.91-46.67,28.21-2.49,1.95-1.09,5.28-3.48,6.94-1.42-3.3-5.33-5.93-2.79-10.3,6.13-3.44,12.18-7.03,17.08-12.15,4.11-4.29,9.14-7.16,14.14-10.25,12.32-7.62,25.85-12.61,38.95-18.52,4.15-1.87,8.91-2.33,13.23-3.9,5.47-1.99,5.27-2.17,3.92-7.92-1.28-5.43-2.63-10.85-2.37-16.55.24-5.12-1.08-10.17-1.78-15.18-1.81-12.93-1.01-25.76-.56-38.66.19-5.54.35-11.35-1.07-16.61-2.83-10.48-2.56-21.2-3.82-31.78-.33-2.82-.67-3.47-4.1-3.94-11.38-1.56-22.72-2.46-34.19-2.29-4.46.07-8.73.5-12.89,2.15-13.12,5.19-26.94,6.16-40.82,6.7-6.11.24-12.25-.27-18.34.1-15.26.92-30.59.7-45.71,3.95-6.08,1.31-12.55.93-18.85,1.73-13.74,1.74-27.57,2.53-41.42,3.25-9.64.5-19.18,2.8-28.81,3.86-8.69.96-17.41,1.65-26,3.33-4.77.94-9.52,2.01-14.22,3.27-3.64.98-5.69,3.15-5.6,7.4.22,11-.36,22.03.23,33.01.37,6.98,2.26,13.87,3.47,20.81.25,1.43.82,2.89.72,4.3-.65,9.3,2.39,18.39,1.53,27.7-.37,3.98,1.73,6.22,5,8.12,4.56,2.64,8.87,5.72,13.24,8.58-.62,1.15-1.4,1.41-2,1.1-5.85-3.02-11.65-6.13-17.48-9.18-1.84-.96-2.89-2.16-3.23-4.43-1.3-8.65-2.91-17.31-2.78-26.04.34-22.47-2.67-44.84-1.56-67.31Z"/>
  <path class="cls-14" d="M265.77,316.88c0,3.68,3.43,6.44,2.79,10.3-.52.05-1.05.11-1.57.16-1.38-2.05-2.77-4.1-4.15-6.15-.72-.64-1.59-1.31-1.71-2.26-.91-7.09-4.5-11.05-11.99-11.59-2.5-.18-4.87-2.08-5.18-5.24-.74-2.05-1.44-4.11-2.23-6.14-1.21-3.11-.52-5.92,1.97-7.86,2.5-1.95,5.19-.54,7.46.88,3.35,2.08,6.05,4.82,7.25,8.74-3.76,1.72-6.26-1.9-9.87-2.14.83,1.19,2.1,1.55,3.13,2.17q9.71,5.85,18.34-1.32c1.88-1.57,4.16-2.49,6.23-4.11-3.96,1.6-6.62,4.56-9.59,7.16-3.94,3.44-5.72,2.92-8.34-1.85,2.63-5.48,2.37-11.42,2.75-17.26-2.99-8.63-6.09-17.17-16.14-21.38,8.11,5.3,11.96,12.79,14.79,20.97-5.38-1.43-10.83-2.67-16.14-4.32-8.81-2.74-12.02-11.21-10.68-19.17.82-4.83,4.01-8.42,8.86-9.78,5.34-1.5,9.55,1.25,12.99,4.85,3.21,3.36,5.03,7.7,6.88,11.95.75,1.72.55,3.95,2.51,5.08.79.92,1.67.85,2.5.12,4.54-4.04,8.92-8.36,14.77-10.52,5.7-2.1,11.46-4.02,17.19-5.97-9.35,1.17-17.93,4.14-25.37,10.33-2.23,1.85-3.74,5.47-7.73,4.4,1.14-5.86,2.93-11.51,5.5-16.91,1-2.1,2.63-4.2.39-6.51,11.5-7.27,19.84-18.34,29.38-24.63-4.09,4.16-11.37,7.76-16.81,13.68-1.37,1.5-3,3.41-5.61,2.04,2.47-8.63,7.44-16.11,11.16-24.17,1.2-2.6,3.06-4.95,2.71-8.06,3.68-9.39,6-18.95,3.93-29.11,1.21,9.77.86,19.3-4.4,28.06-5.52-8.45-7.76-17.74-7.14-27.78.17-2.71.6-5.36,1.64-7.84,1.72-4.1,5.28-6.29,9.15-5.9,4.09.41,7.22,3.67,8.38,7.87,2.41,8.71.31,16.86-2.52,24.99-2.57,7.38-5.78,14.48-9.3,21.44.45,1.26,1.07.34,1.64.13,5.25-4.07,10.56-7.99,17.73-7.68,2.99.13,5.96.29,7.63,3.34,1.74,3.16-.16,5.68-1.71,8.11-2.47,3.9-6.44,6.02-10.56,7.57-10.01,3.77-19.13,8.69-25.3,17.86-2.12,3.15-7.12,3.85-7.36,8.61-.27,1.54-.28,2.8,1.87,1.73,4.14-3.78,8.26-7.5,13.49-9.94,4.42-2.07,8.91-2.52,13.56-2.1,6.03.55,8.61,5.13,6.71,10.92-1.71,5.21-5.02,8.75-9.83,11.23-7.62,3.93-15.66,6.8-23.72,9.59-11,3.82-11.71,4.59-11.84,17.2,2.5-.98,3.44-3.33,5.09-4.81,3.53-3.18,7.34-5.65,12.32-5.69,3.31-.03,6.49.54,8.44,3.43,2.23,3.3.8,6.6-.86,9.66-2.21,4.07-6.04,6.23-10.05,8.18-3.9,1.9-7.87,3.4-11.44,6.25-3.75,2.99-4.16,5.51-1.99,9.19Z"/>
  <path class="cls-9" d="M243.95,302.1c3.5,3.39,7.65,5.1,12.55,4.81,3.03-.18,4.36,1.23,4.66,4.23.34,3.37,1.1,6.69,1.67,10.04-4.09-.4-7.11-3.15-10.25-5.24-9.92-6.57-20.97-10.78-32.3-13.12-12.56-2.59-24.54,1.42-35.21,8.63-5.48,3.7-10.05,8.45-14.64,13.16-2.24,2.3-4.66,4.27-7.6,5.59-7.03-4.28-14.07-8.54-21.08-12.84-2.58-1.59-5.1-3.28-7.65-4.93.27-.47.53-.94.8-1.41,4.42,2.27,8.86,4.52,13.26,6.84,1.07.56,1.98,1.41,3.03,2.01,7.73,4.43,7.43,4.06,14.03-1.61,9.64-8.28,20.19-14.93,33.42-16.28,6.22-.64,12.3-2.53,18.64-2.76,6.86-.25,13.48,1.36,20.18,2.28,2.17.3,4.29.69,6.48.6Z"/>
  <path class="cls-13" d="M268.66,241.94c-11.34-6.77-15.31-18.02-17.22-29.98-1.44-9.04,5.7-13.63,14.07-9.84,6.94,3.14,10.45,8.58,10.43,16.14-.01,3.15-.65,6.28-.92,9.43-.33,3.76-1.76,7.61.81,11.15-2.77,2.82-3.06,2.86-5.67-.53-4.4-5.73-6.8-12.37-8.61-19.76.88,6.6,3.55,12.03,6.7,17.23,1.15,1.9,2.52,3.62,2.1,6.03-.52.66-1.09.67-1.69.11Z"/>
  <path class="cls-18" d="M46.75,271.29c.46,0,.92-.01,1.38-.04,7.68,6.66,18.18,7.95,26.26,13.9,10.09,7.43,21.6,12.18,32.91,17.39,6.15,2.83,11.58,7.19,17.47,10.64,10.52,6.16,21.12,12.19,31.73,18.19,1.45.82,3.18,1.17,4.78,1.73-1.05,1.59-2.86,2.03-4.39,2.89-7.31.08-12.98-4.25-18.75-7.66-24.84-14.69-49.84-29.07-76.03-41.27-1.97-.92-4.09-1.74-5.1-3.95-4.18-3.28-8.41-6.52-10.26-11.82Z"/>
  <path class="cls-7" d="M87.93,234.77c4.74-1.93,9.34-1.7,14.24-.09,5.52,1.82,11.26,3.23,17.01,4.04,5.52.79,11.1.61,16.64-1.12,8.36-2.61,16.87-4.75,25.34-6.97,1.62-.42,3.39-.38,5.09-.4,3.42-.04,6.84-.03,10.26.06,13.69.36,27.28.09,40.48-4.33,1.46-.49,3.12-1.51,4.91-.71,1.15,2.42-1.27,2.45-2.21,2.75-7.86,2.53-15.67,5.36-24.14,5.22-2.17-.04-4.36.35-6.51.73-4.37.78-8.71.85-13.07-.06-5.84-1.23-11.53-.9-17.31.77-8.64,2.5-17.36,4.8-26.15,6.73-9.86,2.17-19.39-.41-28.72-3.28-4.75-1.46-9.41-2.42-14.35-1.92-1.56.62-1.81-.13-1.5-1.44Z"/>
  <path class="cls-26" d="M114.99,258.84c14.46,2.52,27.79-1.19,41.15-4.65,2.83-.73,5.74-1.24,8.45-2.29,4.16-1.61,8.15-1.3,12.1.35,8.89,3.71,17.94,3.65,27.24,1.85,3.98-.77,8.16-.94,13.27.58-4.45,3-8.85,2.96-12.77,3.23-9.34.66-18.66,1.72-27.95-2.07-5.05-2.06-10.99-1.13-16.52.57-11.65,3.59-23.54,6.06-35.81,6.19-3.42.04-6.72-.25-9.17-3.77Z"/>
  <path class="cls-29" d="M136.42,179c11.69-4.18,23.29-4.05,35.1-.04,9.23,3.13,19.01,1.87,28.35.88,7.23-.77,14.54-.66,21.78-2.11,8.79-1.76,17.85-2.16,26.79-3.13.96-.1,1.95-.11,3.17,1.02-4.45,2.33-9.12,2.75-13.8,3.25-12.32,1.32-24.61,3.19-36.97,3.91-11.12.65-22.33,1.98-33.36-2.02-9.17-3.33-18.73-2.36-28.15-.41-1.54.78-2.97,1.34-2.91-1.34Z"/>
  <path class="cls-11" d="M270.04,241.94c-3.37-6.12-7.57-11.8-9.47-18.68-.91-3.29-1.57-6.43,1.02-10.45,2.14,6.14,3.26,11.66,5.39,16.84,1.41,3.43,3.5,6.33,5.47,9.33.94,1.44,2.32,1.66,3.38-.13.84-1.42,1.68-2.84,2.52-4.26,6.81-5.42,13.63-10.83,20.44-16.27,1.47-1.17,2.54-3.09,5.71-2.24-1.66,3.4-4.3,5.92-7.02,7.76-7.32,4.96-12.63,12.09-19.56,17.49-2.23,1.73-4.17,2.05-6.55,2.18,0,0,.06.03.06.03-.41-.58-1.32-.72-1.39-1.6Z"/>
  <path class="cls-22" d="M238.21,199.63c-9.03-.1-17.7,3.98-26.78,2.1-.93-.19-1.99-.36-2.86-.09-8.44,2.66-17.42,1.88-25.9,4.13-1.95.52-3.78.97-5.68.06-5.91-2.82-11.84-2.06-17.79-.13-1.34.44-2.68,1.38-4.9-.46,6.74-2.33,12.48-6.26,19.66-3.23,3.02,1.27,6.06,1.23,9.27.48,8.03-1.87,16.39-2.85,24.43-3.52,9.99-.83,20.39-2.42,30.56.65Z"/>
  <path class="cls-10" d="M265.48,266.93c1.15-.87,2.5-1.57,3.42-2.65,7.55-8.82,18.05-11.81,28.64-14.59.91-.24,1.93-.22,2.88-.13,1.3.13,2.44.88,2.66,2.13.27,1.53-1.1,1.89-2.29,2.25-4.64,1.39-9.24,2.93-13.92,4.16-8.56,2.26-15.12,7.41-20.84,13.87-.61.69-.9,1.8-2.32,1.62-2.06-1.77-.17-3.36.41-5.02.45-.55.91-1.1,1.36-1.64Z"/>
  <path class="cls-6" d="M136.42,179c.66,1.12,1.77,1.27,2.91,1.34-11.47,3.92-22.57,9.1-35.14,8.91-4.24-.06-8.24-.98-12.24-1.96-8.61-2.11-16.87-1.94-25.4,3.51.34-2.59,1.64-3.54,2.96-4.27,5.79-3.17,12.26-4.71,18.42-2.82,14.82,4.55,28.92,2.72,42.91-2.89,1.81-.73,3.71-1.23,5.56-1.83Z"/>
  <path class="cls-24" d="M133.07,206.67c-.79.7-1.22,1.34-1.46,1.27-7.22-1.94-13.19,1.87-19.35,4.38-7.85,3.2-15.19,4.74-22.62-1.39-3.39-2.79-7.91-1.52-11.98-.47-1.59.41-2.81,1.97-4.72,1.49,4.25-5.69,13.56-7.59,18.87-3.24,4.27,3.5,8.35,4.18,13.5,2.58,5.37-1.67,10.7-3.35,15.83-5.65,3.93-1.76,7.86-2.43,11.93,1.02Z"/>
  <path class="cls-28" d="M259.7,279.96c-1.98-2.73-4.45-5.09-5.79-8.31-2.45-5.87-6.51-10.17-12.72-12.16-.73-.23-1.29-.61-1.14-2.07,5.72-1.71,10.43,1.4,13.71,4.99,3.64,3.98,6.72,8.87,7.97,14.49.3,1.35-.31,2.35-.67,3.47-.48-.05-.93-.18-1.35-.41Z"/>
  <path class="cls-23" d="M291.74,201.32c1.64-7.83,3.86-15.54,3.33-23.74-.23-3.57-2.83-6.92-.81-11.18,3.93,4.07,4.84,9.41,4.69,13.95-.25,7.16-2.08,14.35-4.81,21.14-.19.47-1.26.59-1.93.88-.31-.28-.46-.63-.47-1.05Z"/>
  <path class="cls-17" d="M67.01,263.54c3.86-6.09,6.2-7.41,12.17-6.05,4.15.95,8.28.39,12.41.61,2.87.16,5.82-.42,8.57.57.13,2.01-1.14,2.25-2.36,2.22-6.56-.14-13.19,1.21-19.66-.9-2.29-.75-4.28-.05-6.13,1.45-1.41,1.15-2.59,3.1-4.99,2.08Z"/>
  <path class="cls-12" d="M87.93,234.77c.5.48,1,.96,1.5,1.44-4.02,3.15-8.84,4.64-13.45,6.67,2.51-4.97,7.71-5.83,11.95-8.11Z"/>
  <path class="cls-20" d="M275.89,253.77c-.59,1.64-1.97,2.5-3.6,3.98-.78-2.72.64-4.17,1.73-5.71.62.58,1.24,1.15,1.86,1.73Z"/>
  <path class="cls-1" d="M293.58,214.22c-.5.97-1.17,2.32-2.28,1.76-1.04-.53-.21-1.44.65-1.88.55.04,1.09.09,1.64.13Z"/>
  <path class="cls-14" d="M270.04,241.94c.46.53.93,1.06,1.39,1.6-1.19-.07-2.17-.5-2.77-1.6.46.02.92.02,1.38,0Z"/>
  <path class="cls-21" d="M34.2,486.38c5.7-7.39,11.23-14.42,17.42-20.97,13.08-13.82,26.13-27.68,38.77-41.9,3.56-4,6.96-8.15,10.76-11.94,3.47-3.46,7.17-6.7,7.52-12.15.07-1.06.99-2.28,1.86-3.04,6.29-5.5,10.96-12.46,16.79-18.36,10.47-10.59,19.53-22.39,28.99-33.84,4.21-5.09,8.32-9.93,14.23-13.33,5.01-2.89,8.86-7.54,13.46-11.19,8.24-6.53,17.88-8.59,27.79-10.06,3.66-.54,7.35-.04,10.77,1.5,10,4.51,20.35,8.23,29.39,14.75,7.22,5.21,13.18,11.64,19.01,18.2,4.84,5.46,9.25,11.28,14.16,16.71,9.63,10.66,18.91,21.63,28.34,32.46,3.84,4.41,7.77,8.78,11.72,13.05,12.58,13.61,24.55,27.7,36.16,42.14,9.29,11.56,19.87,22,31.04,32.47-13.58,1.01-26.56,2.65-39.67,1.95-4.62-.25-9.03-1.98-13.77-1.5-29.51,2.99-59.12.61-88.66,1.7-7.26.27-14.58,1.92-21.84,1.15-9.84-1.05-19.72-.25-29.55-.66-8.03-.34-16.57-.19-24.7,1.25-7.21,1.28-14.49,1.63-21.72,2.33-36.59,3.53-73.3.78-109.95,1.61-2.71.06-5.41.13-8.32-2.34Z"/>
  <path class="cls-30" d="M334.61,402.07c-.33-4.01-3.58-6.37-5.76-9.1-6.52-8.18-14.05-15.56-20.4-23.86-8.14-10.64-18.15-19.71-25.63-30.88-.54-.81-1.14-1.61-1.86-2.26-7.13-6.43-5.44-6,.58-12.34,2.24-2.36,4.88-3.97,7.75-5.42,12.18-6.14,24.1-12.81,36.25-18.97,8.41-4.27,16.83-8.61,25.37-12.69,11.43-5.46,22.66-11.35,33.77-17.44,9.48-5.2,10.45-5.16,12.36,5.59,1.1,6.18,1.63,12.52,2.38,18.77,1.52,12.58.09,25.33,2.62,37.82.38,1.88.12,3.9.12,5.86,0,20.06.07,40.12-.03,60.18-.04,9.03.88,18.07,1.9,26.92,1.71,14.81,2.75,29.56,2.5,44.43-.02,1.34.67,2.91-1.4,4.63-4.91-6.22-11.99-10.09-16.93-16.49-3.11-4.04-6.99-7.51-10.69-11.07-8.98-8.63-17.13-18.11-26.77-26.06-6.77-4.6-10.71-11.8-16.14-17.62Z"/>
  <path class="cls-30" d="M57.02,283.11c19.43,7.94,37.62,18.27,55.92,28.45,14.64,8.15,28.61,17.53,43.96,24.42-7.83,8.95-15.07,18.38-23.13,27.18-10.65,11.63-21.17,23.43-31.64,35.23-9.54,10.75-18.32,22.02-27.13,33.31-.15.19-.3.39-.48.55-14.31,13.28-26.49,28.62-40.62,42.06-.52.49-1.22.79-1.83,1.19,0-3.18-.11-6.36.01-9.53.98-25.14-1.35-50.21-1.85-75.32-.33-16.71-.79-33.44-1.15-50.17-.17-8.07,2.01-15.91,1.76-24.01-.12-3.83,1.91-7.5,4.86-10.32,4.39,3.37,4.82,3.59,7.11-.83,1.75-3.39,5.23-4.67,7.72-6.18,2.96-1.8,5.16-6.11,10.03-5,1.55.35,2.66-2.04,1.23-3.85-1.21-1.53-2.71-2.81-4.01-4.27-.71-.8-2.21-1.51-.74-2.92Z"/>
  <path class="cls-3" d="M120.12,143.5c-2.26-2.22-5.53-1.26-8.51-2.79,3.27-7.63,8.36-14.16,13.65-20.31,6.53-7.6,12.2-15.81,18.3-23.7,9.68-12.52,19.17-25.18,30.09-36.68.67-.71,1.56-1.29,2.02-2.11,3.94-7.02,9.57-7.79,16.86-5.64,9.79,2.89,18.37,7.64,26.03,14.23.74.64,1.29,1.6,2.12,2.01,10.17,5.05,17.92,13.4,26.79,20.16,12.76,9.72,26.83,17.81,37.87,29.78,3.79,4.11,8.54,7.19,13.98,8.97-1.06,1.75-2.79,1.41-4.4,1.41-.48-.48-.95-.5-1.42.02-9.83,1.69-19.84,1.81-29.73,2.51-13.09.92-25.97,3.79-39.2,3.5-16.81-.37-33.66-.64-50.4,1.45-7.21.9-14.45,1.97-21.51,3.68-6.23,1.51-12.43,2.67-18.78,2.07-4.74-.45-9.08,1.9-13.76,1.44Z"/>
  <path class="cls-16" d="M293.51,128.85c.46-.79.94-.81,1.42-.02,0,0-.71.04-.71.04l-.71-.02Z"/>
  <path class="cls-28" d="M258.3,297.63c4.64,3.28,4.76,3.4,8.21-.12,3.29-3.36,6.79-6.28,11.24-7.95,1.21-.45,2.29-.54,3.25.4,0,2.35-2.04,2.89-3.32,3.61-4.51,2.52-8.67,5.4-12.09,9.31-1.56,1.78-3.38,2.76-5.81,1.55-5.4-2.7-10.61-5.67-15.87-9.9,6.3-2.89,9.98,2.01,14.51,3.19,0,0-.1-.09-.1-.09Z"/>
</svg>