<?xml version="1.0" encoding="UTF-8"?>
<svg id="Layer_1" data-name="Layer 1" xmlns="http://www.w3.org/2000/svg" viewBox="0 0 1180.25 1122.11">
  <defs>
    <style>
      .cls-1 {
        fill: #fcf2f4;
      }

      .cls-1, .cls-2, .cls-3, .cls-4, .cls-5, .cls-6, .cls-7, .cls-8, .cls-9, .cls-10, .cls-11, .cls-12, .cls-13, .cls-14, .cls-15, .cls-16, .cls-17, .cls-18, .cls-19, .cls-20, .cls-21, .cls-22, .cls-23 {
        stroke-width: 0px;
      }

      .cls-2 {
        fill: #deb7cb;
      }

      .cls-3 {
        fill: #eeaed6;
      }

      .cls-4 {
        fill: #edaad3;
      }

      .cls-5 {
        fill: #ece9ea;
      }

      .cls-6 {
        fill: #f12d3e;
      }

      .cls-7 {
        fill: #d6b2c6;
      }

      .cls-8 {
        fill: #ebadd2;
      }

      .cls-9 {
        fill: #f9f1ed;
      }

      .cls-10 {
        fill: #dfbbcc;
      }

      .cls-11 {
        fill: #ce1d3f;
      }

      .cls-12 {
        fill: #ddb7ca;
      }

      .cls-13 {
        fill: #fcf5f2;
      }

      .cls-14 {
        fill: #f7efec;
      }

      .cls-15 {
        fill: #efabd6;
      }

      .cls-16 {
        fill: #f1add7;
      }

      .cls-17 {
        fill: #f8ebe9;
      }

      .cls-18 {
        fill: #e6a8cd;
      }

      .cls-19 {
        fill: #f9f1ee;
      }

      .cls-20 {
        fill: #f7eeeb;
      }

      .cls-21 {
        fill: #f6e6e9;
      }

      .cls-22 {
        fill: #923c4b;
      }

      .cls-23 {
        fill: #fdf5f2;
      }
    </style>
  </defs>
  <path class="cls-6" d="M766.56,174.08c7.09,18.31,12.36,37.37,19.27,55.57,11.55,30.41,21.44,61.32,31.77,92.09,6.36,18.93,11.44,38.56,18.14,57.1,8.88,24.56,17.42,49.29,25.99,73.98,24.01,69.12,47.68,138.35,71.42,207.56.59,1.73.52,3.69.76,5.54-.33,5.77-5.61,5.25-9.01,6.75-18.57,8.21-23.4,17.1-19.95,37.26,1.53,8.91,5.24,17.16,7.66,25.79,3.37,12.07,1.29,16.02-10.24,20.51-4.88,1.9-9.72,3.94-14.59,5.87-14.78,5.87-24.46,15.59-25.6,32.25-.2,2.97-.81,5.96-3.14,8.22-2.46,1.88-5.31,2.86-8.28,3.4-62.89,11.36-124.76,27.91-187.98,37.52-22.31,3.39-44.45,7.63-66.74,11.11-11.46,1.79-22.34,6.47-33.48,9.82-21.24,6.4-42.95,11-64.14,17.58-14,4.34-28.58,6.21-43.32,4.08-4.87-.7-9.63-1.96-12.88-6.19-6.41-11.61-10-24.32-13.73-36.9-20.92-70.61-44.69-140.32-65.99-210.8-17.94-59.34-35.36-118.82-52.1-178.52-18.06-64.39-38.66-128.01-61.77-190.78-9.74-26.44-17.97-53.4-27.93-79.77-1.86-4.92-2.11-10.28-2.56-15.53.19-1.92.78-3.6,2.72-4.44,20.31-9.86,42.47-13.34,64.19-18.11,51.39-11.27,103.26-20.16,154.5-32.35,30.81-7.33,62.72-9.96,94.36-13.39,27.85-3.02,55.53-7.66,83.57-9.05,6.56-.07,7.56,5.48,9.24,9.76,3.64,9.26,10.47,14.26,19.79,16.63,15.4,3.9,31.02,5.03,46.87,4.79,15.34-.23,17.89,2.24,20.73,17.49.27,1.47.43,2.97.7,4.44,4.47,24.25,12.13,30.39,36.42,29.93,5.08-.1,10.39-2.65,15.32.77Z"/>
  <path class="cls-11" d="M219.86,166.89c19.84,69.7,47.42,136.8,69.11,205.95,20.6,65.66,37.3,132.37,57.91,197.96,20.39,64.9,39.17,130.3,61.48,194.62,10.64,30.67,18.98,62.14,28.46,93.21,2.07,6.78,4.57,13.42,6.87,20.13-7.22,12.55-11.73,26.2-16.15,39.88-1.43,4.04-2.2,8.26-3.36,12.38-.72,4.26-2.46,8.31-2.44,12.72-.09,2.26-.22,4.52-.55,6.76-.13,1.16-.4,2.3-.72,3.42-3.55,13.02-4.24,26.58-7.48,39.65-.03,4.43-.95,8.84-.95,14.77,61.01-14.73,119.68-34.83,180.31-47.31,2.41-.44,4.88-.29,7.28-.89,56.28-9.89,112.02-23.03,168.73-29.99,41.84-5.14,83.06-13.63,124.72-19.62,2.64-.38,5.18-.92,7.75.11,3.29,1.91,2.69,5.2,2.18,7.9-1.71,9.06,1.29,18.24-.98,27.23-14.65,7.47-31.04,7.23-46.63,10.56-40.62,8.67-81.54,15.58-122.69,21.2-4.86,2.68-10.68-1.02-15.44,2.33-3.96,4.15-10.04.08-14.16,3.65-25.83,7.38-52.57,10.36-78.71,16.28-48.69,11.02-98.02,19.3-145.8,34.2-17.24,5.38-34.61,10.27-52.13,14.68-6.52,1.64-13.09,3.46-18.72,7.53-3.66,2.64-7.6,3.06-11.63.7-11.17-33.9-22.53-67.74-33.48-101.71-22.59-70.03-45-140.13-67.44-210.21-23.59-73.66-46.52-147.53-70.89-220.93-19.4-58.45-37.74-117.24-56.56-175.87-8.04-25.04-16.95-49.88-23.48-75.32-4.39-17.09,2.99-33.27,10.71-48.45,10.19-20.02,25.85-35.56,42.56-50.14,4.66-10.87,13.04-10.48,22.32-7.35Z"/>
  <path class="cls-15" d="M858.65,800.88c-.76-25.82,14.34-38.23,37.13-44.95,18.33-5.41,17.92-5.81,11.72-25.15-2.95-9.19-5.1-18.7-6.82-28.21-2.66-14.74,8.08-28.43,26.14-34.04,2.42-.75,5.37.04,7.09-2.6,9.85,2.34,14.62,9.47,17.69,18.4,9.35,27.11,15.38,55.3,27.5,81.53,4.75,10.27-.82,20.48-13,25.66-7.12,3.03-13.93,7.39-22.11,7.5-4.71.06-8.47,2.76-12.49,4.74-2.3,4.72-6.78,4.79-11.1,5.19-3.92.36-7.99-.12-11.58,2.11-12.73,4.24-25.76,2.85-38.62,1.44-6.09-.67-11.11-4.36-11.55-11.62Z"/>
  <path class="cls-16" d="M766.56,174.08c-6.2,1.2-12.33,2.31-18.74,2.44-21.33.42-31.5-7.64-35.4-28.86-4.25-23.14-4.26-23.37-27.47-22.98-10.6.18-20.98-1.33-31.31-2.92-15.69-2.42-28.68-8.84-31.85-26.6-.44-2.45-2.34-3.73-4.31-4.89,22.81-11.97,48.16-13.53,72.87-17.6,8.02-1.32,16.2-1.63,24.31-2.41,8.28-1.69,16.56-1.69,24.84,0,13.65,11.86,15.96,28.91,20.04,44.94,3.3,12.95,5.82,26.1,10.42,38.69,2.74,7.5.25,13.89-3.41,20.19Z"/>
  <path class="cls-4" d="M902.04,945.76c-4.38-11.15-4.23-22.3-.08-33.47,1.66-6.25,8.27-3.99,11.87-6.94,1.01-.44,2.05-.77,3.12-1.06,1.78-.57,3.55-1.13,5.34-1.63,12.75-3.58,14.97-7.4,10.61-20.16-2.8-8.17-5.22-16.05-3.43-24.94,1.8-8.95,5.81-14.89,15.54-15.53,14.79-2.81,22.07,8.62,26.99,17.99,8.97,17.09,14.8,35.88,15.97,55.57.38,6.41-1.56,12.23-7.99,14.81-17,6.81-34.07,13.45-51.26,19.77-9.52,3.5-18.19-.45-26.68-4.41Z"/>
  <path class="cls-5" d="M396.13,1056.87c9.47.98,14.84-7.57,23.27-9.76,33.92-8.8,67.31-19.77,101.41-27.76,60.32-14.12,121.14-25.98,182.32-35.87-13.66,8.71-29.88,7.73-44.79,11.7-12.23,3.26-24.8,5.32-37.27,7.62-40.01,7.38-79.01,18.97-118.21,29.52-21.18,5.7-41.79,13.81-63.41,18.2-10.97,2.23-22.08,3.45-32.21,9.02-3.55,1.95-8.8,3.86-11.11-2.68Z"/>
  <path class="cls-14" d="M945,842.04c-11.79,6.41-16.59,19.89-11.7,32.84,9.57,25.31,9.28,25.83-17.7,32.34-.18-.33-.6-.79-.5-.97,12.57-23.16,2.13-47.16,2.57-70.76.04-2.23-.26-4.47.26-6.66.19-.69.32-1.57.85-1.96,7.22-5.38.29-4.88-2.52-6.08-3.45-3.05-5.75-6.86-7.35-11.14-.02-.5-.04-1-.06-1.5,6.88-4.96,15.72.18,22.67-4.39,4.46,10.24,6.44,21.18,8.8,31.99.67,3.09.75,5.94,4.69,6.29Z"/>
  <path class="cls-21" d="M219.86,166.89c-8.07.52-16.41.25-22.32,7.35-.32-8.6,4.44-11.72,12.35-11.44,3.65.13,7.31.24,10.96.36-.33,1.24-.67,2.49-1,3.73Z"/>
  <path class="cls-22" d="M717.28,979.85c4.54-4.82,10.29-1.59,15.44-2.33-4.73,3.56-10.24,1.9-15.44,2.33Z"/>
  <path class="cls-14" d="M858.65,800.88c5.31,8.2,13.1,10.54,22.38,9.64,9.26-.89,18.83,1.81,27.81-2.39l.09.15c3.53,9.26-3.5,9.58-8.95,9.49-27.96-.49-54.98,5.98-82.27,10.42-2.31.83-4.62,1.7-6.99,2.38-17.7,1.97-35.28,4.68-52.68,8.48-29.78.98-58.87,6.87-87.88,12.88-43.78,9.08-86.48,22.94-130.76,29.88-23.76,3.72-47.57,7.11-71.32,10.8-14.29,2.22-26.57,4.53-29.07,21.5-7.93,8.17-8.67,8.41-13.66,4.42,4.77-13.89,5.71-29.53,18.35-39.8,14.69,8.89,30.77,5.7,45.43,2.33,30.68-7.07,60.83-16.5,91.07-25.39,27.46-8.07,55.89-10.76,83.89-15.86,25.99-4.74,52.1-8.9,77.97-14.25,38.91-8.04,77.41-18.03,116.61-24.7Z"/>
  <path class="cls-19" d="M647.02,367.91c17.3,1.25,35.35,23.55,38.31,45.17,3.62,26.5-7.64,47.77-21.2,68.81-15.56,24.16-30.69,48.61-45.59,73.18-2.83,4.66-4.56,10.37-5.32,15.81-1.14,8.11-5.93,10.2-11.62,6.42-21.6-14.35-46.34-22.1-69.06-34.01-.7-.36-.73-1.99-1.07-3.04-1.93-3.11-4.01-5.89-7.28-7.99-5.09-3.28-6.33-7.84-2.24-13.01,4.4-1.76,7.4,1.27,9.82,3.76,16.44,16.97,40.37,18.64,59.75,29.55,3.56,2.01,6.67.51,8.54-2.87,6.39-11.55,15.8-20.92,22.93-31.77,4.56-6.94,8.02-14.35,14.85-19.33.67.08,1.37.03,2.04-.12-.76-.24-1.24-.75-1.46-1.58,3.23-15.13,11.23-28.43,22.07-38.13,13.6-12.16,13.43-26.92,12.36-41.66-1.1-15.06-6.47-29.37-21.08-37.63-4.02-2.27-5.95-5.57-5.6-10.18.28-.46.56-.91.85-1.37Z"/>
  <path class="cls-9" d="M504.22,517.88c-16.59-15.93-31.34-32.99-30.04-57.97,1.54-29.55,23.63-48.57,53.82-47.69,19.65.58,32.95,11.75,47.52,22.35,4.96-26.75,18.66-47.49,42-61.59,1.32,1.04,1.36,2.4.97,3.87-1.15,2.16-3.08,3.7-4.57,5.6-.64.78-1.34,1.5-2.07,2.19-6.46,11.15-13.49,22.15-19.37,33.36-4.57,8.71-4.85,20.9-2.6,31.93,1,4.88,5.77,11.88-2.41,14.36-7.34,2.23-13.58-4.31-14.73-9.6-3.4-15.65-19.34-16.99-28.08-26.36-2.58-2.76-12.36,1.35-18.88,2.12-6.63.78-13.17,3.02-19.26,6.09-15.98,8.06-18.93,21.93-11.79,38.28,5.3,12.15,14.04,21.79,19.71,33.45,2.29,4.72,2.92,8-3.93,7.87-2.38-.47-4.15,1.33-6.29,1.75Z"/>
  <path class="cls-9" d="M522.67,519.32c-.92,4.83-2.49,9.73,4.53,11.69,4.67,1.3,4.6,5.34,4.27,9.24-9.96-3.9-17.4-11.09-24.53-18.7,1.84-1.69,4.84-2.22,5.36-5.3,3.76.02,8.71-3.98,10.37,3.06Z"/>
  <path class="cls-19" d="M617.52,377.16c0-1.4,0-2.79,0-4.19,9.29-4.82,19.1-6.68,29.5-5.06,0,0-.31.58-.31.58-9.06,10.01-18.9,12.93-29.19,8.67Z"/>
  <path class="cls-19" d="M511.38,519.32c.42,4.5-3.09,1.24-4.44,2.24-2.32-.18-2.57-1.9-2.72-3.68.36-2.95,1.49-5.19,4.91-5.32,2.13,1.79.73,4.76,2.25,6.76Z"/>
  <path class="cls-23" d="M920.09,826.44c1.52,17.42,3.05,34.83,4.55,52.25.93,10.75,1.02,21.26-9.04,28.53-.69.18-1.39.28-2.11.31-34.99,6.58-70.52,9.39-105.6,15.56-27.3,4.8-54.99,7.69-82.68,9.96-25.92,2.12-51.26,7.77-76.27,14.49-14.82,3.98-29.17,9.73-44.48,11.99-2.39.35-4.17,1.59-5.08,3.91-2.25.07-4.5.15-6.74.22-13.44-.06-26.52,2.85-39.53,5.55-27.1,5.62-54.93,7.29-81.49,15.99-15.38,5.04-29.58,12.86-45.03,17.6-10.1,3.1-12.12,2.15-15.25-7.93,5.49-5.15,2.47-15.2,10.78-18.77,23.63-22.94,53.97-27.12,84.54-28.69,50.12-2.59,98.94-9.25,147-25.67,49.35-16.86,99.27-33.12,151.29-40.83,22.39-3.32,45.02-1.65,67.51-3.45,10.13-.81,20.19-2.04,30.34-2.63-68.54-.92-135.48,7.52-200.56,30.32-27.99,9.8-57.02,16.75-85.13,26.45-13.92,4.8-28.27,7.71-42.82,9.73-8.06,1.69-16.45-.43-24.42,2.19-18.33.82-36.65,2.06-54.91,3.75-23.72,2.19-46.25,8.81-67.31,20.08-8.83-1.75-6.98-9.88-9.27-15.56-.18-.59-.02-1.08.47-1.46,15.36-15.43,35.83-20.05,55.68-25.29,27.68-7.31,56.1-8.89,84.71-9.69,30.5-.85,60.33-7.87,89.3-16.99,34.02-10.71,68.14-21.25,101.62-33.62,27.52-10.18,56.47-11.65,85.2-14.69,23.11-2.45,46.38-3.33,69.2-7.25,1.11.88-.55-.63.92-.28,1.21.29,1.29-.43.44-.32-7.12.94-14.47-.36-21.43,2.22-27.23,3.18-54.56,4.98-81.82,7.63-30.66,2.98-59.04,14.18-87.82,23.81-47.73,15.97-95.26,32.51-145.62,38.53-13.56,1.85-27.28-.65-40.81,1.62-30.52,2.2-60.18,8.19-88.72,19.56-6.77,2.7-12.11,9.42-20.53,7.73-1.54-4.76,2.86-8.52,2.2-13.13,10.72-10.77,24-16.09,38.63-19.44,44.7-10.25,90.09-16.66,135.28-23.97,31.03-5.02,60.24-15.64,90.15-24.32,30.99-9,61.27-20.73,93.22-26.28,21.08-3.66,42.29-6.02,63.77-6.42,21.76-.41,43.32-3.97,65.03-5.47,4.43-.31,9.01-1.86,12.66,2.18Z"/>
  <path class="cls-18" d="M920.09,826.44c-18.58,1.47-37.38,1.64-55.67,4.77-17.5,3-35.04,1.5-52.55,3.47-28.02,3.16-54.9,9.86-81.9,17.4-41.33,11.54-80.98,29.24-123.63,35.72-36.1,5.49-71.92,12.6-108.04,18.09-24.59,3.74-50.86,5.84-71.55,23.26-1.22,1.03-3.59.71-5.42,1.02,1.86-3.69.55-8.47,4-11.61,5.54,2.76,7.65-3.14,11.54-4.55,3.66-5.45,9.46-6.94,15.32-8.63,37.01-10.7,75.35-14.27,113.06-21.21,34.02-6.27,68.31-10.77,101.13-22.81,27.84-10.22,56.6-17.8,85.48-24.7,1.83-.44,3.74-.39,5.49.54,17.63-5.9,35.78-8.56,54.33-8.77,8.87-3.53,18.33-1.85,27.48-2.98,4.06-.5,8.13-.49,11.85-2.48,19.3-3.78,38.98-3.9,58.46-5.96,2.32-.25,4.33.79,6.11,2.24,4.81.82,10-.98,15.79,1.91-3.86,3.46-7.62,4.29-11.29,5.29Z"/>
  <path class="cls-8" d="M569.9,911.82c16.36-3.22,32.77-6.21,49.07-9.71,32.61-7.01,63.51-19.63,95.25-29.5,27.04-8.4,53.25-19.79,81.79-22.81,17.42-1.84,34.83-3.94,52.27-5.5,12.64-1.13,25.34-1.58,38.02-2.33,6.96-.34,14.38-4.5,20.48,2.45-13.21,6.42-27.97,5.7-41.64,5.99-63.41,1.37-123.11,18.29-181.81,40.02-36.25,13.42-73.67,22.06-111.75,27.74-16.97,2.53-34.3.45-51.57,2.4-33.38,3.77-65.74,9.77-94.88,27.58-1.85,1.13-4.18,1.46-6.29,2.16.11-2.34.21-4.69.32-7.03,33.3-19.52,69.51-28.28,107.85-29.19,10.7-2.27,21.53-.29,32.27-1.06,3.55-.25,7.36,1.45,10.63-1.22Z"/>
  <path class="cls-20" d="M599.37,963.43c-2.38-5.56,2.64-5.31,5.28-6.12,35.34-10.77,70.95-20.68,107.44-26.64,15.03-2.46,30.52-2.04,45.69-3.83,22.54-2.66,45.2-5.03,67.39-9.56,20.24-4.13,40.64-5.68,61.04-7.29,9.1-.72,17.79-6.49,27.26-2.45-2.83,4.02-8.3,1.68-11.52,4.77-26.38,4.62-52.65,9.92-79.15,13.71-42.75,6.11-85.58,11.52-127.99,19.81-31.75,6.21-63.62,11.77-95.44,17.62Z"/>
  <path class="cls-14" d="M412.05,993.21c2.02,8.45,5.88,10.17,14.53,6.58,21.69-9,43.04-19.38,66.45-23.34,31.84-5.39,63.48-12.16,95.77-14.58,1.23-.09,2.56,1.16,3.84,1.79-40.26,10.59-80.55,21.08-120.77,31.83-18.35,4.91-36.49,10.62-54.87,15.41-5.24,1.36-15.67,5.77-7.9-7.73,1.53-2.66.81-6.62,1.13-9.98.63-.65,1.24-.67,1.84.04Z"/>
  <path class="cls-17" d="M412.05,993.21c-.61-.02-1.22-.03-1.84-.04,3.39-13.66,2.96-28.08,8.14-41.39,5.8,3.08,5.79,9.1,7.29,14.36,1.53,5.43-1.63,9.32-4.38,13.35-5.46-.03-1.18,3.16-1.61,4.81-1.11,4.17-1.7,8.82-7.61,8.91Z"/>
  <path class="cls-1" d="M915.59,819.23c-21.08,2.3-42.17,4.6-63.25,6.9-12.03,1.76-24.06,2.08-36.08-.09,16.19-3.48,32.37-6.93,48.85-9.03,12.37-1.58,24.65-3.06,37.11-2.09,4.85.38,6.87-1.99,6.71-6.62,2.96,3.2,7.44,5.47,6.66,10.94Z"/>
  <path class="cls-13" d="M757.36,837.18c-37,10.61-73.87,21.56-110.41,33.72-30.58,10.18-62.85,12.44-94.33,18.46-35.14,6.72-70.95,10.01-105.36,20.45-3.56,1.08-6.92,2.78-10.38,4.19.08-4.32,3.31-7.5,2.81-12.61-.77-7.79,7.39-8.66,12.86-9.53,54.16-8.6,108.82-14.64,161.76-29.59,37.37-10.55,75.4-17.81,113.63-23.95,9.44-1.52,19.5-4.25,29.41-1.13Z"/>
  <path class="cls-7" d="M816.26,826.03c12.03.03,24.05.06,36.08.09-13.31,5.1-27.13,1.04-40.65,2.29,1.52-.79,3.05-1.59,4.57-2.38Z"/>
  <path class="cls-23" d="M511.38,519.32c-2.66-1.62-2.18-4.28-2.25-6.76,1.39.51,2.81,1.48,4.15,1.39,1.48-.1,1.1-1.68.35-2.38-5.35-4.93-6.01-12.53-12.52-17.59-12.78-9.92-15.68-37.55-8.79-52.92,1.95-4.35,4.77-1.27,7.06-2.96,10.76-7.96,22.88-12.33,36.62-10.38,2.84.4,3.51-2.36,5.26-3.37,1.65-.95,4.19-.39,6.33-.5.1,8.31,8.66,7.88,12.8,12.07,6.16,6.24,15.03,9.58,16.88,20.05.54,3.08,5.31,8.84,10.38,6.06,4.55-2.49.95-7.89-.25-10.95-4.61-11.78,2.53-23.01.89-34.75-.43-3.05,6.39-8.12,9.76-11.36,7.14-6.87,3.13-20.26,14.97-23.31,1.22,1.03,2.04,2.59,3.97,2.95-1.25-1.27-2.98-1.62-3.97-2.95.08-2.93,1.59-4.43,4.52-4.52,11.15,1.87,19.85-4.49,29.19-8.67,2.39,3.9,3.9,7.46,9.29,9.79,12.99,5.62,24.05,34.57,19.34,51.95-1.44,5.32-2.14,9.5,4.54,11.39-13.22,12.57-25,25.6-32.9,41.59-2.53,5.13-8.64,8.79-6.88,15.79-12.98,16.8-25.95,33.58-36.9,51.84-2.77,4.62-5.87,8.8-13.51,4.36-9.4-5.47-19.94-9.1-30.5-12.49-14.04-4.51-25.77-13.37-36.52-23.4-3.76-3.35-7.53-3.36-11.29,0Z"/>
  <path class="cls-23" d="M645.96,501.37c-.6.52-1.21,1.45-2.01,1.66-1.54.39-2.92-.29-3.31-1.92-.13-.53-1.89-2.12.54-2.05,1.72.05,3.68-.26,4.77,2.31Z"/>
  <path class="cls-3" d="M421.27,979.49c-1.01-5.26,2.37-9.08,4.38-13.35,25.16-16.48,53.51-20.77,82.79-22.99,13.76-1.04,27.47-1.82,41.24-1.94,8.06-3.11,16.78,1.15,24.81-2.24,45.59-8.95,88.57-26.93,133.4-38.63,26.41-6.89,52.16-16.43,79.16-21,16.92-2.86,33.91-6,51.2-5.72,22.15.35,44.19-.61,66.09-4.15,3.45-.56,7.8-.6,7.76,3.85-.03,3.89-4.47,4.56-7.82,4.7-21.52.88-42.88,3.31-64.56,3.36-33.27.07-66.03,6.94-97.99,16.71-45.49,13.9-90.98,27.79-136.55,41.44-21.3,6.38-43.47,6.76-65.43,8.64-27.86,2.39-56.02,2.04-83.19,10.8-13.51,4.35-24.06,12.81-35.29,20.54Z"/>
  <path class="cls-2" d="M569.9,911.82c-.48,5.22-4.44,2.13-6.39,2.19-12.16.34-24.33.13-36.5.1,14.08-4.77,28.63-.89,42.89-2.28Z"/>
  <path class="cls-12" d="M906.77,844.43c-6.35-4.8-13.68-1.4-20.48-2.45,10.12-4.71,20.25-1.25,32.45-2.53-4.61,6.4-8.68,4.12-11.97,4.98Z"/>
  <path class="cls-10" d="M574.5,938.97c-7.86,5.28-16.59.91-24.81,2.24,7.91-4.67,16.58-1.1,24.81-2.24Z"/>
  <path class="cls-19" d="M613,381.68c.37,0,.75-.02,1.12,0,3.19.27,7.2-.88,7.67,4.22.14,1.48-.36,3.98-1.71,3.49-3.45-1.26-8.28-1.94-7.08-7.71h0Z"/>
</svg>