<?xml version="1.0" encoding="UTF-8"?>
<svg id="Layer_1" data-name="Layer 1" xmlns="http://www.w3.org/2000/svg" viewBox="0 0 445 558">
  <defs>
    <style>
      .cls-1 {
        fill: #f2aed8;
      }

      .cls-1, .cls-2, .cls-3, .cls-4, .cls-5, .cls-6, .cls-7, .cls-8, .cls-9, .cls-10, .cls-11, .cls-12, .cls-13, .cls-14, .cls-15, .cls-16 {
        stroke-width: 0px;
      }

      .cls-2 {
        fill: #d01d40;
      }

      .cls-3 {
        fill: #f22e3f;
      }

      .cls-4 {
        fill: #cf1e40;
      }

      .cls-5 {
        fill: #edabd4;
      }

      .cls-6 {
        fill: #f10d65;
      }

      .cls-7 {
        fill: #cf1d40;
      }

      .cls-8 {
        fill: #f22e3e;
      }

      .cls-9 {
        fill: #ea2b3d;
      }

      .cls-10 {
        fill: #ee2170;
      }

      .cls-11 {
        fill: #f1367e;
      }

      .cls-12 {
        fill: #ee0e64;
      }

      .cls-13 {
        fill: #eb1064;
      }

      .cls-14 {
        fill: #f12e3e;
      }

      .cls-15 {
        fill: #d11e3f;
      }

      .cls-16 {
        fill: #ecaad3;
      }
    </style>
  </defs>
  <path class="cls-1" d="M337.25,304.11c-5.67-30.6-21.96-55.2-43.83-76.51-10.29-10.02-21.64-18.71-34.05-26.02-1.82-1.07-5.69-1.54-3.67-5.49,3.45-2.04,6.02-4.91,7.75-8.49,1.92-3.98,4.55-7.36,7.51-10.67,9.4-10.52,14.77-22.7,14.06-37.14-.56-11.44-3.86-22.28-7.09-33.14-3.42.66-4.64,3.43-5.88,6.16-2.89,14.53-9.41,27.66-15.79,40.84-.59.88-1.19,1.75-1.75,2.65-5.26,8.71-12.56,15.89-18.19,24.32-.73,2.9-2.78,5.11-4.04,7.74-4.51,9.34-1.11,17.15,8.63,19.13,19.98,4.05,34.23,16.09,44.12,33.05,15.48,26.55,24.97,55.02,27.66,86.03,1.58,18.24.48,35.74-4.46,52.9-.75,4.3-1.79,8.55-3.26,12.71-.06.16-.13.31-.18.47.21.53.57,1.05,1.18,1.54-1.66,2.29-3.14,4.37-4.5,6.3-2.95,6.13-6.61,11.91-10.77,17.32-.69,1.67-.71,2.51-.35,2.82,1.76,1.56,13.27-8.06,21.45-16.68,10.73-11.32,17.38-22.69,21.45-30.98,1.48-9.11,3.24-22.32,3.99-38.35.68-14.75,1.55-22.21.02-30.5Z"/>
  <path class="cls-16" d="M320.51,386.63c-.91,5.17-3.8,9.45-6.3,13.9-8.07,14.35-18.71,26.89-29.65,38.91-28.8,31.62-62.18,53.58-107.98,47.86-12.54-1.57-22.7-6.53-31.88-14.65-7.93-7.01-14.17-15.51-20.4-23.87-9.01-12.1-17.2-24.7-21.95-39.41-2.62-8.11-4.56-16.36-6.32-24.65.02.1.03.2.05.3,4.12,20.93,10.65,41.49,19.74,60.79.22.46.45.9.68,1.35,4.03,5.75,8.28,11.35,12.72,16.81,5.06,6.22,10.34,12.3,16.97,16.92,16.07,11.2,34.01,14.46,53.24,12.62,6.15-.59,11.77-2.92,17.68-4.26,23.27-5.29,42.3-18.06,59.58-33.86,7.39-6.76,13.11-15.02,19.76-22.44,10.62-11.85,19.76-24.74,27.38-38.61,2.84-5.16,6.26-10.49,6.33-16.86-5.3.85-7.79,4.68-9.65,9.15Z"/>
  <path class="cls-16" d="M107.16,264.37c-1.7,9.69-6.42,17.91-9.49,27.14-.1.3-.18.61-.28.91,10.22-23.33,24.53-44.13,40.49-63.81,11.96-14.75,26.24-26.16,46.65-26.42,2.41-.03,5.12-.19,6.02-3.11.86-2.79-1.02-4.59-2.88-6.23-13.52-11.95-21.41-26.98-24.3-44.67-1.87-11.45-1.9-22.83,2.76-33.77.55-1.3,1.15-2.96,2.86-2.95,1.82.01,2.02,1.84,2.56,3.14,2.03,4.89,1.6,10.05,1.65,15.16.24,22.03,5.29,42.38,19.67,59.87,7.34,8.92,3.95,16.75-7.55,18.83-3.31.6-6.92.23-9.46,3.12-1.04,1.54-1.3,2.9-.19,3.95,17.31-7.19,40.76-8.16,54.01-8.25,14.96-.1,27.76,6.45,37.21,16.56,8.17,6.87,14.54,15.48,19.56,25.25,15.49,30.1,23.77,61.86,23.11,95.82.64,15.86.76,32.1-4.58,47.26-1.53,4.34-3.47,8.5-5.67,12.52.2.58.4,1.15.58,1.63,4.28.99,8.38-1.29,9.53-4.77.85-2.56.01-5.54-2.07-7.66-3.08-1.91-.58-3.83.11-5.61,4.65-12.08,7.2-24.63,8.19-37.48.73-9.48-.82-18.91-1.27-28.36-.29-6.11-1.09-12.1-2.41-17.98-3.78-16.87-9.72-33.05-16.39-48.97-5.04-12.01-11.97-23.19-21.18-32.05-8.59-8.26-18.5-15.91-31.36-17.33-2.15-.24-4.13-1.33-6.39-1.37-2.73-.05-4.06-2.16-3.87-4.41.48-5.5-.92-11.58,4.28-15.9,1.18-.98,1.01-2.68,1.1-4.14-1.58,1.37-3.97,3.2-7.16,4.81-3.17,1.6-6.21,3.28-12.57,3.66-5.06.3-10.23-.17-15.24.49-.69.09-1.32-1.31-1.91-2.07-.6-.86-1.24-1.68-1.96-2.44-10.22-9.66-14.28-22.25-16.93-35.51-.15-.72-.34-1.44-.61-2.14-.26-12.21-.13-24.47-3.53-36.39-1.56-3.01-2.33-6.57-5.83-8.19-6.21.62-9.28,4.77-11.25,10.09-.76,2.05-1.52,4.12-2.01,6.25-3.59,15.63-1.98,30.94,3.38,45.89,3.21,8.97,7.02,17.56,14.58,24.07,2.35,2.02,5.03,4.33,6.7,8.15-4.84.91-9.21.15-13.38,1.74-15.22,5.78-27.66,15.1-37.7,27.85-9.2,11.67-17.49,23.92-25.4,36.5-.03.43-.09.87-.17,1.32Z"/>
  <path class="cls-15" d="M199.62,187.5c-.39-.55-.77-1.11-1.16-1.66.68-4.41,3.95-7.11,6.77-10.05,3.84-3.99,7.18-8.31,10.64-14.03-13.63-.77-26.33-1.54-35.04-12.54l.04.05c-1.51-2.84.82-4.49,2.06-6.44,5.1-8.05,11.79-14.83,17.71-22.24,6.42-5.17,12.62-10.62,19.05-15.79,6.02-4.84,8.49-4.4,13.36,1.5.77.94,1.37,2.01,2.19,2.91,3.11,3.46,6.7,7.89,10.77,8.19,5,.37,4.43-6.48,6.89-9.81,2.3-3.11,3.48-6.97,5.87-10.05,1.39-1.8,2.6-4.5,5.76-2.61,5.02,3.28,8.8,7.97,13.42,11.71-1.05,2.3-3.62,3.51-4.3,6.07-4.38,3.58-9.38,6.32-14.67,7.85-6.33,1.83-5.56,4.4-2.38,8.51,2.07,2.67,4.09,5.46,5.28,8.69.6,1.62,1.04,3.47-.98,4.43-1.53.72-2.79-.27-3.81-1.39-2.82-3.08-4.45-6.94-6.8-10.33-1.73-2.51-3.15-2.62-4.86,0-5.14,7.86-10.42,15.64-16.21,23.8,7.6.8,14.27.25,21-.9,2.18-.37,5.66-3.08,6.96,1.61-.32.58-.65,1.16-.97,1.73-6.79,4.59-14.54,4.62-22.29,4.69-7.15.07-6.78.04-5.36,6.88,1.08,5.2,5.09,9.42,4.62,15.02-3.36,3.09-4.48-.37-5.77-2.21-2.95-4.18-4.04-9.23-6.16-15.62-5.25,7.24-10.48,13.01-15.9,18.6-1.58,1.63-2.54,4.38-5.69,3.4Z"/>
  <path class="cls-7" d="M191.25,88.09c15.13-11.88,17.86-12.7,37.22-11.19,2.41.19,4.88.78,7.23.47,12.32-1.63,19.87,5.04,25.95,14.47.35,2.69-1.78,3.15-3.54,3.73-20.71,6.77-41.33,6.37-61.75-1.14-2.61-.96-6.5-1.76-5.11-6.33Z"/>
  <path class="cls-6" d="M128.12,130.21c-4.85-3.28-9.71-6.27-15.99-6.18-3.43.05-4.13-1.38-2.49-3.86,6.67-10.07,6.58-20.98,4.26-32.21-.2-.95-.36-1.91-.54-2.87-.64-1.68.21-2,1.63-1.77,2.68,3.1,5.28,6.26,8.05,9.28,4.84,5.28,10.66,8.19,18.04,7.07.92-.14,1.9-.28,3.21,1.08-5.19,6.9-9.62,14.47-10.32,23.55-1.11,2.8-.51,7.3-5.85,5.9Z"/>
  <path class="cls-16" d="M330.33,371.74c.15-2.18.04-4.41.49-6.52,3.9-18.32,6.06-36.8,5.34-55.55-.23-6.07-1.35-12.2-3.57-17.74-3.59-8.98-6.93-18.08-11.43-26.72-3.53-6.76-8.22-12.64-12.89-18.45-5-6.21-10.21-12.32-16.01-17.92-10.18-9.82-21.37-18.21-33.5-25.42-2.08-1.24-4.09-2.62-6.05-4.05-1.12-.82-1.35-2.04-.51-3.19,1.06-1.44,2.29-1.7,3.5-.1,2.68,4,7.08,5.89,10.93,8.18,23.03,13.73,40.92,32.78,55.25,54.92,9.76,15.07,16.39,31.91,18.39,50.1.31,2.85.04,5.8-.21,8.69-1.4,16.1-.95,32.41-5.5,48.15-.87,1.98-1.4,4.11-2.63,5.92-.62.36-1.14.23-1.58-.31Z"/>
  <path class="cls-12" d="M329.59,155.32c-1.96,3.67-3.96,4.76-5.67,6.04-9.02,6.73-13.99,15.29-12.92,26.89.15,1.61,1.42,4.61-1.42,4.73-2.14.09-2.15-2.77-2.4-4.66-.12-.96-.15-1.94-.28-2.9-1.68-12.08-5.13-15.39-17.1-16.34-1.1-2.64,1.27-3.46,2.65-4.47,7.99-5.81,12.94-13.6,15.98-22.9,1.02-3.11,1.12-6.16,1.28-9.31.04-.88.05-2.02,1.44-2.04,1.3-.02,1.75,1.03,1.67,1.92-.5,6.05,2.74,10.65,5.7,15.41,2.46,3.95,5.02,7.72,11.08,7.62Z"/>
  <path class="cls-9" d="M191.25,88.09c1,3.76,4.58,4.15,7.36,5.2,8.45,3.18,17.25,4.44,26.31,4.73,11.78.39,23.22-.91,34.41-4.58.98-.32,1.73-.81,2.32-1.6,1.29.73,2.31,1.71,2.87,3.11-3.88.86-4.95,4.38-6.53,7.23-2.69,4.86-4.98,9.95-7.55,14.88-2.56,4.91-2.96,4.81-7.36,1.35-4.78-3.75-9.31-7.59-12.83-12.7-2.65-3.84-3.53-3.79-7.61-.74-4.84,3.61-9.48,7.5-13.99,11.52-2.21,1.97-4.46,3.72-7.17,4.88-.6.55-1.2.54-1.79-.02-1.26-8.1-5.32-15.08-8.89-22.26-1.37-2.76-3.86-5.2-2.64-8.75.62-1.32,1.77-1.9,3.09-2.24Z"/>
  <path class="cls-4" d="M188.16,90.33c3.84,7.67,7.63,15.38,11.55,23.01,1.39,2.7,2.34,5.26.27,8.01-.49.47-1.07.68-1.74.66-1.31-.13-2.61-.34-3.92-.48-7.55-1.57-13.02-6.32-17.99-11.82-1.31-2.4-2.61-4.79-3.92-7.19,5.8-3.35,9.78-9.05,15.75-12.18Z"/>
  <path class="cls-13" d="M289.59,93.57c6.65-5.23,11.88-10.83,14.96-18.65,3.83,3.1,1.84,7.1,3.83,9.98,1.76,2.54,4.25,4.72,5.28,8.35-6.46.81-10.38,4.59-12.07,11.34-2.31-6.01-5.26-10.32-12-11.03Z"/>
  <path class="cls-10" d="M128.12,130.21c3.08-.85,4.45-3.4,5.85-5.9-.46,6.37,2.21,11.84,4.95,17.3.56,1.1,1.15,2.29-.56,2.92-1.18.43-1.93-.46-2.3-1.3-2.1-4.68-4.66-9.06-7.95-13.02Z"/>
  <path class="cls-11" d="M115,83.33c-.54.59-1.09,1.18-1.63,1.77-.53-.76-1.05-1.53-1.6-2.29-.86-1.19-1.86-2.53.17-3.4,1.64-.7,1.81.97,2.29,1.95.31.63.52,1.31.77,1.97Z"/>
  <path class="cls-16" d="M330.16,377.49c-.03-1.27.48-2.23,1.63-2.82.07,1.29-.2,2.39-1.63,2.82Z"/>
  <path class="cls-8" d="M257.15,155c-2.27-2.51-4.74-.22-6.72.24-7.94,1.85-15.9,1.04-25.03,1.34,7.61-11.09,14.7-21.42,21.94-31.96,6.23,4.49,7.24,12.4,13.31,17.24.67-3.92-1.89-5.77-3.15-8.16-2.04-3.83-6.96-7.08-6.27-11.07.74-4.3,7.02-2.67,10.49-4.84,3.6-2.25,7.32-4.87,11.91-5.06-2.37,15.31-9.12,28.91-16.48,42.28Z"/>
  <path class="cls-3" d="M232.16,184.24c-1.29-6.39-5.18-11.88-6.34-18.35-.34-1.87-1.39-3.62-1.1-6.5,10.55.56,21.1-.22,31.46-2.67-5.23,8.45-11.6,16.03-18.03,23.56-2.72.92-3.43,4.13-5.98,5.25-.33-.29-.44-.57-.33-.86.11-.29.22-.43.33-.43Z"/>
  <path class="cls-1" d="M321.46,386.35c-7.51,6.34-15.02,12.68-22.53,19.01-4.81,8.6-10.98,16.47-17.84,23.53-1.25,1.29-2.58,2.59-3.96,3.88-5.88,5.74-12.5,10.71-19.65,15.05-20.36,12.38-42.99,18.2-66.49,19.78-13.61.92-26.44-3.3-37.44-11.91-18.42-14.4-29-34-35.05-55.9-4.98-18.05-7.81-36.81-8.43-55.46-.79-23.75,3.9-46.6,16.09-67.85,9.49-16.54,18.93-32.99,31.43-47.05,2.2-3.58,5.27-6.6,8.99-9.12,3.14-2.88,6.45-5.63,10-8.19,4.63-2.56,10.06-.95,14.88-3.06,4.57-2,6.93-4.97,7.12-9.95.16-4.14-1.01-7.58-3.87-10.63-6.42-6.84-10.81-14.79-13.78-23.75-4.27-12.84-6.59-25.89-5.75-39.39.34-5.56-1.36-10.59-3.2-15.59-1.21-3.27-3.59-3.6-5.19-.71-1.99,3.58-4.05,7.11-4.91,11.31-2.69,13.18-1.29,25.95,2.06,38.86,3.77,14.52,12.4,25.54,23.06,35.37,1.3,1.19,2.94,2.11,2.37,4.06-.62,2.14-2.68,1.65-4.33,1.75-4.12.27-8.42-.9-12.34.64-14.3,5.59-26.97,13.67-36.36,26.03-8.36,11.01-16.66,22.05-24.05,33.78-2.63,4.17-5.18,8.38-7.61,12.64-2.14,6.04-4.93,11.8-6.99,18-3.17,9.53-4.48,19.93-5.32,29.89-1.8,21.2-.37,42.76,3.73,63.61,2.86,14.52,6.9,28.85,12.14,42.72.69,1.27,1.38,2.55,2.14,3.8,7.23,11.87,15.54,22.89,24.33,33.51,7.77,9.39,17,17.2,28.76,21.81,6.81,2.67,13.99,1.22,20.77,3.37,4.58,1.45,9.26,1.64,14.27.45,3.99-.95,7.93-2.29,11.96-2.97,25.73-4.37,46.15-18.43,64.92-35.43,11.22-10.16,19.79-22.69,29.35-34.29,6.76-8.2,12.54-17.33,16.83-27.22.64-1.48,2.08-2.99-.08-4.43Z"/>
  <path class="cls-5" d="M281.09,428.9c-10.28,10.56-25.07,21.89-40.31,25.58-.97.41-1.96.78-3.01,1.06-6.09,1.65-12.22,3.23-18.18,5.27-10.97,3.76-22.21,5.22-33.74,4.77-12.07-.47-23.02-4.33-32.23-12.04-18.22-15.24-28.52-35.34-34.24-58.05-2.67-10.61-3.59-21.51-5.4-32.27-3.77-22.4-2.44-44.46,4.61-66.22,3.05-9.4,7.86-17.81,12.7-26.22,7.39-12.84,14.59-25.77,24.28-37.17,2.63-7.02,8.3-12.19,15.56-15.96.37-.41.77-.77,1.27-1.03.3-.02.6-.02.9-.03,1.09-.51,2.21-1,3.35-1.45-1.59-.89-.28-1.97-.08-2.98-1.24.07-2.33.47-3.37,1.21-8.78,6.27-16.2,13.99-22.94,22.29-9.21,11.35-16.03,24.29-23.56,36.75-6.18,10.23-11.16,20.99-14.05,32.63-1.87,7.53-2.54,15.25-3.59,22.91-.9,6.53-2.43,13.17-1.02,19.52,2.64,11.85,3.32,23.94,5.27,35.87,3.34,20.51,9.98,39.36,22.38,56.15,6.4,8.66,13.4,16.61,23.05,21.7,12.69,6.7,25.83,9.5,40.52,7.54,14.6-1.95,28.25-6.66,42.13-10.82,10.86-3.25,19.98-9.79,28.82-16.68,10.01-7.8,18.41-16.85,23.93-28.14-3.88,5.64-8.29,10.92-13.05,15.82Z"/>
  <path class="cls-8" d="M180.84,149.24c10.82,7.86,22.87,11.4,36.24,10.44.35-.02.74.52,1.53,1.12-4.87,9.79-13.02,17.02-20.14,25.05-11.16-9.66-15.52-22.59-17.63-36.61Z"/>
  <path class="cls-8" d="M232.16,184.24c.03.43.03.86,0,1.3-.96,3.47-2.8,4.93-6.8,4.57-5.74-.51-11.57-.48-17.21,1.49-5.87,2.06-5.92,1.94-8.54-4.1,7.27-7.96,15.32-15.23,21.11-24.93,3.28,2.57,3.26,5.83,4.19,8.66,1.57,4.79,2.93,9.73,7.24,13.01Z"/>
  <path class="cls-14" d="M176.32,109.7c4.34,1.15,7.08,4.78,10.75,7,2.7,1.64,5.23,3.36,8.54,3.22.77.91,2.16.55,2.96,1.41.47,0,.94,0,1.41,0,.5,0,1,.01,1.5.02-2.65,6.51-8.98,10.14-12.47,16.03-2.44,4.12-5.4,7.93-8.13,11.88-1.99-2.52-1.62-5.56-1.55-8.4.25-10.52-.97-20.88-3-31.17Z"/>
  <path class="cls-8" d="M220.52,156.52c.31-7.04-4.02-12.31-7.16-17.94-2.59-4.64-5.09-9.28-7.35-14.62,6.77-3.06,12.99.98,19.32.48,6.2-.49,12.47-.27,18.61-2.17.29.49.57.99.86,1.48-5.52,8.09-10.76,16.38-16.69,24.16-2.27,2.98-3.73,6.95-7.61,8.58l.02.03Z"/>
  <path class="cls-8" d="M220.5,156.49c-11.21.25-22.51,1.24-32.25-6.35-2.11-1.65-3.2-2.98-1.43-5.25,4.32-5.51,7.83-11.66,12.88-16.59,3.12-3.05,3.61-2.94,5.71.97,4.48,8.32,8.85,16.7,13.32,25.02.44.82,1.19,1.48,1.79,2.22,0,0-.02-.03-.02-.03Z"/>
  <path class="cls-7" d="M257.99,96.27c-3.96,7.69-7.46,14.49-11.44,22.21-6.05-5.5-11.46-10.73-17.08-17.38,10.17-.15,19.01-1.99,28.52-4.83Z"/>
  <path class="cls-2" d="M194.82,95.52c8.78,3.04,17.66,3.51,26.8,5.76-4.13,6-10.08,8.76-14.44,13.23-2.15,2.2-3.76.14-5.02-1.96-3.12-5.19-3.91-11.41-7.34-17.03Z"/>
  <path class="cls-9" d="M198.57,121.34c-1.21,0-2.3-.25-2.96-1.42,1.21,0,2.3.26,2.96,1.42Z"/>
</svg>