<?xml version="1.0" encoding="UTF-8"?>
<svg id="Layer_1" data-name="Layer 1" xmlns="http://www.w3.org/2000/svg" viewBox="0 0 1043 558">
  <defs>
    <style>
      .cls-1 {
        fill: #cf1d40;
        stroke-width: 0px;
      }
    </style>
  </defs>
  <g>
    <path class="cls-1" d="M102.78,178.68c-15.09,1.96-33.25,5.03-55.05,9.22h-.56c-4.75,0-1.68-15.09.56-16.77,34.65-5.03,62.87-7.82,85.22-7.82,47.78,0,69.02,12.02,69.02,38.84s-25.15,62.87-57,92.77c24.59,1.96,34.93,11.46,34.93,29.9s-31.01,67.34-65.94,67.34c-14.53,0-50.58-23.19-11.18-213.48ZM131,175.89c-34.65,185.25-17.32,201.18-8.1,201.18,17.32,0,29.9-20.4,29.9-46.38,0-15.37-11.45-24.31-30.18-24.87-3.35-3.63-5.31-8.94-1.68-13.13,31.01-31.02,49.73-73.49,49.73-93.61,0-14.81-7.54-23.19-34.65-23.19h-5.03Z"/>
    <path class="cls-1" d="M396.45,265.02c0,16.77-11.74,39.96-34.37,46.38-6.71,40.24-31.85,60.07-46.1,60.07-9.78,0-31.57-5.87-31.57-46.38v-4.47c-3.91,2.51-9.5,4.75-17.32,5.87-10.06,29.9-31.29,44.71-43.59,44.71-9.78,0-32.41-5.59-32.41-46.1,0-45.27,19.84-59.8,31.85-59.52,4.75-8.94,12.02-13.97,19.84-13.97,15.37,0,29.9,12.02,29.9,38.84,0,8.94-1.12,17.32-2.51,24.87,5.59-1.12,10.62-3.07,15.09-6.43,4.75-38,25.99-53.09,36.04-51.13,4.75-4.47,10.34-6.15,13.97-6.15,15.37,0,28.5,12.02,28.5,38.84,0,3.07-.28,6.15-.28,8.94,11.74-3.63,22.08-15.37,25.71-38.28,4.47-1.4,7.27.56,7.27,3.91ZM249.19,326.5c-19-2.79-29.62-15.65-31.85-28.78-6.71,31.29,2.79,60.91,13.13,60.91,8.94,0,15.37-14.81,18.72-32.13ZM251.15,314.2c1.12-7.82,1.68-15.93,1.68-22.63,0-36.32-19.56-34.09-19.56-8.38-.84,16.21,6.99,26.82,17.88,31.01ZM342.8,312.52c-15.65-2.51-29.9-13.13-30.46-26.82-10.9,36.04-.28,73.21,10.62,73.21,11.46,0,17.32-23.75,19.84-46.38ZM343.92,297.44v-5.87c0-24.59-12.01-31.57-13.97-25.15-3.35,10.34,3.07,24.59,13.97,31.01Z"/>
    <path class="cls-1" d="M461.83,356.39c5.87,0,12.01-6.71,17.88-21.51,4.19-3.07,11.46-.84,9.78,3.91-7.26,21.8-20.68,32.41-34.09,32.41s-27.66-11.74-35.77-32.69c-2.24-5.87-2.24-8.66.56-10.62,20.96-15.37,28.5-39.4,19.84-55.05-28.78,38-41.35,86.62-44.99,93.33-2.79,6.71-11.18,6.71-17.32.56l19.28-189.45c6.71-4.47,30.46-11.46,28.22,1.96l-20.4,134.96c1.4-3.63,25.71-64.27,42.19-64.27,29.62,0,21.23,52.81-6.99,76.28,5.03,16.49,12.85,30.18,21.79,30.18Z"/>
    <path class="cls-1" d="M531.97,314.2c0-93.33,45.55-159.55,94.44-159.55,52.25,0,15.37,109.25-10.34,109.25-10.34,0-11.74-6.43-10.06-9.22,15.09-25.43,37.44-86.9,13.13-86.9-35.77,0-57.84,84.94-57.84,135.24,0,74.05,43.87,118.47,88.85,26.27,6.71-2.51,12.57-1.96,10.34,3.35-41.91,98.36-128.53,78.52-128.53-18.44Z"/>
    <path class="cls-1" d="M745.44,334.88c4.19-3.07,11.18-1.12,9.78,3.91-5.03,17.32-18.16,32.41-34.65,32.41-14.25,0-21.51-12.85-22.91-31.02-5.87,20.68-14.25,31.02-24.59,31.02-32.41,0-33.81-54.49-16.77-112.61,26.27-6.71,25.43-.56,22.91,6.99-15.65,49.74-13.13,87.46-1.96,87.46,7.27,0,17.05-20.4,22.35-78.8,13.97-10.34,29.62-10.9,27.1-.56-11.18,45.82-12.02,84.1-1.68,84.1,5.87,0,12.57-3.91,20.4-22.91Z"/>
    <path class="cls-1" d="M797.7,291.29c-24.03,49.18-38.84,71.81-44.15,152.56-10.06,5.87-20.12,8.38-19.56.84.28-8.66,19-180.5,19.84-189.72,5.87-4.19,30.18-16.77,26.82,4.19l-12.02,75.16c24.31-67.9,37.44-91.09,60.08-70.69-26.27,86.06-11.74,94.16-3.91,94.16,5.87,0,15.37-3.91,23.19-22.91,4.19-3.07,11.18-1.12,9.78,3.91-5.03,17.32-22.35,32.41-38.84,32.41s-34.09-7.82-21.23-79.91Z"/>
    <path class="cls-1" d="M898.29,334.88c-7.82,19-14.53,22.63-20.4,22.63-13.41,0-11.18-27.38,2.79-86.9,1.68-7.26-3.07-13.41-24.31-4.47-17.88,78.52-1.96,105.06,15.65,105.06,16.49-.28,31.02-15.09,36.05-32.41,1.4-5.03-5.59-6.99-9.78-3.91Z"/>
    <path class="cls-1" d="M991.33,181.48c0,45.27-6.98,94.44-19.56,131.61-.28,30.74,1.4,44.71,5.87,44.71,5.87,0,12.57-3.91,20.4-22.91,4.19-3.07,11.18-1.12,9.78,3.91-5.03,17.32-19.56,32.41-36.04,32.41-8.38,0-13.41-8.38-15.93-23.19-9.22,14.53-20.12,22.91-32.13,23.19-16.21,0-27.38-23.47-27.38-51.41,0-31.85,15.93-66.22,38-66.22,10.9,0,17.05,3.07,22.63,6.71,1.96-24.59,5.03-53.09,8.38-83.27,21.24-15.65,25.99-10.34,25.99,4.47ZM956.13,271.17c-4.47-1.68-8.66-2.51-13.41-2.51-21.79,0-27.66,88.02-12.01,88.02,10.9,0,18.44-20.68,23.47-53.09.28-9.78,1.12-20.68,1.96-32.41Z"/>
  </g>
  <path class="cls-1" d="M891.5,196.46c-3.71-1.38-8.41,1.16-12.69,6.22-3.27-5.86-7.45-9.28-11.39-8.62-6.7,1.14-10.16,13.71-7.73,28.1,1.89,11.18,6.79,20.15,12.02,23.06.44.32.91.57,1.41.76,6.37,2.36,15.65-6.81,20.73-20.48,5.07-13.68,4.02-26.68-2.36-29.04Z"/>
</svg>