<?xml version="1.0" encoding="UTF-8"?>
<svg id="Layer_1" data-name="Layer 1" xmlns="http://www.w3.org/2000/svg" viewBox="0 0 580.5 509">
  <defs>
    <style>
      .cls-1 {
        fill: #cf1d40;
      }

      .cls-1, .cls-2, .cls-3 {
        stroke-width: 0px;
      }

      .cls-2 {
        fill: #ff0092;
      }

      .cls-3 {
        fill: #f294b6;
      }
    </style>
  </defs>
  <path class="cls-1" d="M546.98,390.19c1.05.79.98,1.86-.13,2.56-.54.34-1.18.55-1.8.7-12.2,2.71-24.41,5.41-36.62,8.08-1.32.29-2.67.44-4.36.72.3.91.47,1.52.68,2.11,3.87,10.62,7.73,21.24,11.63,31.84.32.89.97,1.68,1.29,2.57.19.54.26,1.37-.04,1.75-.31.38-1.12.52-1.7.49-.53-.03-1.06-.37-1.53-.66-10.98-6.49-21.9-13.08-32.94-19.46-4.5-2.61-7.62-6.14-9.97-10.78-4.43-8.79-9.29-17.36-13.93-26.05-1.13-2.12-2.5-4.17-2.46-6.87-45.71-24.41-91.39-48.82-137.33-73.36-.39,1.26-.69,2.16-.95,3.07-7.58,26.12-15.15,52.24-22.74,78.36-.93,3.18-1.92,6.34-2.9,9.5-.19.61-.37,1.25-.71,1.79-.62.97-2,1.19-2.41.26-.89-2.04-2.62-1.76-4.48-2.16.14.69.17,1.22.37,1.67,3.71,8.15,7.27,16.37,11.21,24.41,3.04,6.18,4.09,12.45,2.83,19.24-1.83,9.94-6.66,17.85-14.96,23.7-3.9,2.75-7.72,5.59-12.33,7.1-6.41,2.1-12.99,3.34-19.73,3.22-6.04-.11-11.01-2.99-15.17-7.17-1.92-1.93-3.54-4.19-5.03-6.49-1.93-3-1.62-5.98.33-9.06,3.71-5.89,9.23-7.44,15.67-7.01,2.69.18,4.1,1.65,4.28,4.34.24,3.35-1.05,6.01-3.81,7.88-1.75,1.19-2.95.52-3.12-1.76.57.27,1.1.75,1.58.71.57-.05,1.2-.44,1.63-.88,1.7-1.74,1.42-3.09-.78-4.11-1.86-.85-3.71-1.37-5.84-.79-1.63.44-2.7,1.29-3.5,2.69-1.68,2.95-1.73,8.19,2.3,11.04,5.09,3.6,10.55,5.91,16.9,5.56,5.09-.27,10.15-.76,14.9-2.79,1.4-.6,2.74-1.37,3.99-2.24,2.25-1.58,4.45-3.23,6.58-4.96,4.12-3.35,6.91-7.4,7.94-12.84,1.2-6.3.6-12.4-1-18.43-1.7-6.41-4.28-12.5-7.54-18.31-2.77-4.92-5.21-10.03-7.68-15.11-.75-1.54-1.79-2.26-3.43-2.59-18.65-3.83-37.29-7.71-55.91-11.61-23.37-4.89-46.74-9.76-70.1-14.75-13.56-2.89-27.09-5.97-40.63-8.98-.96-.21-1.91-.47-2.85-.76l.64-2.24c20.94,4.22,168.63,33.98,168.91,34.04-.82-1.92-1.47-3.73-2.35-5.43-5.08-9.81-8.24-20.35-11.18-30.9-4.02-14.44-5.83-29.26-6.31-44.24-.07-2.02-.19-4.03-.19-6.05-.02-7.96,1.1-15.77,2.99-23.48.55-2.26,1.06-4.53,1.59-6.82-9.15-5.24-18.16-10.41-27.47-15.73-.53.23-1.19.53-1.87.79s-1.35.55-2.04.75c-13.65,4.06-26.99,2.98-39.94-2.71-5.08-2.22-8.87-6.16-11.64-10.95-2.38-4.11-1.79-8.5,1.15-12.19,3.17-3.98,7.27-4.74,11.96-3.85.82.16,1.64.35,2.5.53,0-.39.03-.49,0-.55-.3-.49-.59-.96-.91-1.42-3.19-4.55-3.42-9.45-1.67-14.55.88-2.56,2.46-4.56,5.04-5.55,4.74-1.83,9.48-2.08,13.99.63,1.92,1.17,3.79,2.5,5.41,4.04,2.28,2.16,4.34,4.55,6.42,6.91,5.09,5.78,7.86,12.74,9.99,19.98,1.32,4.48,2.34,9.06,3.42,13.6.23.96.67,1.5,1.57,1.93,7.84,3.8,15.65,7.67,23.47,11.51.72.35,1.44.67,2.39,1.12.38-.96.74-1.75,1.01-2.56,4.53-13.48,11.19-25.73,21-36.15.39-.41.74-.85,1.11-1.29,10.59-12.57,23.45-22.07,38.53-28.61,4.07-1.77,8.17-3.49,12.12-5.49,5.65-2.85,11.63-4.81,17.62-6.73,1.94-.62,2.82-1.58,3.36-3.52,3.85-14,7.82-27.97,11.75-41.96.1-.36.06-.75.09-1.23-.66-.14-1.2-.29-1.74-.37-9.48-1.51-18.96-2.98-28.43-4.52-18.31-2.99-36.61-6.01-54.92-9.03-12.26-2.03-24.51-4.05-36.76-6.13-8.45-1.43-16.89-2.97-25.35-4.4l.22-1.32c2.19.37,4.38.74,6.57,1.09,11.63,1.83,23.28,3.54,34.93,5.3,3.83.58,7.66,1.16,11.48,1.75,14.58,2.27,29.14,4.69,43.72,7.03,13.77,2.21,27.55,4.42,41.33,6.64,2.12.34,4.24.67,6.82,1.08-.09-.23-.16-.45-.25-.67l.83-.31c.32.87.95,1.33,2.02,1.54,2.65.53,2.95,1.03,2.32,3.66-.6,2.51-1.32,5-2.07,7.46-3.48,11.35-6.98,22.68-10.45,34.02-.19.61-.31,1.24-.53,2.15.78-.11,1.38-.15,1.96-.29,6.84-1.6,13.71-3.08,20.74-3.44,3.14-.16,6.3.04,9.44-.08,5.56-.22,11.16-.28,16.67-.92,4.8-.56,9.45-2.1,13.85-4.16,3.73-1.75,6.59-4.61,9.22-7.71.36-.43.69-.91.93-1.41,5.6-11.52,6.62-23.3,2.06-35.42-1.52-4.05-3.98-7.36-7.39-9.98-.9-.68-1.87-1.29-2.7-2.04-3.28-2.96-7.29-4.01-11.51-4.56-3.03-.39-4.85,1.41-4.32,4.43.44,2.5,1.38,4.93,3.17,6.7,1.24,1.24,3.11,1.85,4.72,2.75,2.24-2.53.83-4.69-.24-7.03,1.29.25,1.61,1.05,1.7,1.78.18,1.67.41,3.38.21,5.03-.38,3.09-2.97,5.15-6.03,4.55-7.48-1.47-13.46-5.94-12.09-15.09.33-2.21.97-4.41,1.76-6.5.74-1.97,2.29-3.2,4.45-3.72,7.66-1.85,14.68-.89,21,4.14,4.4,3.52,8.62,7.25,10.71,12.58,4.24,10.87,6.95,21.99,4.51,33.82-.78,3.79-2.19,7.31-4.34,10.44-5.31,7.69-12.42,12.79-21.81,14.38-4.62.78-9.23,1.59-13.94,1.45-.88-.03-1.77.12-2.64.27-7.07,1.28-14.13,2.55-21.19,3.88-1.9.36-3.76.93-5.62,1.44-2.72.74-5.45,1.46-8.14,2.3-2.31.72-4.56,1.62-6.84,2.41-1.35.47-1.99,1.42-2.39,2.78-2.85,9.93-5.84,19.82-8.66,29.75-6.76,23.75-13.47,47.52-20.19,71.29-.2.69-.35,1.4-.58,2.34.72.44,1.43.93,2.19,1.33,28.53,15.28,57.06,30.57,85.6,45.84,16.52,8.83,33.06,17.61,49.55,26.48,1.81.98,3.48,1.18,5.52.83,6.92-1.16,13.88-2.08,20.83-3.07,3.65-.52,7.3-.99,10.94-1.52l.35,2.44c-.46.08-.92.2-1.39.34-.46.14-.95.18-1.42.26-8.89,1.48-17.78,2.96-27.19,4.53,2.79,1.83,5.07,3.69,8.24,2.16.49-.23,1.09-.27,1.65-.37,8.02-1.34,16.04-2.66,24.06-4,.72-.12,1.41-.36,2.14-.55-.44-.56-.9-1.02-1.38-1.38l.66-2.23c6.42,1.91,12.34,5.01,18.45,7.67,8.88,3.86,17.69,7.86,26.53,11.82.81.36,1.63.74,2.33,1.27ZM541.82,391.32c-3.82-1.75-7.16-3.31-10.55-4.78-.55-.24-1.26-.24-1.88-.16-4.07.51-8.14,1.11-12.21,1.63-8.07,1.02-16.13,2.02-24.64,3.08,3.02,1.56,5.78,3.03,8.57,4.41,1.77.87,3.51,1.7,3.81,3.88,12.28-2.67,24.33-5.31,36.89-8.05ZM526.13,384.5c-1-.57-1.44-.87-1.92-1.09-2.14-.95-4.34-1.77-6.4-2.87-2.28-1.22-4.56-1.21-7-.75-9.18,1.75-18.38,3.4-27.57,5.1-.32.06-.6.3-1.27.63,2.53,1.35,4.74,2.49,6.91,3.71,1.13.64,2.1.89,3.34.13.79-.49,1.84-.61,2.79-.74,7.27-.99,14.54-1.93,21.81-2.9,2.91-.38,5.83-.77,9.32-1.23ZM513.27,435.56c-.32-1.09-.55-1.93-.83-2.74-2.96-8.77-6.02-17.53-8.88-26.35-.83-2.55-1.63-4.82-4.57-5.52-.37-.09-.7-.38-1.06-.58-3.09-1.72-6.19-3.44-9.29-5.16-.12.09-.23.19-.35.29.37.69.72,1.39,1.11,2.07,2.9,5.12,5.86,10.21,8.72,15.34,3.46,6.2,6.86,12.43,10.23,18.66,1.04,1.91,2.44,3.28,4.9,3.99ZM510.17,377.83c.02-.2.03-.39.04-.59-2.94-.91-5.18-3.11-9.01-2.28-8.34,1.81-16.84,2.84-25.28,4.19-1.2.2-2.39.44-3.59.66,1.87,1.51,3.74,2.57,5.69,3.51.51.25,1.24.18,1.84.07,8.08-1.47,16.17-2.98,24.25-4.47,2.02-.37,4.05-.73,6.07-1.09ZM505.61,431.49c.12-.12.23-.25.35-.37-.13-.29-.23-.6-.39-.88-2.22-3.93-4.51-7.82-6.67-11.8-4.29-7.95-8.49-15.95-12.79-23.89-.35-.66-1.02-1.24-1.68-1.62-2.17-1.24-4.4-2.39-6.61-3.55-.36-.19-.78-.23-1.29-.37.09.39.09.57.15.7,6.78,11.93,13.55,23.86,20.36,35.77.39.68.89,1.41,1.53,1.82,2.3,1.47,4.68,2.79,7.03,4.18ZM494.39,424.93c.12-.14.23-.29.35-.43-.38-.69-.77-1.39-1.17-2.08-6.6-11.46-13.2-22.91-19.81-34.36-.2-.35-.35-.79-.66-1-2.24-1.49-4.66-2.66-7.52-4.08.37.85.46,1.16.62,1.43,6.73,11.66,13.46,23.32,20.21,34.97.36.62.78,1.3,1.36,1.66,2.16,1.36,4.4,2.61,6.61,3.89ZM483.96,418.65c-.42-.85-.6-1.29-.83-1.7-6.38-11.3-12.79-22.6-19.13-33.92-1.12-2-2.99-2.64-5.3-3.53.36.82.5,1.25.72,1.64,4.88,8.72,9.78,17.45,14.67,26.16,1.02,1.83,2.28,3.58,3.01,5.51,1.16,3.1,3.4,4.72,6.87,5.84ZM346.96,194.08c-2.18,1.24-4.25,2.29-6.18,3.55-11.97,7.85-23.14,16.7-33.37,26.74-8.31,8.17-15.1,17.4-19.83,28.1-3.22,7.3-6.42,14.62-9.63,21.93-.19.43-.26.9-.43,1.58,12.87,6.94,25.69,13.87,38.66,20.86,1.93-3.72,30.67-99.61,30.78-102.76ZM288.49,391.41c8.8-29.7,17.54-59.2,26.39-89.09-13.25-7.01-26.34-13.94-39.64-20.97-.41,1.1-.75,1.9-1.01,2.73-3.28,10.63-4.8,21.54-5.3,32.63-.46,10.26.12,20.46,1.5,30.64,1.16,8.55,1.98,17.15,4.81,25.38,1.75,5.11,3.46,10.23,5.27,15.32.26.76.87,1.74,1.53,1.95,2.04.64,4.19.96,6.43,1.43Z"/>
  <path class="cls-2" d="M499.67,369.44l-.66,2.23c-1.43-1.07-3.02-1.28-4.71-.99l-.35-2.44h0l1.05-.15c1.23-.18,2.41-.5,3.25.79.12.17.4.26.63.32.26.08.53.14.78.23Z"/>
  <path class="cls-3" d="M363.11,137.22c-.03.48,0,.87-.09,1.23-3.93,13.99-7.9,27.96-11.75,41.96-.54,1.93-1.41,2.9-3.36,3.52-5.99,1.92-11.97,3.88-17.62,6.73-3.95,2-8.05,3.72-12.12,5.49-15.08,6.54-27.94,16.04-38.53,28.61-.37.43-.72.88-1.11,1.29-9.8,10.42-16.47,22.67-21,36.15-.27.82-.63,1.6-1.01,2.56-.95-.45-1.67-.78-2.39-1.12-7.82-3.84-15.63-7.71-23.47-11.51-.89-.43-1.34-.97-1.57-1.93-1.08-4.55-2.1-9.12-3.42-13.6-2.13-7.24-4.91-14.21-9.99-19.98-2.08-2.36-4.14-4.74-6.42-6.91-1.62-1.54-3.49-2.87-5.41-4.04-4.51-2.71-9.24-2.46-13.99-.63-2.58,1-4.17,2.99-5.04,5.55-1.75,5.1-1.52,10,1.67,14.55.32.46.61.94.91,1.42.03.05,0,.15,0,.55-.87-.18-1.69-.37-2.5-.53-4.69-.89-8.79-.13-11.96,3.85-2.94,3.69-3.53,8.08-1.15,12.19,2.78,4.79,6.57,8.72,11.64,10.95,12.95,5.69,26.3,6.77,39.94,2.71.7-.2,1.37-.49,2.04-.75s1.34-.56,1.87-.79c9.31,5.32,18.32,10.49,27.47,15.73-.53,2.29-1.04,4.57-1.59,6.82-1.89,7.71-3.01,15.52-2.99,23.48,0,2.02.12,4.03.19,6.05.49,14.98,2.29,29.8,6.31,44.24,2.94,10.55,6.1,21.09,11.18,30.9.88,1.7,1.53,3.51,2.35,5.43-.28-.06-147.97-29.82-168.91-34.04-1.58-.32-2.44-.49-2.46-.49.28-1.08.51-2.17.84-3.23,8.02-25.73,16.03-51.47,24.07-77.19,14.84-47.46,29.74-94.89,44.51-142.35,2.31-7.39,4.12-14.93,6.17-22.4.1-.38.25-.75.43-1.28,2.74.46,5.43.95,8.12,1.36,9.41,1.41,18.85,2.71,28.24,4.23,1.57.26,3.13.51,4.7.78,8.46,1.42,16.9,2.96,25.35,4.4,12.25,2.08,24.5,4.11,36.76,6.13,18.31,3.02,36.6,6.04,54.92,9.03,9.47,1.54,18.95,3.02,28.43,4.52.54.09,1.07.23,1.74.37Z"/>
  <path class="cls-1" d="M361.45,132.95c.03.14.07.27.11.4l-.83.31c-.89-2.43-1.69-4.57-2.58-6.99-5.75-.52-11.36-1.13-16.98-1.52-5.87-.39-11.79-.29-17.63-.89-9.7-1.01-19.39-2.23-29.03-3.68-9.1-1.35-18.16-2.82-27.33-3.71-3.08-.3-6.17-.71-9.23-1.17-3.07-.48-6.13-1.01-9.17-1.58-6.26-1.17-12.41-2.9-18.67-4.06-4.27-.8-8.64-1.11-12.97-1.57-8.42-.9-16.85-1.81-25.27-2.62-3.04-.3-6.09-.37-9.14-.55,4.57,1.09,9.17,1.84,13.75,2.64,6.56,1.13,13.1,2.36,19.66,3.48l-.22,1.32c-1.57-.27-3.13-.53-4.7-.78-9.39-1.52-18.83-2.81-28.24-4.23-2.69-.41-5.38-.9-8.12-1.36-.18.53-.32.89-.43,1.28-2.04,7.47-3.86,15.01-6.17,22.4-14.77,47.46-29.67,94.9-44.51,142.35-8.04,25.73-16.06,51.46-24.07,77.19-.33,1.06-.56,2.15-.84,3.23.02,0,.88.18,2.46.49l-.64,2.24c-.06-.02-.13-.03-.19-.05-1.11-.34-2.03-.32-3.19.26-1.06.52-2.56.6-3.75.32-3.99-.97-7.97-2.01-11.85-3.36-3.34-1.16-5.97-3.45-8.14-6.27-.73-.95-1.55-1.82-2.4-2.67-.76-.74-.75-1.51-.45-2.43,7.44-23.12,14.88-46.23,22.26-69.37,18.26-57.28,36.47-114.57,54.75-171.84,1.42-4.45,3.28-8.75,4.83-13.15.44-1.26,1.18-2.13,2.33-2.62,1.18-.51,2.39-1.03,3.64-1.26,5.24-.95,10.48-1.92,15.75-2.65,3.26-.45,6.58-.66,9.88-.67,7.92,0,15.82-.27,23.7-.98,2.01-.18,4.04-.14,6.06-.18,12.99-.22,25.98-.62,38.98-.58,10.16.03,20.32.53,30.48.98,10.08.44,20.15,1.04,30.21,1.67,8.21.51,16.43.98,24.61,1.86,3.55.39,7.04,1.64,10.49,2.75,2.41.78,2.82,1.7,2.72,4.22,0,.24.02.5-.06.72-1.56,4.04.43,7.38,2.21,10.69,2.15,4,3.96,8.14,5.09,12.53.45,1.78.82,3.65.77,5.48-.08,3.25.5,6.38,1.21,9.51.33,1.48.56,2.99.88,4.48ZM357.62,124.05c.47-3.52.32-7.57-.89-10.51-.37-.92-.76-1.83-1.15-2.75-1.58-3.73-3.25-7.43-4.92-11.13-.41-.9-.83-1.81-1.24-2.72-.83-1.84-2.23-3.09-4.38-3.42-2.15-.33-4.25-1.05-6.41-1.22-7.24-.55-14.48-1.11-21.74-1.36-13.06-.47-26.13-.69-39.19-1.07-4.84-.14-9.69-.24-14.51-.69-11.73-1.1-23.49-1.98-35.27-2.1-10.81-.12-21.63.09-32.44.23-12.51.16-25.02.43-37.53.66-.77,0-1.53.12-2.53.2.14,1.01.24,1.75.32,2.36,2.39,0,4.48-.04,6.57,0,2.58.07,5.15.22,7.73.32,3.87.14,7.74.28,11.61.38,3.87.09,7.74.25,11.61.2,5.81-.07,11.63-.51,17.43-.37,8.14.19,16.29.57,24.41,1.24,8.12.66,16.19,1.79,24.29,2.68,6.81.75,13.62,1.87,20.45,2.05,8.54.23,17.11-.14,25.65-.6,7.02-.37,14.01-.81,21.04-.46,6.21.31,12.43.39,18.64.61.92.03,1.82.27,2.73.41-.58.47-1.11.53-1.64.52-3.31-.05-6.62-.15-9.92-.19-8.88-.1-17.75-.26-26.63-.22-6.05.03-12.1.37-18.14.52-6.37.14-12.75.41-19.11-.23-9.07-.9-18.12-2.04-27.2-2.85-11.17-1.01-22.35-1.86-33.54-2.63-3.13-.22-6.29,0-9.43.08-7.66.22-15.32.8-22.98.15-2.56-.22-5.15-.26-7.73-.32-4.51-.13-9.03-.22-13.55-.32-.6-.02-1.21.06-1.83.1.42,2.98.58,3.05,3.08,2.8,1.84-.18,3.71-.24,5.55-.13,5.4.33,10.79.71,16.18,1.2,5.21.47,10.41,1.32,15.64,1.62,4.44.25,8.9.4,13.36.4v.63c-6.89,0-13.77-.11-20.66-1.01-4.46-.58-9.02-.31-13.54-.48-4.75-.17-9.51-.42-14.26-.6-.84-.03-1.69.06-2.53.09-.06.18-.11.36-.17.55.95.67,1.83,1.49,2.86,1.98,3.37,1.58,6.81,2.94,10.66,2.81,1.68-.06,3.37.22,5.06.35,2.9.21,5.78.49,8.68.63,8.06.41,16.12.64,24.13,1.74,5.67.78,11.39,1.24,17.11,1.65l-.05.79c-5.52-.35-11.04-.7-16.54-1.25-9.32-.95-18.61-2-28-1.86-1.52.03-3.05-.26-4.57-.42-1.81-.19-3.62-.37-5.43-.57,1.38,1.4,2.75,2.31,4.8,2.3,6.29-.03,12.6,0,18.87.41,7.49.49,14.94,1.41,22.41,2.1,7.56.7,15.07,1.6,22.45,3.51,7.11,1.83,14.34,3.14,21.67,3.79,5.3.46,10.61.92,15.89,1.61,8.71,1.15,17.4,2.55,26.12,3.71,10.79,1.44,21.62,2.48,32.56,2.31,5.21-.09,10.45.6,15.67,1.01,1.48.12,2.94.51,4.41.78Z"/>
  <path class="cls-1" d="M354.23,111.37c.09.19.15.41.2.69-1.41,0-2.67.1-3.91-.02-11.62-1.08-23.2-.84-34.8.35-6.82.71-13.69.67-20.54-.07-7.38-.81-14.76-1.5-22.16-2.16-5.78-.52-11.59-.89-17.38-1.35-6.43-.52-12.85-1.11-19.29-1.58-3.01-.22-6.02-.42-9.04-.6l.05-.79c5.31.38,10.64.47,15.96.79,8.77.54,17.56,1.08,26.32,1.75,7.96.61,15.92,1.3,23.86,2.15,6.76.72,13.54,1.03,20.3.4,9.89-.92,19.8-1.52,29.73-1.27,3.06.09,6.1.53,9.15.85.55.06,1.2.07,1.55.86Z"/>
  <path class="cls-1" d="M349.5,100.19c-.4.72-.54,1.34-.89,1.53-.98.53-2.03,1.04-3.11,1.25-6.54,1.29-13.14,1.23-19.77.76-6.92-.49-13.83-1.06-20.77-1.16-5.88-.09-11.76.47-17.65.66-16.93.58-33.69-1.06-50.4-3.51-4.86-.71-9.76-1.48-14.66-1.57-4.07-.07-8.14-.03-12.22-.03v-.63c1.68,0,3.35-.03,5.03-.07,9.65-.26,19.2.71,28.73,1.81,8.98,1.03,17.94,2.26,26.99,2.48,7.33.18,14.71.49,22.01-.06,7.59-.57,15.15-.93,22.73-.61,5.08.2,10.14.81,15.21.95,5.89.16,11.8.26,17.48-1.78.26-.09.59-.02,1.29-.02Z"/>
  <path class="cls-3" d="M340.78,197.63c1.93-1.26,4-2.31,6.18-3.55-.11,3.15-28.85,99.04-30.78,102.76-12.97-6.99-25.79-13.92-38.66-20.86.18-.67.25-1.15.43-1.58,3.2-7.31,6.41-14.63,9.63-21.93,4.73-10.7,11.52-19.93,19.83-28.1,10.22-10.03,21.4-18.89,33.37-26.74Z"/>
  <path class="cls-3" d="M314.88,302.31c-8.85,29.89-17.59,59.4-26.39,89.09-2.24-.47-4.39-.79-6.43-1.43-.66-.21-1.27-1.19-1.53-1.95-1.81-5.09-3.53-10.21-5.27-15.32-2.83-8.23-3.65-16.82-4.81-25.38-1.38-10.18-1.96-20.38-1.5-30.64.49-11.08,2.02-21.99,5.3-32.63.26-.83.6-1.63,1.01-2.73,13.3,7.04,26.38,13.96,39.64,20.97Z"/>
</svg>