<?xml version="1.0" encoding="UTF-8"?>
<svg id="Layer_1" data-name="Layer 1" xmlns="http://www.w3.org/2000/svg" viewBox="0 0 445 558">
  <defs>
    <style>
      .cls-1 {
        fill: #e893a3;
      }

      .cls-1, .cls-2, .cls-3, .cls-4, .cls-5, .cls-6, .cls-7, .cls-8, .cls-9, .cls-10, .cls-11, .cls-12, .cls-13, .cls-14, .cls-15, .cls-16, .cls-17, .cls-18, .cls-19, .cls-20, .cls-21, .cls-22, .cls-23, .cls-24, .cls-25, .cls-26, .cls-27, .cls-28 {
        stroke-width: 0px;
      }

      .cls-2 {
        fill: #e72b3c;
      }

      .cls-3 {
        fill: #f971a2;
      }

      .cls-4 {
        fill: #e72a3c;
      }

      .cls-5 {
        fill: #ed2d5b;
      }

      .cls-6 {
        fill: #ca1d3e;
      }

      .cls-7 {
        fill: #f771a2;
      }

      .cls-8 {
        fill: #f76f9f;
      }

      .cls-9 {
        fill: #f5cdd4;
      }

      .cls-10 {
        fill: #e58d9e;
      }

      .cls-11 {
        fill: #f14570;
      }

      .cls-12 {
        fill: #c91c3e;
      }

      .cls-13 {
        fill: #d01f41;
      }

      .cls-14 {
        fill: #e92b3c;
      }

      .cls-15 {
        fill: #f972a3;
      }

      .cls-16 {
        fill: #eaa0af;
      }

      .cls-17 {
        fill: #cf1d40;
      }

      .cls-18 {
        fill: #e62a3c;
      }

      .cls-19 {
        fill: #ff74a6;
      }

      .cls-20 {
        fill: #fb72a3;
      }

      .cls-21 {
        fill: #f1c2cb;
      }

      .cls-22 {
        fill: #ce1f41;
      }

      .cls-23 {
        fill: #e82b3d;
      }

      .cls-24 {
        fill: #cf1f41;
      }

      .cls-25 {
        fill: #f6dadf;
      }

      .cls-26 {
        fill: #cb1d3f;
      }

      .cls-27 {
        fill: #f22e5d;
      }

      .cls-28 {
        fill: #ef2f5d;
      }
    </style>
  </defs>
  <path class="cls-17" d="M226.43,443.81c-1.27-1.13-2.11-2.51-2.34-4.22.52-1.8,1.61-3.03,3.47-3.49.46.54.92,1.07,1.44,1.67,1.34-.75.78-2.1.74-3.18-.47-12.56-.94-25.12-1.55-37.67-.18-3.59-.31-7.14.15-10.73.53-4.11.25-8.25.02-12.37.31-8.05,2.56-16.01,1.16-24.15-.21-1.23.19-2.51,1.29-3.39.49.89.98,1.78,1.62,2.96,1.82-4.11,2.15-8.36,3.18-12.4,3.15-12.37,7.62-24.26,12.03-36.21,4.92-13.31,10.35-26.4,15.45-39.63,1.95-5.05,2.81-10.38,3.95-15.64,2.32-10.69,4.73-21.37,7.1-32.05,1.59-.52-1.62-6.05,3.27-3.13.56,10.31-2,20.33-2.87,30.51-1.38,16.14-7.11,31.04-13.15,45.85-.61,1.49-1.05,3.05-1.57,4.57-.45.82-.04,1.74-.29,2.59-.4,1.32-.02,2.7-.29,4.04-5.39,5.53-8.01,12.62-10.98,19.5-1.2,2.78-2.59,5.61-1.07,8.75-2.21,8.66-4.82,17.21-6.04,26.1-1.19,8.67-2.53,17.33-3.76,25.99-.87,6.11.56,12.11,1.02,18.16.48,9.15,1.33,18.32-.64,27.4.05,1.77-.74,3.37-1.54,6.12.77-1.62.72-2.31.98-2.91.27-.65.51-1.33.59-2.06.07-3.61.9-7.02,2.53-10.24,3.16-9.21,6.64-18.23,12.92-25.9,3.57-4.36,7.8-7.98,12.25-11.34,9.08-6.85,17.57-14.31,24.97-22.95,1.86-2.18,3.4-4.64,5.12-6.94.76-1.01,1.6-2.16,3.08-1.38,1.66.88,1.41,2.25.68,3.69-6.18,12.25-9.72,25.51-14.42,38.32-3.68,10.01-8.13,19.59-14.49,28.2-1.17,1.58-2.47,3.13-3.97,4.39-6.2,5.22-11.58,11.29-17.82,16.48-7.83,6.52-11.02,14.78-9.61,25.28,1.94,14.44,4.22,28.78,7.96,42.86.46,1.74.92,3.48,1.47,5.19.3.93.44,1.8-.53,2.33-.98.53-1.85-.07-2.3-.83-1.75-2.93-3.84-5.76-4.96-8.93-3.99-11.22-6.38-22.84-7.88-34.64-.55-4.28-1.21-8.57-1.35-12.87-.11-3.19-1.86-5.54-3.06-8.19.41-.68,1.89-.65,1.49-1.74-.54-1.49-2.02-1.67-3.42-1.77Z"/>
  <path class="cls-27" d="M277.4,210.17c-1.42-.68-2.36-.59-2.32,1.33.02.73-.31,1.37-.95,1.8-.48-1.53.91-3.42-1.57-4.58-7.91-3.72-10.47-10.92-11.34-18.9-.82-7.44.69-14.63,2.81-21.75,2.56-8.6,4.67-17.34,9.46-25.1,3.81-6.16,8.44-11.63,13.74-16.53,2.25-2.07,4.84-3.72,7.63-5.03,4.57-2.14,9.08-4.04,12.81,1.48.47.7,1.4,1.09,2.12,1.62,9.01,4.49,15.19,11.28,17.66,21.25.75,3.02,1.12,6.02.94,9.1-.3,5.18-3.3,7.46-8.28,6.39-8.99-1.93-18.77-16.69-16.99-25.65.95-4.78,5.14-6.66,9.39-4.14,5.05,3,7.18,7.94,8.14,13.37.39,2.2.4,5.2-2.99,5.25-2.93.05-2.97-2.34-3.02-4.69-.08-3.76-1.86-6.79-4.66-9.19-1.9.8-1.42,2.19-1.19,3.35,1.28,6.55,5.25,11.35,10.31,15.38.84.67,1.85,1.28,2.98.82,1.23-.5,1.3-1.71,1.13-2.76-1.54-9.22-3.76-18.09-12.97-22.99-1.13-.6-2.12-1.36-3.13-2.12-4.34-3.28-5.96-2.62-6.63,2.92-.74,6.09.25,11.77,3.94,16.95,5.54,7.77,11.51,15.3,14.8,24.44,1.42,3.95,2.66,7.92.28,11.97-3.15,4.45-6.9,8.27-11.58,11.15-6.27,3.86-12.49,7.81-18.73,11.71-3.61,2.25-7.5,3.48-11.8,3.13Z"/>
  <path class="cls-26" d="M230.8,346.28c-.05,1.96-.31,3.93.54,5.81.07.16.14.33.18.51.91,4.4-.92,16.68-3.16,21.23,0,0,.06-.12.06-.12-.81-1.4.14-3.13-.85-4.49-.29-3.04-2.71-5-3.94-7.57-2.64-5.53-4.5-11.36-6.83-17-.41-1-.82-2-1.19-3.01-2.73-7.55-6.2-8.53-14.26-8.32-4.64.12-9.25,1.28-13.87,1.96-10.55,1.55-19.09-1.9-25.47-10.45-2.02-2.71-3.28-6-6.26-8-.95-.64-1.2-1.79-.7-2.9.53-1.21,1.73-1.31,2.76-1.16,10.39,1.45,20.9.14,31.27,1.41,5.73.7,11.23,2.52,15.74,6.46.54.47,1.04.94,2.2.58-1.88-7.95-3.56-15.99-4.99-24.08-1.16-6.55-2.75-13.09-2.68-19.73.06-5.94-3.37-8.9-7.51-12.04-6.78-5.13-14.31-5.1-22.08-4.02-5.46.76-10.76.53-15.86-1.74.44-5.29,7.3-9.87,11.87-7.9,3.26,1.42,2.69,3.18.8,4.68,1.94-2.97,5.07-3.18,8.68-2.02,4.81,1.54,9.6,3.1,13.91,5.79,1.54.97,3.05,1.81,4.91,1.86,1.59.43,2.44,1.88,4.33,3.47-.13-23.19,2.59-45.63-1.38-67.99-2.4-3.39-2.25-4.08,1.03-4.64,3.64,5.15,4.74,11.25,5.66,17.2,1.61,10.48,2.31,21.06,2.09,31.71-.27,12.96-.33,25.94.96,38.86,1.22,12.19,3.95,24.15,6.08,36.19,1.03,5.81,3.12,11.44,6.15,16.62.98.55,1.38,1.48,1.65,2.42.11-.32-.16-.51-.15-.78-.38-1.35.34-2.77-.36-4.06-.13-4.52-1.27-8.89-2.25-13.26-2.41-10.75-3.03-21.65-2.94-32.61.17-21.39,1.15-42.72,4.6-63.9,1.82-11.17,2.82-22.46,3.79-33.75.7-8.22,2.07-16.39,3.47-24.53.52-3.04.22-6.11.89-9.1.69-.78.03-2.83,2.14-2.29.31.02.59.1.86.25.43.24.78.56,1.02.99,1.47,2.27,1.42,4.91,1.18,7.33-1.06,10.75-2.71,21.44-3.53,32.2-1.55,20.44-6.06,40.55-6.53,61.13-.13,5.73-.21,11.51-.77,17.25-.63,6.44-1.94,12.97,2.42,18.76-2.89,3.96-2.42,8.37-1.83,12.85,1.72,13.03,4.92,25.76,7.47,38.62.35,1.77.86,3.49.74,5.31Z"/>
  <path class="cls-27" d="M223.08,150.49c-8.39-2.18-15.5-6.42-21-13.19-5.92-7.29-10.69-15.35-14.84-23.72-4.46-9-5.49-18.73-5.49-28.74,0-11.4,2.4-22.19,7.37-32.28,7.09-14.38,20.95-23.13,38.26-21.33,8.33.87,13.48,5.06,17.45,11.71.74,1.23,1.43,2.49,2.15,3.74,1.29,1.71.8,3.24-.48,4.68-9.44,5.89-18.27,12.67-27.48,18.91-16.46,11.15-22.86,27.82-21.23,47.19.78,9.26,6.92,16.34,13.77,22.45,2.29,2.54,5.44,3.87,8.14,5.82,1.63,1.18,3.92,2,3.37,4.76Z"/>
  <path class="cls-12" d="M227.56,436.1c-.73,1.59-1.88,2.76-3.47,3.49-2.12-3.07-3.99-6.34-7.56-8.1-1.44-.71-2.65-1.81-4.45-1.57-3.34.43-5.62-2.74-9.19-2.44-4.62.39-9.31.19-13.97-.71-11.61-2.26-20.52-8.2-26.37-18.56-2.81-4.97-4.74-10.42-9.31-14.38-3.03-2.62-6.07-5.05-9.71-6.68-2.06-.92-4.11-1.95-3.57-4.65.57-2.81,3.09-2.57,5.2-2.74,1.43-.12,2.94-.39,4.31-.08,7.19,1.62,14.65,1.67,21.76,3.77,1.49.65,2.17,1.95,2.26,3.42.13,2.06,1.61,4.52-.36,6.12-1.87,1.52-3.76-.41-5.39-1.27-5.96-3.13-12.44-4.67-18.84-6.47,7.75,2.45,15.99,3.78,22.6,9.19-1.86,2.61-4.27,1.36-6.26,2.04,7.6-1.76,14.07.64,19.91,5.33,1.13.91,2.54,1.9,2.31,3.42-.32,2.12-2.29,1.18-3.54,1.24-4.33.22-7.96,1.96-11.14,4.84,3.64-3.36,8.06-4.16,12.8-4.98,5.4-.93,9.03,1.41,12.69,4.3,3.23,2.55,2.94,3.81-.78,5.47-2.46,1.1-5.11,1.76-7.5,3.19.69-.21,1.28-.53,1.85-.85,6.82-3.81,13.13-4.68,18.1,2.98.75,1.16,2.04,1.87,2.82,2.17-6.22-5.28-14.08-10.08-12.72-20.71.11-.89-.49-2.3,1.32-2.23,5.14,4.24,8.99,9.57,12.67,15.03,4.57,6.77,10.18,12.85,13.53,20.42Z"/>
  <path class="cls-5" d="M198.01,192.83c-3.47.85-.93,3.04-1.03,4.64-1.6.29-2.25,1.67-3.21,2.72-5.88,6.42-12.98,9.83-21.9,10.02-9.83.21-18.52-2.29-27.22-7.01-7.32-3.97-13.54-8.73-18.87-14.93-6.58-7.65-5.68-18.42,2.08-24.74,2.62-.13,2.68,2.12,3.1,3.67,2.45,9.14,6.53,17.52,11.55,25.48.32.39.62.8.91,1.21.15.19.29.4.44.59,1.19,1.13,1.53,3.73,4.16,2.4.45-.22.92-.33,1.41-.36,4.56,2.9,8.17,7.64,14.47,7.14,6.71-.52,13.64.77,19.69-3.76,5.67-4.24,8.17-15.18,4.25-21.73-2.68-4.48-4.84-9.21-7.42-13.73-2.83-4.96-5.19-5.3-9.27-.89-4.5,4.87-10.22,8.51-14.12,14.01-.68.96-1.82,1.83-3.26,1.02-.29-.39-.46-.84-.51-1.33.03-.7.27-1.35.56-1.98.17-.39.38-.77.6-1.14.3-.54.62-1.07.92-1.6.28-.52.62-1,.97-1.47.33-.46.65-.92.92-1.42.16-.34.36-.66.56-.98.21-.31.46-.6.71-.88.13-.14.26-.27.39-.41.26-.28.53-.54.81-.8.13-.14.27-.27.41-.41.26-.29.54-.56.82-.84.14-.15.28-.29.41-.44.27-.32.55-.62.84-.93.14-.17.28-.33.41-.5.26-.38.53-.74.79-1.12.12-.21.25-.4.38-.61.25-.46.53-.88.82-1.3,5.97-5.26,5.42-12.59,6.17-19.48.29-2.67-.18-5.4.36-8.09.46-1.12.85-2.32,2.48-1.92.56.69,1.23,1.32,1.66,2.09,4.71,8.5,10.07,16.61,14.95,24.98,6.21,10.63,8.21,22.53,7.77,34.81Z"/>
  <path class="cls-15" d="M158.37,168.96c-.12.32-.18.65-.18.99-.31.42-.62.83-.99,1.2-.39.7-.77,1.39-1.16,2.09-.33.4-.69.78-1.01,1.18l-.02.04c-.71.53-.48,1.55-1.11,2.12h0c-2.13,6.76-3.17,13.81-5.31,20.57-.1.31-.13.63-.12.96-.74.35-1.59.21-1.82-.47-2.37-7.16-6.51-13.69-7.54-21.32.19-.54.57-.9,1.12-1.07,4.28,3.05,4.22,3.02,6.4-2.06,2.99-6.99,6.77-13.5,12.04-19.05,2.81-2.96,4.76-6.23,4.65-10.53-.16-6.05-5.12-9.76-10.99-8.07-8.37,2.4-15.73,13.5-16.5,24.49-.61,8.73,1.93,16.7,5.5,24.44,1.21,2.62,2.18,5.3,3.06,8.03.4,1.23.75,2.58-1.32,2.62l-.11-.12c-.24-.38-.55-.7-.93-.96-5.64-8-9.78-16.68-12.23-26.19-.38-1.47-.33-3.3-1.92-4.3-.36-7.06.05-13.95,3.6-20.35,5.86-10.57,15.02-16.05,26.79-17.34,4.06-.44,8.26-.67,11.87,2.02,1.37,1.58,1.65,3.57,2.09,5.5.8,6.6-.89,13.05-1.12,19.59-.08,2.22-1.24,4.02-2.79,5.59-1.24,1.26-2.41,2.59-3.61,3.89-.35.39-.69.8-1.1,1.14l.02-.02c-.34.39-.71.75-1.1,1.11l.02-.02c-.35.38-.72.74-1.09,1.1h.01c-.36.36-.72.72-1.09,1.08h.01c-.36.36-.72.71-1.07,1.09h0c-.35.32-.66.66-.94,1.04Z"/>
  <path class="cls-6" d="M247.18,325.97c-1.79-.16-2.75-1.25-2.21-2.89.67-2.02.77-4.17,1.76-6.14,1.82-3.65,3.94-7.19,4.69-11.3.35-1.91,2.06-2.85,3.22-4.18,1.4-1.61,3.29-2.79,4.22-4.82-.61-.9.05-1.63.31-2.41.42-.77.96-1.44,1.67-1.96,7.06-8.68,15.61-15.35,26.12-19.41,7.43-2.87,14.31-6.73,20.65-11.56,1.29-.98,2.68-1.81,4.04-2.71,1.27-.84,2.68-1.43,3.91-.16,1.21,1.25.59,2.68-.17,3.97-.55.93-1.03,1.92-1.71,2.74-4.4,5.26-7.86,11.19-11.85,16.74-3.65,5.09-7.26,10.3-12.68,13.81-3.42.1-6.44-1.4-9.53-2.5-2.25-.8-1.45-2.4.03-3.07,4.91-2.22,8.86-6.26,14.29-7.46.71-.16,2.05-.04,2.06-.24.23-7.54,8.55-9.02,10.45-14.05,1-1.36-.22-1.38.45-1.1.13.05.08.22-.13.5-3.35,4.51-7.55,8.2-11.58,12.05-1.02.97-2.15,2.46-3.63,1.55-1.75-1.08.01-2.75.04-4.16-1.69,7.39-6.39,11.37-13.7,12.53-.5-.18-.88-.49-1.13-.96-.3-2.42,1.47-4.12,1.97-6.38-1.61,9.94-11.91,11.2-16.57,16.89,2.52-4.04,6.81-2.55,11.07-1.6-1.06-.79-2.39-.13-3.38-.77-1.51-.98-2.01-2-.18-3.25,3.58-2.43,14.69,0,17.31,3.82-5.84,5.28-12.88,8.22-20.56,7.67-7.8-.56-11.79,2.91-14.89,9.39-1.79,3.74-2.3,7.88-4.35,11.46Z"/>
  <path class="cls-20" d="M319.51,184.18c.88-8.8-3.04-16.09-7.52-23.11-3.09-4.84-6.68-9.37-9.79-14.2-4.31-6.68-4.66-13.87-1.66-21.11,1.6-3.86,2.05-3.75,5.09-.94,1.45,1.34,2.91,2.76,4.62,3.71,9.2,5.13,12.74,13.72,14.4,23.41.33,1.94,1.27,4.67-1.11,5.86-2.13,1.06-4.17-.57-5.81-1.97-5.31-4.54-9.48-9.83-10.71-16.97-.15-.88-.49-1.71-.23-2.63.66-2.33,3.14-3.23,4.47-1.28,2.46,3.61,6.78,6.72,4.31,12.22-.53,1.18.71,1.96,1.8,2.18,1.32.26,1.89-.56,2.12-1.81.93-5.09-3.79-13.84-8.54-15.73-2.99-1.19-6.04.33-6.5,3.48-.28,1.94-.52,4.1.05,5.9,2.46,7.75,6.53,14.39,14.14,18.22,1.5.76,3.06,1.12,4.7.85,2.14-.36,3.69-1.36,3.74-3.83.27-11.26-3.22-20.8-12.44-27.85-1.66-1.27-4.05-1.73-4.84-4.06,5.13,1.75,9.56,4.81,14.14,7.58,1.04.63,2.04,1.6,2.64,2.65,5.21,9.22,7.84,18.94,4.52,29.41-2.1,6.64-3.91,13.53-9.44,18.45-.66.58-1.42,1.05-2.14,1.57Z"/>
  <path class="cls-24" d="M224.42,289.49c-2.88-1.65-3.98-4.1-3.45-7.39.61-3.76-1.12-7.74,1.04-11.37v13.98c.23.07.46.14.69.22,2.25-5.36,5.17-10.55,6.62-16.12,3.05-11.68,6.35-23.26,10.53-34.57,2.9-7.83,3.54-15.73,2.59-23.89-.26-2.21-1.35-5.27,2.16-5.53,3.11-.23,3.44,2.88,3.55,5.12.52,10.82,4.24,21.22,4.77,31.92.67,13.43-4.56,24.6-16.51,31.9-5.79.61-6.79,5.49-8.67,9.63-.95,2.1-1.41,4.5-3.31,6.1Z"/>
  <path class="cls-7" d="M223.08,150.49c-1.6-3.11-4.94-4.01-7.56-5.79-1.65-1.12-3.36-2.06-4.48-3.77,2.36-1.7,4.08.23,5.89,1.15,11.29,5.74,19.89,3.86,26.46-6.78,5.86-9.48,12.65-18.48,16.61-29.06,4.5-12.03,5.74-24.43,4.6-37.21-.8-8.95-6.64-13.06-14.02-16.03-1.64-.66-3.63-.44-4.88-2.03.94-1.28,1.32-2.72,1.28-4.28,15.3,1.26,22.22,9.13,23.71,23.63.87,8.46-.27,16.82-1.89,25.2-2.28,11.79-7.76,21.94-14.42,31.65-1.52,2.22-2.97,4.53-4.11,6.96-4.2,8.96-10.6,15.23-20.5,17.44-.71.76-1.42,1.53-2.14,2.29.03-3.22-2.51-2.96-4.56-3.37Z"/>
  <path class="cls-4" d="M201.36,400.65c.05,2.29,0,4.58.18,6.86.26,3.1,1.16,5.93,3.63,8.13,2.81,2.5,5.18,5.47,8.44,7.5,1.41.88,2.73,2.14,4.07,4.94-4.12-2.64-7.33-4.55-9.57-7.47-3.57-4.65-7.62-5.06-12.72-2.79-3.04,1.36-5.84,3.41-9.43,4.05,1.58-2.56,2.53-3.25,6.45-4.8,2.44-.97,4.89-1.93,7.64-3.01-9.99-10.69-19.88-7.85-29.87-.55,4.08-5.07,6.2-7.59,16.73-7.83-2.81-4.36-7.25-6.27-11.24-7.85-4.13-1.64-9.02-.51-13.98-.27,2.39-3.37,5.79-1.94,9.02-2.75-7.95-5.66-16.94-6.94-25.35-9.8,4.05-.85,4.01-.72,13.53,2.24,4.64,1.44,8.92,3.66,14,5.83-.58-3.62-.11-6.76-1.66-9.65.87-.17,1.6.07,2.21.7,1.12,1.26,1.54,2.85,1.89,4.42,1.32,5.84,5.34,8.97,10.68,11.04.62-2.02-.38-3.72-.27-5.48.06-.89.01-1.93,1.11-2.2.99-.24,1.69.47,2.16,1.25,1.12,1.88,1.6,4.03,2.07,6.11.9,3.96,2.95,6.89,6.84,8.64.78-2.92-1.18-6.38,1.6-8.89.81.31,1.54.72,1.84,1.61Z"/>
  <path class="cls-12" d="M199.52,399.03c-.19,3.74-.59,7.49.75,11.81-3.8-2.07-7.71-3.32-9.3-7.04-1.51-3.52-2.14-7.42-3.53-11.07-.81,3.24,1.06,6.26.68,9.79-8.36-3.71-15.07-8.2-14.68-18.38,7.34.98,13.3,5.01,19.18,9.02,2.46,1.68,5.1,3.34,6.91,5.86Z"/>
  <path class="cls-22" d="M145.04,253.51c-2.88-1.75-5.54-3.91-8.99-4.6-1.57-.32-2.34-1.62-2.33-3.2,0-1.41.99-2.29,2.16-2.83,4.61-2.11,9.5-1.76,14.24-.97,12.65,2.12,24.41,6.66,35.14,13.75.02,1.98-1.48,1.98-2.61,1.59-11.68-4.06-23.56-7.47-34.71-10.73-.56-.47-.57-.34-.55-.33,2.3.92,3.02,2.47,1.7,4.65-.9,1.49-1.68,3.33-4.04,2.68Z"/>
  <path class="cls-2" d="M286.98,297.46c-5.44-3.61-11.36-3.78-18.24-2.92,2.52,3.74,6.92.48,9.04,3.84-3.87,1.22-7.2-.98-10.76-.72-3.84.27-5.03,4.27-8.38,5.02,2.73-3.75,5.49-7.6,9.72-9.52,4.06-1.85,6.55-4.79,8.48-8.56.81-1.57,1.92-2.99,3.26-5.03.56,4.15-2.8,6.34-2.84,9.55h0c8.68-1.6,12.7-7.86,15.21-15.75,1.55,2.82-1.01,4.78-.61,7.54,6.71-4.88,11.96-10.94,17.18-17.07-1.41,7.71-8.52,11.05-12.58,16.71.16,1.78,2.49.3,2.85,2.59-7.92-.04-13.49,5.37-20.83,8.7,4.08,1.34,7.52,2.2,10.67,3.85-.4.99-1.3,1.37-2.17,1.78Z"/>
  <path class="cls-23" d="M145.04,253.51c2.13-1.19,4.02-3.32,3.51-5.37-.59-2.4-3.93-.45-5.72-1.76.54-1.97,2.13-1.82,3.43-1.42,6.45,1.99,13.18,2.92,19.48,5.58,5.55,2.35,11.42,3.96,17.16,5.88.94.32,1.74.02,2.36-.77,3.18,1.76,6.02,3.98,8.76,6.35-1.97,1.43-3.72.6-5.43-.55-4.38-2.95-9.36-4.42-14.34-5.97-2.83-.88-5.12-1.1-7.26,1.4-.89,1.04-2.38,1.56-4.15,2.67.31-3.18,3.86-3.04,4.28-5.31-3.79-2.58-4.78-2.75-7.79-.24-1.99,1.65-5.06,2.36-5.47,5.59-.53.11-.92-.04-1.11-.57-1.76-4.23,2.79-5.13,4.13-7.83-2.49-1.23-4.38-.08-6.26,1.4-1.34,1.05-2.4,2.86-4.59,2.02-.63-.09-.91-.51-1-1.1Z"/>
  <path class="cls-13" d="M146.04,254.61c.98-.75,2.15-1.33,2.89-2.27,3.09-3.87,6.61-4.12,10.81-1.45-2.33,2.73-6.51,3.91-6.98,8.12-2.83-.57-4.88-2.32-6.72-4.41Z"/>
  <path class="cls-21" d="M237.19,425.46c1.3-9.71,1.23-19.47,1.21-29.24,2,4.26.51,8.81,1.07,13.19.22,1.72-.68,3.61.84,5.11-.73,3.61-1.46,7.23-2.19,10.84-.28.39-.59.43-.93.08Z"/>
  <path class="cls-12" d="M226.43,443.81c3.55-1.19,4.74-.9,5.22,1.5.23,1.11.71,2.62-.68,3.3-1.14.57-1.54-1.24-2.62-1.29,0,0,.06.03.06.03.01-.6-.52-.88-.79-1.3-.3-.12-.38-.32-.27-.62-.05-.67-.45-1.14-.9-1.58l-.02-.04Z"/>
  <path class="cls-11" d="M172.21,133.36c-.79-1.8-2.52-3.24-2.09-5.5,1.44.72,2.64,1.72,3.5,3.1-1.04.47-1.29,1.39-1.41,2.4Z"/>
  <path class="cls-25" d="M220.12,336.59c-.4-1.05-.79-2.1-1.19-3.16.93-.55.91-1.54,1.14-2.42,1.28,1.21.94,2.87,1.22,4.37.28,1.06-.14,1.44-1.18,1.21Z"/>
  <path class="cls-9" d="M260.83,292.27c-.32.74-.63,1.47-.95,2.21-1.01.23-1.55,0-1.17-1.17.13-.85.29-1.69,1.09-2.21.34.39.69.78,1.03,1.17Z"/>
  <path class="cls-17" d="M227.56,369.21c1.5,1.27.9,2.93.85,4.49-1.07-1.35-.89-2.93-.85-4.49Z"/>
  <path class="cls-7" d="M231.65,152.82c-.55-.11-.94-.4-1.02-.99.71-.05.95.38,1.02.99Z"/>
  <path class="cls-17" d="M226.45,443.84c.58.37.86.9.9,1.58-.61-.35-.88-.89-.9-1.58Z"/>
  <path class="cls-17" d="M227.61,446.04c.52.28.8.71.79,1.3-.61-.22-.83-.68-.79-1.3Z"/>
  <path class="cls-18" d="M272.93,389.75c2.74.28,5.02-1.69,7.97-1.31-6.85,3.5-14.39,6.1-18.01,14.03,3.99.56,7.68-2.06,11.65-.82-5.62,2.07-12.21,1.95-16.63,6.28-3.06,3-5.93,6.49-8.49,11.27,5.26-2.58,10.11-3.34,14.97-4.15-4.78,3.23-11.06,3.25-15.42,7.03-4.25,3.69-6.76,8.62-7.47,14.39-.57-2.13,3.9-25.86,5.13-28.63,1.11,4.47-1.33,8.19-1.66,12.15,1.57.84,2.04-.54,2.53-1.25,1.63-2.37,3.21-4.75,4.95-7.05,1.53-2.01,1.85-4.56,2.14-7.11.62-5.4,1.53-10.76,2.73-16.09,1.6,5.57-1.23,11-.33,17.25,4.21-3.87,7.02-8.16,10.08-12.2.92-1.22.19-2.74-.19-4.15-1.02-3.79-.43-7.36,1.99-10.64.39,3.71-1.08,7.42.33,11.86,10.25-11.88,18.7-24.41,25.77-37.95-2.53,7.49-5.99,14.43-10.57,20.85-3.85,5.39-8.19,10.45-11.46,16.25h0Z"/>
  <path class="cls-10" d="M237.19,425.46c.31-.04.62-.07.93-.08-.14,1.7-.38,3.37-1.51,5.06-.74-1.95-.6-3.52.58-4.97Z"/>
  <path class="cls-1" d="M258.72,293.31c.39.39.78.78,1.17,1.17-.35.72-.69,1.44-1.04,2.16-1.96-1.03-1.03-2.18-.13-3.33Z"/>
  <path class="cls-2" d="M210.43,331.68c-2.58.12-3.96-1.62-5.66-2.88-2.5-1.86-4.98-2.56-7.84-.25-1.53,1.23-3.42,2.46-6.37,2.23,2.04-2.7,5.05-3.1,6.69-5.2-4.07-2.76-5.8-2.88-9.37-.68-2.74,1.7-5.69,3.08-7.89,5.59-.63.72-1.6,1.46-3.05.89,1.53-4.09,5.93-4.92,8.55-7.67-4.24-1.72-5.37-1.54-17.64,2.89-.32-1.57,1.11-1.53,1.83-2.06.71-.52,1.47-.96,2.78-1.8-5.24-2.33-10.64-3.17-14.48-7.25,6.63,1.29,12.29,6.74,19.67,4.66.99-1.22-.78-3.08.75-4.27,1.14.39,1.38,1.27,1.45,2.18.14,1.82,1.18,2.46,2.88,2.44.9,0,1.81.04,2.69.21,4.64.85,4.63.87,6.13-4.21.92,4.35,3.69,5.82,7.08,6.99,4.63,1.6,8.11,5.13,11.81,8.19Z"/>
  <path class="cls-16" d="M220.12,336.59c.39-.4.79-.81,1.18-1.21,1.1,1.15.97,2.48.58,3.94-1.41-.43-1.39-1.71-1.76-2.73Z"/>
  <path class="cls-19" d="M245.7,50.97c8.31.32,14.79,3.93,18.63,11.33,1.35,2.6,1.79,5.83,2.03,8.82.85,10.83-.39,21.57-3.51,31.89-1.58,5.22-3.92,10.35-7.08,15.05-4.3,6.39-7.96,13.21-12.17,19.67-3.04,4.65-7.19,8.06-12.99,8.71-3.91.44-7.71.11-11.43-1.53-2.77-1.22-4.94-3.64-8.13-3.97-10.06-6.43-16.82-21.91-14.69-33.73.51-2.81,1.1-5.61,1.67-8.41,2.96-14.47,11.55-24.77,24.02-32.08,6.53-3.83,12.2-8.84,18.49-12.99,1.65-1.09,3.12-2.41,5.16-2.75Z"/>
  <path class="cls-8" d="M204.7,58.47c6.18.19,10.04-3.27,14.7-4.3-3.03,4.35-7.72,6.06-12.41,7.18-3.7.88-5.57-2.4-3.73-5.92,2.07-3.99,5.65-6.48,9.32-8.77,4.01-2.5,8.45-3.91,13.06-4.95,2.67-.6,4.97.51,7.39,1.01,1.31.27,1.91,1.49,2.07,2.88.33,2.9-.61,5.36-2.62,7.37-7.35,7.38-15.84,12.97-25.86,16.07-.68.21-1.4.34-2.11.41-4.47.44-8.94.26-11.63-3.92-2.64-4.11-1.19-8.28.96-12.23,3.24-5.95,8.19-10.03,14.34-12.57,7.67-3.17,15.48-5.83,23.98-3.49.69.19,1.37.46,2.03.75.3.13.53.4,1.33,1.03-2,0-3.51.18-4.97-.03-10.15-1.49-19.13,1.74-27.41,7.12-3.96,2.57-6.92,6.26-8.46,10.9-2.04,6.15,1,10.32,7.53,10.29,4.88-.02,9.02-2.43,13.19-4.41,5.21-2.47,9.65-6.28,13.9-10.14,1.71-1.55,4.22-3.69,3.13-6.37-1.19-2.94-4.43-2.06-6.76-1.77-8.85,1.08-15.73,5.37-20.97,13.88Z"/>
  <path class="cls-27" d="M148.58,197.14c-.43-7.42,1.08-14.35,5.31-20.57.13,1.62,1.02,1.98,1.9.7,1.74-2.55,3.89-4.69,5.93-6.97,2.19-2.45,5.99-3.47,7.23-6.33,1.64-3.78,5.67-3.3,7.91-5.77,1.02-1.13,1.96.45,2.41,1.23,2.34,4.05,4.69,8.1,6.7,12.32.93,1.94,1.53,3.95,3.17,5.52,1.36,1.3,1.6,3.14,1.56,5.02-.06,3.06-.2,6.14.04,9.19.24,3.01-.82,5.24-3.08,7.06-4.55,3.66-9.2,7.02-15.54,6.18-3.18-.42-6.27.57-9.56.21-5.04-.55-9-2.2-11.78-6.43-.55-.83-1.24-1.25-2.19-1.35Z"/>
  <path class="cls-28" d="M139.84,175.48c.16,1.04.11,2.17.51,3.11,2.34,5.57,4.55,11.19,6.37,16.95.31.98.62,2.07,1.74,2.55-1.09,1.66-2.41,1.37-3.5.16-.81-.89-1.29-2.1-1.91-3.16,1.53-1.08.47-2.19.05-3.31-2.65-7.05-6.45-13.62-8-21.14-2.47-12.03.83-22.4,8.35-31.66,2.73-3.36,6.8-4.88,10.9-5.45,7.18-.98,12.52,6.97,9.89,14.5-.82,2.36-2.08,4.54-3.89,6.41-6.62,6.83-11.37,14.78-13.98,23.96-.3,1.04-.29,2.25-1.71,2.34-1.22.08-1.93-.78-2.55-1.7-.79-1.17-.94-2.76-2.32-3.54-2.16-9.85-1.17-19.27,3.92-28.11,1.67-2.9,3.85-5.25,7.13-6.25,4.29-1.31,6.84.69,6.35,5.11-.47,4.29-2.83,7.72-5.68,10.8-.72.78-1.77,1.56-2.84.99-1.29-.68-1.25-2.1-1.08-3.37.35-2.5,2.12-4.38,3.42-7.47-5.98,7.66-6.74,15.8-6.6,23.74.53-2.4,2.08-4.8,3.51-7.24,1.55-2.65,3.31-5.13,5.31-7.48,2.56-3.01,5.41-5.84,6.96-9.56.93-2.24,1.21-4.6-.5-6.65-1.88-2.24-4.4-2.29-6.94-1.54-4.2,1.23-7.11,4.04-9.23,7.81-5.19,9.23-5.89,19.01-3.68,29.16Z"/>
  <path class="cls-27" d="M153.89,176.57c.03-.89.26-1.66,1.11-2.12-.04.88-.25,1.67-1.11,2.12Z"/>
  <path class="cls-28" d="M142.02,194.03c.31.32.62.64.93.96-.31-.32-.62-.64-.93-.96Z"/>
  <path class="cls-27" d="M160.37,166.83c.36-.36.73-.73,1.09-1.09-.36.36-.73.73-1.09,1.09Z"/>
  <path class="cls-27" d="M155.02,174.42c.34-.39.68-.79,1.02-1.18-.34.39-.68.79-1.02,1.18Z"/>
  <path class="cls-27" d="M163.59,163.57c.37-.38.73-.76,1.1-1.14-.37.38-.73.76-1.1,1.14Z"/>
  <path class="cls-27" d="M162.52,164.66c.37-.37.73-.74,1.1-1.11-.37.37-.73.74-1.1,1.11Z"/>
  <path class="cls-27" d="M157.19,171.15c.33-.4.66-.8.99-1.2-.33.4-.66.8-.99,1.2Z"/>
  <path class="cls-27" d="M161.45,165.74c.36-.37.73-.74,1.09-1.1-.36.37-.73.74-1.09,1.1Z"/>
  <path class="cls-27" d="M158.37,168.96c.31-.34.62-.69.94-1.03-.31.34-.62.69-.94,1.03Z"/>
  <path class="cls-27" d="M159.31,167.92c.36-.37.71-.73,1.07-1.1-.36.37-.71.73-1.07,1.1Z"/>
  <path class="cls-14" d="M246.34,227.98c1.73,1.14,1.8,2.23,1.35,3.26-1.14,2.6-.38,5.36-.78,7.99-.43,2.82,1.53,2.13,3.85,2.43-5.55,3.89-7.31,9.38-9.07,15.46,2.73-1.32,5.04-2.43,7.34-3.55-6.22,5.2-12.34,10.35-16.08,18.68-1.67-3.09-.21-4.54.56-5.87,2.35-4.03,5.85-7.71,1.69-13.22,3.23-.11,2.73,2.12,3.73,2.84,6.05-4.97,1.44-10.41.38-16.1,2.85.94,1.96,3.69,3.5,4.72,1.93-3.22,1.92-3.22,1.98-6.99.03-1.98,0-3.97.25-5.92.15-1.2.79-2.33,1.29-3.73Z"/>
  <path class="cls-6" d="M277.26,289.11c-.08.15-.19.44-.24.43-.36-.08-.27-.24.25-.42,0,0,0,0,0,0Z"/>
  <path class="cls-17" d="M272.93,389.75c-.08.15-.19.44-.24.43-.36-.08-.27-.24.24-.42,0,0,0,0,0,0Z"/>
  <path class="cls-3" d="M139.84,175.48c-3.66-8.76-3.12-17.46.57-26.03,2.16-5.03,4.86-9.66,10.32-11.93,1.89-.79,3.77-1.19,5.78-1.01,3.82.33,6.27,3.04,6.05,6.83-.14,2.55-.8,5.05-2.54,6.97-6.41,7.11-12.16,14.65-15.73,23.64-.17.43-.44.57-.86.43-1.78-14.23,1.67-25.1,9.53-29.85.76,5-5.22,7.76-4.19,13.81,3.75-4.11,6.6-7.79,7.25-12.69.42-3.13-1.19-4.4-4.23-3.59-3.13.84-5.23,2.99-6.82,5.76-3.21,5.57-4.79,11.6-5.09,17.97-.15,3.24-.07,6.49-.1,9.73,0,0,.05-.04.05-.04Z"/>
</svg>