<?xml version="1.0" encoding="UTF-8"?>
<svg id="Layer_1" data-name="Layer 1" xmlns="http://www.w3.org/2000/svg" viewBox="0 0 445 558">
  <defs>
    <style>
      .cls-1 {
        fill: #c81c3e;
      }

      .cls-1, .cls-2, .cls-3, .cls-4, .cls-5, .cls-6, .cls-7, .cls-8, .cls-9, .cls-10, .cls-11 {
        stroke-width: 0px;
      }

      .cls-2 {
        fill: #fa717d;
      }

      .cls-3 {
        fill: #c91c3e;
      }

      .cls-4 {
        fill: #f8a9c6;
      }

      .cls-5 {
        fill: #cf1d40;
      }

      .cls-6 {
        fill: #f22e3e;
      }

      .cls-7 {
        fill: #f94e5c;
      }

      .cls-8 {
        fill: #fb717d;
      }

      .cls-9 {
        fill: #ff505e;
      }

      .cls-10 {
        fill: #eb90b1;
      }

      .cls-11 {
        fill: #f294b6;
      }
    </style>
  </defs>
  <path class="cls-10" d="M270.81,447.59c-16.23,7.86-33.88,9.62-51.39,11.85-10.55,1.35-21.13,2.53-31.77,3.23-18.35,1.21-35.79-1.98-52.39-9.52-11.56-5.25-23.45-9.91-34.23-16.77-9.48-6.03-17.51-13.69-24.28-22.62-8.48-11.19-17.54-21.99-23.94-34.63-5.02-9.91-9.55-19.89-11.94-30.95-2.49-11.53-4.69-23.04-5.84-34.77-.6-6.13-.38-12.27.54-18.32,1.9-12.56,3.74-25.14,6.22-37.59,2.33-11.66,7.34-22.42,13.19-32.72,4.82-8.48,9.87-16.83,15.17-25.02,5.79-8.96,12.22-17.49,19.29-25.5,9.49-10.75,20.01-20.39,31.62-28.84,1.64-1.2,3.43-2.44,4.54-4.08,5.93-8.77,15.19-12.7,24.24-16.86,4.55-2.09,9.02-4.26,13.12-7.12,11.62-8.09,25.18-11.2,38.55-14.55,25.1-6.28,50.56-3.53,75.85-1.76,29.32,2.04,55.52,13.15,78.83,30.74,10.13,7.65,18.49,17.34,26.64,27.14,8.58,10.32,16.54,21.03,22.82,32.9,7.65,14.44,11.39,29.92,11.95,46.26,1.02,29.89-4.22,58.9-13.4,87.08-7.35,22.57-17.78,43.79-35.79,60.29-10.07,9.22-21.12,17.17-32.18,25.1-5.51,3.95-11.65,7.04-17.13,11.04-11.21,8.2-23.76,14.12-35.5,21.4-3.76,2.33-8.5,3.11-12.79,4.6Z"/>
  <path class="cls-5" d="M401.22,261.09c2.6,7.27,4.36,14.62,5.22,22.41.76,6.87-2.05,10.73-6.82,14.26-1.25.93-2.98,1.18-3.82,2.7-1.01,2.39-3.12,2.87-5.38,3.09-1.07-.01-2.07-.29-3.01-.76-2.97-3.83-6.69-4.44-11.37-3.49-11.21,2.27-22.52,1.88-33.8.28-2.34-.33-5.3.02-5.33-3.72,0-.65-.13-1.76-.93-1.24-3.69,2.4-9.57,1.61-11.52,6-3,6.73-5.78,13.52-7.76,20.82-3.81,14.08-7.65,28.54-17.45,40.12-2.08,2.45-2.71,5.08-2.9,8.05-5.81,8.98-14.66,14.73-22.72,21.26-24.6,19.92-52.92,30.7-84.39,32.42-12.87.7-25.89-.41-38.16-5.46-4.24-1.75-8.38-3.61-11.58-6.97-13.64-14.33-26.94-28.93-35.26-47.24-1.23-2.7-2.43-5.4-2.26-8.46,2.03-10.14,4.09-20.11,1.41-30.66-5.36-21.11-4.08-42.34.29-63.51,2.91-14.06,6.32-28.17,12.21-41.1,11.55-25.36,28.23-46.15,55.26-57.39,12.78-5.32,25.58-10.18,39.24-10.05,21.87.21,43.68,2.19,61.65,17.12,2.02,1.68,4.8,2.92,4.44,6.31-3.13,2.05-5.54-.51-8.25-1.25-27.37-7.51-54.78-13.68-82.82-2.87-3.85,1.48-7.55,3.2-10.95,5.47-12.1,8.08-23.84,16.66-35.49,25.36-11.82,8.83-17.99,21.33-21.54,35.34-5.52,21.78-6.17,44.03-6.78,66.31-.42,15.35.68,30.47,6.61,44.85,12.96,31.42,43.57,56.47,79.85,58.45,10.04.55,20-1.72,28.03-7.14,15.22-10.26,32.29-18.29,44.88-31.92,16.32-17.66,33.22-35.58,38.78-59.97,7.42-32.54,7.98-64.75-9.05-95.29-5.86-10.51-10.62-21.61-18.89-30.61-.78-.85-1.14-1.95-1.13-3.13,1.23-2.95,3.64-1.86,5.74-1.61,4.18.5,6.33-1,4.57-5.26-1.64-3.98.09-6.86,2.19-9.82,5.84,1.13,8.47,5.3,9.98,10.53-2.56,2.6-2.03,5.01.44,7.32,2.07,1.95,2.75,6.39,7.24,4.02,8.01,9.06,15.06,18.71,17.8,30.77,2.7,11.91,6.42,23.64,6.72,36,.08,3.47,1.66,4.31,4.83,3.15,5.11-1.86,10.36-3.36,15.39-5.41,10.57-4.32,21.2-4.17,31.96-1.05,6.89,2.05,12.54,5.51,14.63,12.98Z"/>
  <path class="cls-4" d="M387.79,301.83c.6.24,1.19.48,1.79.72,1.73,2.29.26,4.34-.56,6.37-9.23,22.8-21.99,43.22-39.76,60.49-10.6,10.3-21.14,20.62-32.15,30.5-12.77,11.46-27.61,19.26-43.21,25.54-29.56,11.89-60.36,19.37-92.3,18.97-42.77-.53-78.21-16.19-102.13-53.59-13.57-21.21-24.13-43.73-25.06-69.01-1.73-46.93,8.24-90.93,38.52-128.41,12.96-16.05,25.42-32.56,40.05-47.21,1.77-1.77,3.92-3.06,5.64-4.85,4.77-2.06,8.54-5.7,13.28-7.96,13.42-6.4,26.58-13.28,41.53-15.58,2.42-.37,4.77-1.4,7.09-2.3,13.6-5.33,27.71-5.54,41.98-4.31,5.38.46,10.66,2.06,16.14,1.53,39.62,5.18,71.61,25.7,101.93,50,17.11,13.71,28.1,31.54,35.87,51.32,5.8,14.77,7.87,30.6,5.97,46.65l-.59.21s-.59.2-.59.2c-3.73-4.9-7.76-9.44-14.02-11.18-2.97-3.86-2.83-8.53-3.34-13-2.37-20.9-11.69-39-25.8-53.71-17.99-18.76-39.42-33.6-63-44.83-22.53-10.73-46.61-14.93-71.43-15.45-5.31-.11-10.43,1.14-15.46,2.38-13.65,3.36-26.85,8.23-40,13.14-17.27,6.45-30.71,18.53-42.95,31.69-12.39,13.31-22.8,28.25-32.35,43.79-12.05,19.61-17.49,41.32-20.83,63.68-1.68,11.22-2.55,22.57-2.53,33.96.03,24.2,8.85,45.53,20.5,66.21,18.15,32.22,46.87,47.73,82.27,50.72,36.72,3.11,71.57-5.24,104.84-21.38,17.78-8.63,32.3-20.95,45.97-34.64,9.63-9.64,19.49-19.09,28.2-29.62,6.82-8.24,13.3-16.65,16.71-27.09,1.39-4.24,3.21-8.53,6.51-11.86,4.16-2.33,8.61-2.82,13.25-2.06Z"/>
  <path class="cls-11" d="M138.62,141.35c-4.35,6.41-10.83,10.95-15.25,17.3-12.67,18.2-29.48,33.13-40.93,52.32-6.42,10.77-11.92,21.96-15.66,33.87-4.35,13.83-8.4,27.8-9.39,42.41-.89,13.09-3.05,26.17-.83,39.28,1.61,9.47,2.25,19.24,7.11,27.9.44.78.66,1.69.92,2.56,5.42,17.86,15.73,33.03,26.92,47.58,6.56,8.53,15.78,14.19,24.56,20.26,13,8.99,27.81,12.76,42.98,15.85,19.22,3.91,38.21,1.64,57.28-1.21,19.82-2.96,38.99-8.36,57.48-15.86,16.82-6.82,32.31-15.9,45.97-28.25,12.48-11.29,24.49-23.04,35.83-35.4,8.54-9.31,16.47-19.18,21.88-30.93,4.06-8.81,8.47-17.45,12.09-26.47,2.07-.7,4.15-1.39,6.22-2.09.88-.14,2.06-.43,2.31.62.46,1.98.19,3.95-.32,6.01-5.48,22.02-14.48,42.54-27.9,60.74-7.8,10.58-18.27,18.92-29.07,26.49-11.11,7.78-22.28,15.51-33.84,22.59-10.94,6.7-21.97,13.21-33.58,18.9-12.12,5.94-24.79,7.79-37.64,10.21-12.45,2.35-24.98,3.97-37.53,5.17-13.26,1.27-26.65,1.82-39.84-1.4-4.19-1.02-8.22-2.34-12.26-3.9-9.97-3.84-19.45-8.7-29.14-13.13-13.08-5.99-23.43-15.26-32.25-26.35-6.89-8.66-13.97-17.21-19.58-26.79-7.82-13.35-13.51-27.53-16.46-42.81-1.63-8.44-2.53-16.96-3.68-25.45-.86-6.36-.02-12.64.75-18.87,1.48-11.9,2.65-23.93,5.49-35.54,3.06-12.51,8.25-24.39,15.46-35.3,3.73-5.65,5.91-12.2,9.85-17.83,5.55-7.92,10.64-16.12,16.7-23.75,6.09-7.67,12.43-14.92,19.76-21.4,2.76-2.44,5.46-4.53,8.93-5.95,3.97-1.63,7.2-4.68,10.32-7.63,1.87-1.78,3.87-3.11,6.36-3.74Z"/>
  <path class="cls-11" d="M402.4,260.68c-.72-7.15-1.37-14.32-2.18-21.46-.87-7.63-1.47-15.41-4.5-22.52-6.74-15.83-13.99-31.55-26.58-43.72-12.39-11.97-25.81-22.75-40.84-31.37-6.86-3.94-13.35-8.69-20.53-11.88-14.66-6.5-29.39-13.05-45.51-15.33-1.4-.2-2.63-.65-3.62-1.69,4.04-1.77,8.07-.01,12.09.15,12.7.51,25,2.64,36.9,7.75,5.96,2.56,12.28,4.73,18.13,7.44,7.9,3.67,15.65,8.1,22.34,13.96,15.38,13.48,28.06,29.33,39.89,45.87,7.03,9.82,11.66,20.91,14.84,32.53,1.79,6.55,1.85,13.41,2.09,20.15.28,7.88.74,15.8-.34,23.86-1.72-.77-1.48-2.54-2.16-3.75Z"/>
  <path class="cls-6" d="M280.13,178.92c2.67,3.36,5.25,6.8,8.04,10.06,4.78,5.58,7.48,12.31,10.68,18.77,1.7,3.44,3.28,6.96,5.24,10.24,4.12,6.91,5.57,14.65,7.95,22.18,5.25,16.6,2.11,33.27,2.19,49.9.05,10.86-4.24,20.65-7.8,30.71-5.3,14.98-16.48,25.75-25.4,38.16-8.94,12.43-20.87,21.32-33.71,29-6.83,4.09-12.65,9.59-19.64,13.31-12.47,6.64-25.48,10.11-39.82,7.07-9.15-1.94-17.91-4.62-26.39-8.61-15.7-7.37-27.05-19.55-36.99-33.14-10.62-14.52-14.85-31.33-15.52-49.09-.76-20.18.4-40.31,2.96-60.31,1.15-8.96,2.81-18,5.61-26.56,4.77-14.59,13.72-26.51,26.92-34.65,8.51-5.25,16.15-11.63,24.34-17.3,15.06-10.43,31.76-14.86,49.91-14.59,13.47.2,26.47,3.78,39.77,5.24,6.47.71,11.69,4.84,17.78,6.62,2.09-.05,3.28,1.09,3.89,2.98Z"/>
  <path class="cls-11" d="M374.49,305.11c-6.13,18.37-16.07,34.35-29.85,47.98-6.46,6.39-12.89,12.84-19.02,19.55-7.85,8.58-17.06,15.61-25.77,23.21-6.02,5.25-13.37,8.28-20.49,11.79-9.55,4.71-19.1,9.24-29.16,12.81-9.67,3.43-19.74,4.89-29.68,6.99-9.72,2.05-19.6,3.09-29.56,3.57-10.95.52-21.73-.23-32.4-2.64-10.2-2.31-20.19-5.04-29.51-10.09-18.43-9.97-32.5-23.84-42.37-42.56-4.86-9.22-9.4-18.6-13.12-28.19-3.38-8.71-5.27-18.21-5.57-27.77-.92-29.26,2.85-57.76,12.96-85.42,4.34-11.89,11.18-22.09,17.83-32.64,8.77-13.9,18.93-26.62,30.37-38.24,8.72-8.85,18.35-17.01,29.43-22.81,5.04-2.63,10.15-5.9,16.25-6.26,1.54-.09,3.17-.69,4.51-1.48,5.12-3,10.96-3.86,16.39-5.84,13.93-5.08,28.02-6.87,42.71-5.33,13.82,1.45,27.54,3.69,40.64,8.13,15.04,5.1,28.88,12.71,42.28,21.48,12.99,8.5,24.55,18.57,36.35,28.42,6.7,5.59,10.51,13.48,15.2,20.67,3.87,5.94,5.24,13,9.24,18.85,2.24,3.28,1.89,7.42,2.49,11.19,1.03,6.44,1.71,12.94,2.54,19.42-13.18-3.8-25.89-2.38-38.4,3.02-4.95,2.14-10.2,3.61-15.75,5.53-.31-3.79-.58-7.32-.89-10.86-1.2-13.82-4.55-27.24-9.31-40.14-3.1-8.39-8.88-15.62-14.56-22.65-.55-.11-1.02-.36-1.45-.73-.78-.77-1.49-1.6-2.18-2.45-.5-.66-.9-1.38-1.24-2.13-.54-1.26-1.25-2.43-1.89-3.63-.21-.55-.16-1.07.17-1.56-2.3-4.55-5.32-8.49-9.64-11.32-10.27-6.23-20.57-12.32-32.18-15.94-6.58-2.05-13.05-3.8-20.03-3.05-4.31.46-8.65-.16-12.91-.8-22.98-3.4-45.63-1.15-65.16,11.2-20.42,12.92-39.61,27.86-50.86,50.87-9.98,20.42-18.28,41.07-20.46,63.86-1.93,20.14.14,39.93,5.26,59.42,2.01,7.64,2.9,15.68,7.22,22.61.61.97.26,2.22-.13,3.32,4.45,13.79,12.41,25.58,21.33,36.75,4.09,5.12,8.98,9.54,13.04,14.74,6.37,8.15,15.67,11.67,25.32,13.34,13.15,2.28,26.47,3.43,39.85,1.07,26.12-4.62,49.97-14.24,70.59-31.26,7.83-6.47,16.09-12.47,22.51-20.48.17-.47.37-.92.6-1.37.25-.45.54-.87.87-1.28.33-.44.69-.84,1.06-1.23.79-.86,1.59-1.7,2.43-2.52,10.65-9.76,13.08-23.6,17.98-36.2,2.3-5.92,3.87-12.12,7.13-17.66,1.96-3.34,4.53-5.79,8.67-5.55,12.47.73,24.95,1.12,37.44.72,1.17-.04,2.18.55,2.87,1.56Z"/>
  <path class="cls-1" d="M102.81,354.48c-9.26-18.34-12.55-38.17-14.31-58.32-2.68-30.69,4.04-59.39,18.36-86.57,5.62-10.67,11.01-21.35,19.81-29.9,7.01-6.81,15.11-12.28,22.32-18.85,12.53-11.42,27.8-16.33,44.2-19.21,13.64-2.4,27.05-1.42,40.54.34,1.35.18,2.74.48,4.06.34,16.5-1.8,30.46,5.7,44.59,12.32,3.84,1.8,7.15,4.77,9.68,8.36,1.89,2.76-1.47,4.48-1.35,6.59.11,2.02,2.45,3.64,2.15,6.17-.37,3.14-2.79,5.03-6.25,4.4-2.16-.39-4.05-2.21-6.48-1.24-1.73-.43-2.67-1.88-3.89-2.98-7.28-7.2-15.07-13.38-25.33-16.13-10.11-2.71-20.44-3.97-30.67-5.87-7.65-1.42-15.33.53-22.83,1.88-3.95.71-8.12.66-11.91,2.44-11.22,5.25-23.05,9.34-33.26,16.5-8.04,5.63-14.17,13.32-20.13,21.03-3.31,4.28-6.19,8.9-9.35,13.3-3.77,5.26-5.5,11.39-7.5,17.39-5.35,16.11-10.03,32.39-12.35,49.26-1.21,8.76-1.29,17.57-.93,26.39.45,11.11,2.56,21.91,5.45,32.6.18.66.68,1.61.42,1.94-3.81,4.81-1.2,10.86-3.19,15.97-.29.74-1.21,1.24-1.84,1.86Z"/>
  <path class="cls-3" d="M296.64,367.73c-.4.31-.8.61-1.2.92-.96-2.24-1.05-4.24.84-6.23,7.16-7.58,11.38-16.72,13.88-26.74,1.15-4.62,4.45-8.42,5.02-13.29.8-6.75,1.84-13.43,6.67-18.8.51-.57.6-1.72.54-2.57-.28-4.15,1.2-5.9,5.58-4.76,1.55.41,2.97-.85,4.17-1.94,1.39-1.26,3.18-1.69,4.91-2.23,1.13-.35,2.47-.49,3.14.53,1,1.54-.39,2.37-1.44,3.22-.32.26-.49.71-.97,1.42,11.96,1.92,23.74,2.63,35.6.89,1.56-.23,3.25-.14,4.65-.74,5-2.17,8.05-.45,9.76,4.42-4.17,2.14-9.02,1.56-13.29,3.27-13.31.54-26.62.49-39.88-.71-3.57-.32-5.58,1.08-7.01,3.92-1.53,3.02-3.26,6.01-4.29,9.2-2.75,8.59-6.27,16.89-8.88,25.56-2.54,8.44-7.15,16-14.81,21.15-.39,1.02-1.73,1.14-2.09,2.19h0c-.24.48-.53.92-.91,1.32Z"/>
  <path class="cls-1" d="M304.67,179.03c.33.7.66,1.41.99,2.11.78.79,1.04,2,2.07,2.6.33.28.52.64.57,1.07.15,1.07,1.1,2.23.26,3.19-.87.99-2.64.57-2.93-.17-1.7-4.25-6.07-6.66-7.4-11.08-.36-1.18-1.39-2.76.4-3.41.8-.29,2.04.62,3.08.99.3.21.45.49.44.86,1.26,1.01,1.07,2.98,2.53,3.86Z"/>
  <path class="cls-7" d="M165.33,205.79c13.49-5.98,25.4-3.12,36.49,5.34,5.36,4.09,7.03,4.11,11.56-.58,4.95-5.12,10.6-9.33,16.84-12.48,23.21-11.73,46.71-1.58,55.34,21.41,2.06,5.48.35,10.87-.66,16.1-2.47,12.86-8.96,24.08-15.19,35.44-5.68,10.35-12.89,19.66-18.96,29.73-6.58,10.91-15.31,20.2-23.34,30-7.63,9.31-14.32,19.1-18.36,30.67-2.08,5.96-4.57,11.79-6.47,17.85-.96,3.07-1.73,5.99-1.7,9.26.04,4.64-1.2,5.43-6,4.41-4.23-.9-8.36-2.19-12.06-4.49-10.71-6.64-19.97-14.77-26.76-25.6-4.68-7.45-10.51-14.13-14.96-21.77-3.19-5.47-6.69-10.79-8.41-16.94-1.07-3.79-3.87-6.6-5.11-10.32-6.53-19.75-8.3-39.64-3.41-60.08,3.02-12.65,8.39-23.97,17.44-33.24,6.68-6.85,14.4-12.48,23.73-14.72Z"/>
  <path class="cls-5" d="M304.67,179.03c-1.91-.58-2.1-2.3-2.53-3.85,1.62.77,2.16,2.26,2.53,3.85Z"/>
  <path class="cls-5" d="M307.73,183.74c-1.37-.32-1.79-1.4-2.06-2.6,1.2.46,1.77,1.42,2.06,2.6Z"/>
  <path class="cls-5" d="M297.54,366.41c.17-1.23,1.04-1.8,2.09-2.19-.33,1.08-1.04,1.8-2.09,2.19Z"/>
  <path class="cls-5" d="M296.64,367.73c.3-.44.61-.89.91-1.33-.3.44-.61.89-.91,1.33Z"/>
  <path class="cls-9" d="M195.17,390.89c-14.99-5.67-25.83-14.66-33.99-26.78-7.19-10.67-14.8-21.1-20.81-32.54-8.71-16.58-15.12-33.54-14.45-52.92.5-14.32,2.62-27.95,9.28-40.59,5.37-10.21,12.66-18.53,23.85-23.16,5.2-2.15,9.98-4.74,15.8-5.53,8.91-1.2,16.47,1.01,23.32,6.39,1.61,1.26,3.08,2.63,4.96,3.54,4.88,2.37,7.71,2.09,11.74-1.55,3.03-2.73,6.01-5.56,8.86-8.43,5.01-5.04,11.52-6.17,17.75-8.01,2.3-.68,4.86-.79,7.31-1.3,3.59-.74,7.17-.56,10.52,1.41,2.35,1.38,4.98,2.26,7.32,3.64,11.11,6.5,15.58,17.93,12.52,29.63-3.74,14.31-10.29,27.39-18.61,39.79-7.42,11.07-14.06,22.7-22.17,33.3-7.12,9.32-15.06,17.98-22.22,27.31-6.75,8.79-10.72,18.87-15.25,28.71-1.2,2.61-2.02,5.49-3.11,8.23-2.27,5.68-3.4,11.61-2.63,18.85Z"/>
  <path class="cls-8" d="M154,315.12c-4.87-12.44-7.12-27.16-7.46-42.16-.32-14.15,8.17-25.92,21.42-30.64,2.14-.76,4.25-1.7,6.45-2.19,6.14-1.36,11.73-.6,15.89,4.79.97,1.25,1.95,2.52,3.09,3.61,3.76,3.61,7.8,4.04,11.39.38,4.66-4.76,10.48-7.91,15.44-12.19,5.31-4.58,11.76-6.78,18.3-8.67,5.75-1.66,10.92,1.1,13.34,6.51,2.03,4.52,2.22,9.07,1.36,13.95-2.02,11.5-7.74,21.18-14.38,30.43-8.99,12.51-18.36,24.72-28.12,36.64-9.86,12.03-16.88,25.69-22.2,40.25-1.18,3.23-1.4,6.63-1.28,10.07.03.79-.47,1.92-1.09,2.34-1.23.82-1.9-.35-2.68-1.2-5.36-5.87-10.36-11.99-13.77-19.26-2.02-4.3-4.94-8.09-7.31-12.19-3.46-5.99-5.34-12.48-8.38-20.47Z"/>
  <path class="cls-9" d="M182.23,360.08c-5.22-4.35-7.4-9.96-10.35-14.94-7.05-11.93-12.69-24.61-16.11-38.03-3.23-12.65-6.53-25.38-4.91-38.76,1.48-12.24,12.06-23.08,24.89-25.63,4.22-.84,8.08.55,10.95,4.01.87,1.05,1.63,2.18,2.52,3.21,5.24,6.06,12.28,6.81,18.54,1.71,5.97-4.87,11.86-9.78,18.3-14.08,3.71-2.48,7.77-3.8,11.87-4.92,6.55-1.79,10.57,1.41,10.78,8.17.2,6.41-.87,12.49-3.63,18.47-4.2,9.11-9.5,17.34-15.49,25.38-8.4,11.26-17.69,21.82-25.83,33.25-8.71,12.23-15.39,25.59-20.25,39.83-.2.6-.61,1.12-1.28,2.33Z"/>
  <path class="cls-2" d="M184.57,322.5c-2.51-.86-4.14-2.4-4.68-4.27-2.43-8.55-7.56-15.98-10.07-24.46-1.24-4.2-1.42-8.52.21-12.68,3.24-8.29,10.25-9.51,16.28-2.93.75.82,1.61,1.53,2.29,2.18,2.8-.74,3.29-3.41,5.07-4.72,1.99-1.47,3.84-3.11,6.28-3.98,5.01-1.79,8.8-1.44,11.3,1.41,2.29,2.61,2.31,7.26-.1,11.54-2.27,4.02-5.58,7.35-9.16,9.97-8.07,5.91-13.17,13.49-15.49,23.12-.36,1.51-1.15,2.93-1.92,4.83Z"/>
</svg>