<?xml version="1.0" encoding="UTF-8"?>
<svg id="Layer_1" data-name="Layer 1" xmlns="http://www.w3.org/2000/svg" viewBox="0 0 445 558">
  <defs>
    <style>
      .cls-1 {
        fill: #f20c65;
      }

      .cls-1, .cls-2, .cls-3, .cls-4, .cls-5, .cls-6, .cls-7, .cls-8, .cls-9, .cls-10, .cls-11, .cls-12, .cls-13, .cls-14, .cls-15, .cls-16 {
        stroke-width: 0px;
      }

      .cls-2 {
        fill: #cc1d3f;
      }

      .cls-3 {
        fill: #f22e7a;
      }

      .cls-4 {
        fill: #e90c62;
      }

      .cls-5 {
        fill: #f8b0ba;
      }

      .cls-6 {
        fill: #c91c3e;
      }

      .cls-7 {
        fill: #ca1d3f;
      }

      .cls-8 {
        fill: #cc1f41;
      }

      .cls-9 {
        fill: #cf1d40;
      }

      .cls-10 {
        fill: #cb1d40;
      }

      .cls-11 {
        fill: #cc1e41;
      }

      .cls-12 {
        fill: #eda8b2;
      }

      .cls-13 {
        fill: #e895ae;
      }

      .cls-14 {
        fill: #ffb5bf;
      }

      .cls-15 {
        fill: #ec2d77;
      }

      .cls-16 {
        fill: #fbb2bd;
      }
    </style>
  </defs>
  <path class="cls-12" d="M212.1,258.23c-1.8,1.64-4.26.14-6.18,1.23-.37,11.03,1.46,21.84,2.81,32.68.35,2.8.32,5.66.32,8.5.02,28.21.04,56.42-.02,84.64-.01,5.84,1.06,11.58.94,17.44-.31,16-.62,32.01-1.29,47.98-1.02,24.19-.38,48.36-.78,72.54-.02,1.42.67,3.05-.94,4.12-2.25-4.94-6.48-8.11-10.42-11.52-1.62-1.41-3.35-2.68-3.8-4.98-.95-10.64-.33-21.31-1.16-31.97-1.32-16.94-1.68-33.96-1.19-50.97.46-15.82,1.51-31.61,2.7-47.39,1.36-17.97,1.52-35.97,1.34-53.97-.13-13.66.96-27.36-.95-40.97-.93-6.59-1.56-13.2-1.84-19.83,2.51-5.67,7-9.37,12.26-12.3.52.02.99.19,1.4.5,1.17,3.16,4.95,2.2,6.8,4.28Z"/>
  <path class="cls-15" d="M212.1,258.23c-.97-.05-1.94-.13-2.91-.16q-3.71-.13-4.23-4.02c3.78-2.78,8.27-3.73,12.68-4.88,4.06-.24,7.75-1.96,11.52-3.17,10.19-3.26,19.92-7.8,29.28-12.85,15.15-8.18,20.72-29.01,11.54-43.74-4.79-7.68-4.99-14.01.54-20.98,6.43-8.1,7.47-18.01,8.83-27.78,1.52-10.94,2.66-21.87-.03-32.81-3.64-14.79-11.05-27.01-23.76-35.83-6.61-4.59-12.25-10.31-17.43-16.46-1.38-1.64-2.55-3.5-4.48-4.59-1.39.29-1.17,1.53-1.43,2.39-5.17,17.08-14.36,31.7-26.29,44.93-11.28,12.5-23.01,24.58-34.34,37.04-9.51,10.46-11.96,23.5-15.23,36.37-.29,1.15.14,2.32.31,3.47-.14,4.68-2.87,8.84-2.51,13.68,1.19,15.7,5.67,30.37,13.32,44.11,3.51,6.3,7.88,11.95,12.83,17.17,1.19,2.39,4.3,3.84,3.55,7.19-1.01.4-1.99.45-2.89-.3-9.08-5.19-14.99-13.62-21.65-21.27-2.11-2.42-3.43-5.46-4.16-8.48-1.96-8.09-4.99-15.88-6.66-24.06-1.34-6.57-2.1-13.14-1.57-19.84.5-6.31.53-12.67,1.39-18.93,1.52-11.07,6.76-20.5,14.19-28.68,9.65-10.61,19.5-21.03,29.22-31.57,6.55-7.1,13.26-14.06,19-21.89,6.57-8.95,11.16-18.89,15.13-29.15.9-2.32,1.36-4.78,1.4-7.33.03-1.82.33-3.68.84-5.42.54-1.86,2.23-2.32,3.37-.86,2.07,2.66,4.85,4.63,6.91,7.19,6.87,8.51,15.22,15.29,23.77,22,12.6,9.87,20.59,22.78,24.14,38.6,3.04,13.57,1.23,26.8-1.08,40.12-.51,2.95-1.05,5.9-1.62,8.84-1.43,7.38-5.43,13.53-9.48,19.66-2.41,3.64-2.54,4.21.09,7.5,5.68,7.11,7.74,15.6,8.34,24.22.54,7.73-3.48,14.4-7.92,20.62-3.99,5.59-9.26,9.61-15.39,12.45-7.55,3.5-15.13,6.99-22.91,9.93-6.37,2.41-13,4.14-19.35,6.68-1.59.64-3.26.66-4.9.91Z"/>
  <path class="cls-16" d="M180.97,257c.96-.01,1.92-.02,2.89-.03,2.15.54,3.25,2.01,3.67,4.1-.02.59-.07,1.17-.14,1.76-2.19,10.76.04,21.63-.88,32.46-1.6,18.77-2.9,37.55-3.36,56.42-.81,32.69-.96,65.4-2.2,98.07-.88,23.24.31,46.37,1.09,69.54.77,3.55-1.33,5.23-4.22,6.37-2.85-3.07-2.74-6.99-2.81-10.73-.18-8.83-.11-17.67-.12-26.51-.02-10.12-.05-20.23-.03-30.35.03-15.13-.52-30.3.34-45.39.76-13.33.06-26.66.99-39.93.63-8.99.29-17.98.9-26.93.83-12.11.8-24.28,2.11-36.32,1.4-12.94,1.84-25.86,1.89-38.84.01-3.45.6-6.95,1.37-10.33.41-1.8-.78-2.33-1.46-3.36Z"/>
  <path class="cls-13" d="M177.81,525.68c1.37-1.71,2.74-3.42,4.11-5.13,1.52-3.77,4.81-5.78,7.91-7.98,1.36-.77,2.73-1.25,4.12-.04,4.72,2.31,7.63,6.84,11.93,9.7,1.78,1.18.97,3.36,1.08,5.13-3.65,2.88-7.04,6.04-10.45,9.2-3.1,2.88-4.23,2.85-7.83.42-2.47-1.66-4.87-3.45-7.33-5.13-2.19-1.5-3.54-3.44-3.53-6.17Z"/>
  <path class="cls-2" d="M233.79,265.67c2.41-1.27,4.35-2.65,6.52-3.35,4.78-1.54,7.55.89,6.79,5.78-.61,3.92-2.18,7.06-6.05,9.07-3.77,1.96-7.7,3.95-10.03,7.89-1.2,2.02-2.74,1.53-4.03.1-1.35-1.49-2.18-3.32-2.83-5.21-1.49-4.33-1.31-8.87-1.09-13.3.22-4.56,5.28-6.44,8.86-3.54.74.6,1.18,1.58,1.88,2.56Z"/>
  <path class="cls-7" d="M215.07,65.15c-.84.32-1.05.47-1.12.42-6.58-4.34-13.73-7.98-18.53-14.55-2.99-4.08-2.11-8.18,1.98-10.59,1.74-1.02,3.64-1.41,5.15-.27,1.87,1.42,2.88.57,4.04-.69,1.44-1.56,3.14-2.61,5.29-1.84,2.38.86,2.86,3.07,3.1,5.24.26,2.33.09,4.64-.74,6.87-1.92,5.14-2.46,10.25.84,15.39Z"/>
  <path class="cls-10" d="M175.29,82.82c.65-1.1,1.13-2.17,1.84-3.07,1.33-1.68,3.12-2.58,5.26-1.96,2.19.63,2.96,2.51,3.33,4.55.31,1.7-.08,3.37-.76,4.86-1.76,3.86-2.65,7.75-.67,12.45-6.08-1.3-10.93-3.44-14.83-7.36-2.51-2.53-2.33-6.68-.11-9,1.94-2.03,3.98-.66,5.94-.47Z"/>
  <path class="cls-8" d="M262.68,53.94c-1.16-5.16-4.17-9.32-5.03-14.21-.83-4.75,1.24-7.04,5.98-6.01,1.73.38,2.37-.56,3.47-1.07,3.3-1.53,5.58-.31,5.79,3.36.25,4.23-1.84,7.67-4.47,10.73-1.91,2.22-4.6,3.78-5.75,7.21Z"/>
  <path class="cls-11" d="M151.94,243.38c-.55,2.93-1.09,5.87-1.67,8.8-.31,1.58-1.16,2.29-2.85,1.76-4.52-1.42-8.57-3.63-11.92-7-.95-.96-1.75-2.13-1.26-3.56.59-1.75,2.26-1.79,3.73-1.92.8-.07,1.67.08,2.45.32,1.39.42,2.23.22,2.37-1.43.05-.63.37-1.28.68-1.86,1.84-3.45,4.84-3.6,6.83-.32.96,1.58,1.64,3.27,1.64,5.23Z"/>
  <path class="cls-4" d="M179.92,251.06c-4.63-3.4-7.7-8.16-10.83-12.8-8.7-12.87-12.88-27.54-15.92-42.5-1-4.93-.97-10.24.93-15.23.71-1.85,1.18-3.78,1.76-5.68.35-7.37,3.41-13.97,7.03-20.04,6.84-11.47,15.1-22.03,23.4-32.49,6.08-7.66,14.42-12.86,21.98-18.9,8.28-6.62,14.85-14.85,21.78-22.74,3.03-3.45,4.69-7.61,4.98-12.32.12-2.01.93-4.04,3.4-4.35,1.98-.25,3.07,1.14,3.78,2.72,5.66,12.69,14.37,23.7,20.07,36.37,4.98,11.06,8.47,22.41,8.25,34.76-.12,6.77-1.97,12.81-5.51,18.43-2.31,3.67-4.57,7.42-7.24,10.82-7.28,9.27-7.68,19.62-5.11,30.43,1.7,7.15,3.29,14.1,2.04,21.69-1.85,11.16-6.98,19.23-17.57,23.69-2.91,1.23-5.79,2.57-8.7,3.8-.65.22-1.34.29-1.99.5-.77.24-1.56.46-2.35.67-.53.09-1.08.14-1.59.35-.3.16-.6.31-.9.46-.44.21-.9.39-1.32.64-.28.15-.57.29-.86.41-.29.13-.6.2-.92.22,0,0-.47.03-.47.03-4.4,1.17-8.39,3.7-13.05,4.03-.31-.03-.62-.1-.92-.2.25-3.3,2.08-5.36,5.09-6.52,10.17-3.71,20.55-7.04,29.91-12.52,6.06-3.55,8.19-9.94,8.64-16.68.4-6,.04-11.95-1.54-17.87-1.55-5.77-2.52-11.61-1.59-17.78,1.19-7.88,4.29-14.74,9.36-20.7,10.5-12.34,12.04-26.11,7.65-41.28-4.53-15.64-13.02-29.19-21.44-42.92-10.34,15.82-24.01,28.28-38.96,39.42-10.84,8.08-17.07,19.95-25.41,30.09-9.37,11.39-14.32,24.73-17.81,38.78-.74,2.98-.66,5.9-.05,8.92,2.89,14.3,6.83,28.23,14.46,40.84,1.52,2.51,2.74,5.51,6.52,5.3,1.71,3.24,3.02,6.51,1.07,10.13Z"/>
  <path class="cls-5" d="M193.95,512.52c-1.46-.14-2.75.34-3.99,1.03-1.5-1.4-1.55-3.29-1.54-5.11.22-27.18-3.18-54.29-1.94-81.46.9-19.63,1.67-39.28,3.53-58.86.13-1.33.36-2.65.31-3.99-.64-18.35,1.22-36.65,1.12-54.99-.07-13.03-2.44-25.9-2.21-38.92.06-3.23-2.74-5.76-2.32-9.11l.31-.36c2.85-.51,4.43,1.18,5.74,3.33.09,7.81,1.15,15.53,2.33,23.22.33,2.14.68,4.24.68,6.4,0,22.01.48,44.03-.25,66.02-.27,8.04.21,16.28-1.67,24.27-.11.48-.1,1-.07,1.5.53,9.16-.58,18.3-1.27,27.37-1.12,14.66-.83,29.29-.55,43.91.18,9.57.46,19.2,1.64,28.78.71,5.75.16,11.66.16,17.49,0,3.17,0,6.34,0,9.5Z"/>
  <path class="cls-6" d="M192.96,264.07c-1.91-1.11-3.83-2.22-5.74-3.32-.88-1.47-2.67-2.13-3.36-3.78-1.2-2.05-3.16-3.58-3.94-5.91-.31-3.43-.53-6.88-1.98-10.08-2.97-4.47-2.52-9.55-2.34-14.48.36-10.23,3.28-19.68,9.8-27.74,7.61-9.41,20.53-9.87,28.82-1.02,4.72,5.04,7.46,11.04,7.15,18.08-.39,8.76-2.89,17.04-6.45,24.97-1.27,2.82-2.98,5.61-5.97,7.15-2.15,1.54-3.12,4.05-4.89,5.9-3.7,3.41-7.39,6.82-11.09,10.22Z"/>
  <path class="cls-3" d="M223.01,247.06c1-.02,2-.04,3-.06.34-.31.68-.63,1.01-.95,6.43-2.71,12.99-5.16,18.37-9.85,2.45-2.13,4.33-4.69,5.39-7.71,2.62-7.42,4.41-14.94,2.43-22.9-1.72-6.92-3.7-13.77-3.24-21.11.34-5.47,1.44-10.46,4.69-14.98,3.01-4.19,5.54-8.72,8.6-12.87,6.33-8.58,6.82-18.33,5.48-28.2-2.05-15.12-8.83-28.47-16.68-41.36-3.98-6.53-8.43-12.83-11.05-20.11-.43-1.2-1.03-2.17-2.41-2.14-1.46.03-1.77,1.33-2.22,2.38-.19.45-.31.98-.28,1.46.42,6.84-3.62,11.65-7.82,16.13-2.97,3.16-5.63,6.57-8.55,9.76-6.45,7.05-14.08,12.71-21.61,18.46-6.43,4.91-11.72,10.78-16.35,17.36-4.12,5.84-8.44,11.54-12.76,17.23-6.22,8.21-9.81,17.67-13.14,27.25-1.51-1.38-1.05-3.04-.61-4.64,1.51-5.42,3.58-10.67,3.92-16.43.13-2.2,1.34-4.38,2.61-6.41,5.76-9.2,12.5-17.54,20.17-25.26,9.8-9.88,18.92-20.41,28.18-30.8,5.31-5.95,8.9-12.76,12.92-19.46,4.43-7.37,7.01-15.35,9.3-23.92,2.52,1.67,4.43,3.56,5.97,5.64,5.01,6.76,10.96,12.74,17.87,17.26,6.65,4.36,11.57,10,15.79,16.33,6.67,10.03,10.03,21.2,10.21,33.36.18,12.21-1.89,24.13-4.27,35.99-1.11,5.53-4.53,10.22-7.77,14.82-2.07,2.94-3.66,6.05-2.96,9.75.47,2.49,2.21,4.44,3.44,6.58,4.27,7.44,6.05,15.5,5.33,23.89-.35,4.06-3.19,7.63-5.36,11.1-4.04,6.45-9.37,11.55-16.76,14.33-5.4,2.03-10.7,4.45-15.83,7.1-5.98,3.09-12.77,3.72-18.8,6.59-.24.11-.79-.44-1.19-.68h0c.34-.32.67-.64.99-.96.33-.02.67-.03,1-.04.34-.32.67-.64,1-.96.34-.01.67-.02,1.01-.04.33-.32.66-.64.99-.95Z"/>
  <path class="cls-14" d="M186.91,261.11c4.21,4.54,4.12,10.08,4.14,15.8.02,6.78.68,13.56,1.73,20.28.2,1.31.17,2.66.18,3.99.01,8.01.5,16.06-.1,24.02-1.03,13.64-.27,27.31-1.06,40.92-.67,11.43-1.13,22.89-2.07,34.28-1.37,16.61-2.08,33.2-1.68,49.82.25,10.13.3,20.33,1.16,30.39.94,11.01.31,21.97.76,32.93-2.68,2.33-5.35,4.67-8.03,7-.86-.15-1.67-.46-1.85-1.4-.16-.81-.14-1.66-.14-2.49.16-19.6-1.98-39.18-.92-58.76.98-18.07.07-36.18,1.16-54.19.85-14.17.27-28.3.75-42.44.08-2.32-.2-4.67.77-6.9.25-.58.38-1.39.19-1.96-1.27-3.78.13-7.53.06-11.29-.19-9.32.62-18.56,1.91-27.78.25-1.8.14-3.67.07-5.5-.25-6.18.72-12.23,1.72-18.29.11-.65.34-1.38.17-1.97-1.69-5.57-.58-11.27-.85-16.91-.16-3.33.6-6.51,1.95-9.56Z"/>
  <path class="cls-1" d="M208.93,247.94c.32-.75.5-1.61.98-2.24,7.42-9.65,9.85-20.9,9.98-32.67.08-7.32-7.04-17.92-14.68-19.58-6.63-1.44-14.02-.09-18.65,6.02-8.51,11.24-11.23,23.75-8.85,37.53.22,1.3.15,2.65.22,3.98-.39,2.18-1.52,2.68-2.93.93-1.57-1.93-2.96-4.04-4.18-6.2-5.01-8.88-9.11-18.2-11.43-28.13-1.17-4.99-2.41-9.98-3.41-15.01-.68-3.41.29-6.76,1.22-9.82,3.4-11.12,6.85-22.29,13.99-31.79,6.98-9.29,13.82-18.69,21-27.81,3.51-4.45,8.47-7.47,12.96-10.86,11.24-8.48,20.86-18.59,29.89-29.28,1.88-2.23,2.95-5.15,4.57-8.07,3.9,4.74,6.38,10.01,9.45,14.89,6.06,9.63,10.66,19.95,13.91,30.88,2.26,7.62,2.55,15.43,1.94,23.23-.22,2.85-1.59,5.89-3.25,8.27-2.55,3.65-4.38,7.71-7.36,11.17-4.58,5.32-7.23,11.64-8.41,18.82-1.3,7.9,1.26,15.03,2.51,22.47,1.56,9.33,1.52,18.56-3.78,26.95-1.15,1.83-2.69,3.44-4.69,4.41-3.89,1.89-7.58,4.23-11.79,5.44-4.51,1.29-8.7,3.33-12.89,5.38-1.91.94-3.9,2.6-6.32,1.11Z"/>
  <path class="cls-15" d="M227.02,246.05c-.34.32-.68.63-1.01.95.34-.32.68-.63,1.01-.95Z"/>
  <path class="cls-15" d="M223.01,247.06c-.33.32-.66.63-.99.95.33-.32.66-.63.99-.95Z"/>
  <path class="cls-15" d="M221.01,248.05c-.33.32-.67.64-1,.96.33-.32.67-.64,1-.96Z"/>
  <path class="cls-15" d="M219.01,249.05c-.33.32-.66.64-.99.97.33-.32.66-.64.99-.97Z"/>
  <path class="cls-9" d="M179.97,228.36c-.53-9.83,2.5-18,7.47-25.49,4.85-7.32,16.42-8.36,22.74-2.29,5.89,5.66,8.28,12.21,5.89,20.31-1.36,4.6-2.27,9.3-3.84,13.88-2.07,6.02-6.04,10.65-9.94,15.35-2.54,3.07-5.62,5.68-8.43,8.53-1.59,1.62-2.97,1.54-4.75.08-4.98-4.08-7.16-9.76-7.95-15.67-.67-5.04-2.1-10.14-1.19-14.7Z"/>
</svg>