<?xml version="1.0" encoding="UTF-8"?>
<svg id="Layer_1" data-name="Layer 1" xmlns="http://www.w3.org/2000/svg" viewBox="0 0 445 558">
  <defs>
    <style>
      .cls-1 {
        fill: #e9aad0;
      }

      .cls-1, .cls-2, .cls-3, .cls-4, .cls-5, .cls-6, .cls-7, .cls-8, .cls-9, .cls-10, .cls-11, .cls-12, .cls-13, .cls-14, .cls-15, .cls-16, .cls-17, .cls-18, .cls-19, .cls-20, .cls-21, .cls-22, .cls-23, .cls-24, .cls-25, .cls-26, .cls-27, .cls-28, .cls-29, .cls-30, .cls-31, .cls-32, .cls-33, .cls-34, .cls-35, .cls-36, .cls-37, .cls-38 {
        stroke-width: 0px;
      }

      .cls-2 {
        fill: #dfb7cf;
      }

      .cls-3 {
        fill: #f5eaea;
      }

      .cls-4 {
        fill: #f5e9e9;
      }

      .cls-5 {
        fill: #f8eded;
      }

      .cls-6 {
        fill: #faebf0;
      }

      .cls-7 {
        fill: #eb8eaf;
      }

      .cls-8 {
        fill: #dfbcce;
      }

      .cls-9 {
        fill: #dbbfd0;
      }

      .cls-10 {
        fill: #ef91b2;
      }

      .cls-11 {
        fill: #ee90b0;
      }

      .cls-12 {
        fill: #eb8dad;
      }

      .cls-13 {
        fill: #f12d3e;
      }

      .cls-14 {
        fill: #cf1d3f;
      }

      .cls-15 {
        fill: #deb8d0;
      }

      .cls-16 {
        fill: #eba9d1;
      }

      .cls-17 {
        fill: #efeaea;
      }

      .cls-18 {
        fill: #ee8dac;
      }

      .cls-19 {
        fill: #ed8eaf;
      }

      .cls-20 {
        fill: #ed8cac;
      }

      .cls-21 {
        fill: #f091b3;
      }

      .cls-22 {
        fill: #ede5e5;
      }

      .cls-23 {
        fill: #ef90b2;
      }

      .cls-24 {
        fill: #efedf0;
      }

      .cls-25 {
        fill: #f5ede9;
      }

      .cls-26 {
        fill: #f1e4ef;
      }

      .cls-27 {
        fill: #fbf8fb;
      }

      .cls-28 {
        fill: #f1add8;
      }

      .cls-29 {
        fill: #ee90b2;
      }

      .cls-30 {
        fill: #dfb8d1;
      }

      .cls-31 {
        fill: #eee9ed;
      }

      .cls-32 {
        fill: #f190b1;
      }

      .cls-33 {
        fill: #dc3b51;
      }

      .cls-34 {
        fill: #ef90b1;
      }

      .cls-35 {
        fill: #ea8dad;
      }

      .cls-36 {
        fill: #d8b8cb;
      }

      .cls-37 {
        fill: #f190b2;
      }

      .cls-38 {
        fill: #eaacd1;
      }
    </style>
  </defs>
  <path class="cls-13" d="M95.44,172.1c12.87-14.61,31.08-17,48.52-20.89,9.55-2.13,19.27-4.31,29.08-3.99,9.7.32,19.21,2.48,27.94,7.16.97.52,2.04.85,3.07,1.27,3.04-.32,4.21,2.13,5.7,3.97,1.46,1.81,2.53,3.89,3.46,6.03.62,2.48,2.07,4.9.69,7.56-4.08,1.43-8.24.83-12.37.38-2.22-.25-4.42-.59-6.65-.22-.81.13-1.79.31-1.81,1.35-.01.75.79,1.07,1.41,1.39,3.79,1.95,7.93,2.8,12.09,2.97,5.96.24,11.97.72,17.88-.73,2.61-.64,5.05-1.61,6.87-3.69.56-.63,1.14-1.4.76-2.24-.4-.86-1.37-.84-2.21-.77-2.66.21-5.16,1.15-7.73,1.74-3.51.8-5.73-.11-6.35-3.87-.07-5.09-.45-10.28,4.15-13.99,4.72-.98,7.63-4.83,11.46-7.24,10.96-6.89,22.58-11.97,35.49-13.95,4.15-.64,8.26-.76,12.42-.66,13.43-.97,25.49,3.14,36.83,9.9,8.05,5.24,15.82,10.71,22.09,18.24,9.15,10.99,17.41,22.42,22.15,36.08,3.06,8.81,3.7,18.15,6.03,27.1,4.98,19.12,1.32,37.62-2.7,56.28-3.38,15.68-8.22,30.78-15.7,44.97-4.67,8.86-10.94,16.65-17.12,24.47-9.44,11.94-21.5,21.56-30.49,33.83-10.44,14.25-21.48,28.09-30.49,43.38-4.36,7.4-9.4,14.41-14.43,21.38-2.03,2.81-3.5,5.89-5.36,8.76-2.64,4.75-5.71,9.18-9.44,13.15-5.58,6.01-10.85,12.36-16.83,17.94-6.04,5.63-13.06,9.81-21.84,9.86-2.9.02-5.8.67-8.7.71-17.7.28-33.15-5.8-47.16-16.36-16.12-12.15-25.6-28.5-30.18-47.73-1.87-7.85-2.09-16.1-3.07-24.16-.6-4.95-.98-9.91-.96-14.91.01-2.75-2.32-4.66-3.21-7.14-3.28-9.14-6.55-18.29-10-27.37-4.38-11.5-9.18-22.83-13.34-34.4-4.38-12.16-7.54-24.72-8.38-37.64-.51-7.92-2.61-15.61-2.68-23.58-.07-7.47-1.08-14.93-.27-22.43.2-1.89-.28-3.86-.45-5.79.04-11.51,3.38-22.47,5.59-33.62,1.4-7.06,4.9-13.25,8.14-19.53,2.33-4.53,4.52-9.19,8.11-12.95Z"/>
  <path class="cls-28" d="M212.3,165.41c-2.66-3.32-3.89-7.86-8.25-9.75-2.01-3.73-5.27-6.19-8.7-8.47-6.05-4.01-11.55-8.53-14.74-15.29-.63-3.06-.63-6.12,0-9.18.12-.54.19-1.1.37-1.61,2.34-6.9,2.31-6.84-4.04-9.86-4.74-2.25-6.21-7.01-7.93-11.34-2.43-6.11-2.73-12.48-.25-18.71,2.83-7.09,4.16-14.38,3.49-22-.3-2.18-1.55-4.47.73-6.36,1.62-.36,2.66.56,3.51,1.72,6,8.21,11.65,16.63,15.35,26.18.3.78.58,1.57.77,2.38.29,1.2.89,2.66-.39,3.44-1.29.79-2.3-.49-3.22-1.26-3.13-2.64-6.42-4.87-10.3-4.93,8.95,3.99,16.7,9.49,19,20.22.26,1.21.84,2.66-.34,3.51-1.28.92-2.33-.36-3.25-1.1-3.64-2.95-7.92-4.48-12.35-5.72,4.41,2.17,8.76,4.35,12.87,7.16,4.3,2.94,5.44,6.64,5.47,11.33.04,6.94-.06,7.06-6.09,3.75-1.09-.6-2.13-1.27-3.72-1.38,3.03,2.71,7.08,3.5,9.42,6.67,1.05,3.08-.24,6.4.99,9.45,1.85,4.8,3.07,9.84,5.69,14.45-7.63-13.51-5.9-26.9.23-40.3-1.41,1.45-2.13,3.31-3.04,5.04-.38.72-.66,1.7-1.64,1.68-1.02-.02-1.25-1.02-1.45-1.79-.97-3.66-1.6-7.34-.28-11.08,1.44-4.07,2.51-8.27,4.46-12.15-1.62,2.18-2.49,4.72-3.53,7.18-.36.86-.66,2.05-1.85,1.96-1.09-.08-1.52-1.17-1.82-2.09-1.38-4.27-2.46-8.5-.8-13.04,1.38-3.78,2.65-7.61,3.89-11.46-1.96,2.29-2.46,5.25-3.66,7.89-.51,1.13-.95,2.62-2.3,2.75-1.58.16-1.77-1.51-2.2-2.6-2.94-7.42-6.53-14.46-11.45-20.79-1.02-1.31-2-2.69-2.42-4.36.59-2.62-1.48-3.99-2.76-5.67-1.29-1.68-1.7-2.9.84-3.57,6.35,4.48,14.24,6.41,19.87,12.07,4.44,5.22,9.98,9.53,12.2,16.51,2.11,6.62,3.79,13.23,3.72,20.21,1.15,3.85-.41,7.89.84,11.73,1.33,2.4.58,5.02.82,7.53.28.64-.14.93-.57,1.23-.02,4.94.03,9.87.06,14.8-.16,2.45.65,5.05-1.12,7.25-1.41,3.31-.21,6.76-.53,10.13-.23,2.94.5,5.79.81,8.68.03,1.35.59,2.61.75,3.94-.27,1.71,2.01,4.02-1.18,5.04Z"/>
  <path class="cls-16" d="M212.3,165.41c2.1-1.63-.49-3.37.11-5.03,1.45-.43,1.27-1.83,1.72-2.86.12-.36.28-.7.46-1.03.47-.84,1.09-1.56,1.81-2.2,1.52-1.76,1.4-4.05,1.98-6.11.4-1.4.38-3.02,1.85-3.91.43-.24.8.75,1.28.06,6.17-8.99,14.27-15.7,24.06-20.44,2.29-1.11,3.66-3.3,5.68-4.8,8.56-6.35,14.32-14.6,16.44-25.23.57-2.86.18-5.67-.59-8.23-1.08-3.61-1.46-7.34-2.5-10.96-1.33-4.59.54-8.75,2.69-12.72.66-1.22,1.66-2.22,2.7-3.89-2.54,1.19-5.09.74-7.08,2.31-2.23,1.15-4.22,2.8-6.78,3.27-1.82-.56-3.18.38-4.61,1.3-8.47,5.41-15.16,12.45-19.89,21.33-.52.98-1.09,1.93-1.94,2.68-1.57,1.28-.76,2.89-.37,4.24,1.88,6.51-1.97,11.79-3.62,17.53-.14.5-.51,1.04-1.16,1.01-.88-.04-.99-.82-1.21-1.46-.57-1.68.03-3.61-1.24-5.47.78,2.92,1.13,5.54,2.27,8.12,1.34,3.02-.07,6.45-1.58,9.11-1.4,2.47-2.57.07-3.49-1.2-.43-.73-.83-1.48-1.17-2.25-.95-2.01-1.97-4-1.79-6.32.24-1.57.41-3.16,1.1-4.62,3.94-9.09,6.14-18.94,11.91-27.23,10.67-15.37,24.69-25.71,43.5-28.82,2.86-.47,5.73-.91,8.59-1.4,1.44-.25,3-.45,3.55,1.23.6,1.83-.74,3-2.27,3.41-2.92.78-5.18,2.37-7.36,4.43-6.14,5.78-7.73,12.23-4.7,20.29,5.48,14.56-.46,26.46-9.66,37.39-4.09,5.82-9.92,9.62-15.67,13.54-6.9,4.7-13.25,10.09-19.46,15.65-2.05,3.08-5.24,5.45-5.89,9.4-2.25,4.43-3.77,9.02-3.02,14.09.1.94.26,1.95.03,2.83-.62,2.33-1.7,2.72-3.08.45-.53-2.5-1.06-4.99-1.59-7.49Z"/>
  <path class="cls-17" d="M95.44,172.1c-3.57,6.32-7.19,12.59-10.4,19.12-4.6,9.37-5.45,19.68-8.21,29.5-1.62,5.76-1.73,11.74-3.23,17.48-.99-11.16.71-22.13,3.62-32.75,2.13-7.81,6.06-15.13,10.15-22.21,2.31-3.99,3.94-8.47,8.07-11.14Z"/>
  <path class="cls-31" d="M225.85,146.13c4.4-5.57,9.79-10.06,15.58-14.08,6.78-4.71,13.52-9.44,19.55-15.11-.58,4.18-4.25,6.08-6.82,8.59-8.41,8.21-18.83,13.78-28.3,20.6Z"/>
  <path class="cls-38" d="M173.97,53.31c-3.14,1.21-1.15,3.92-1.72,5.88-1.24-5.09-3.18-9.78-7-13.59-.99-.98-.93-2.63-.07-3.86,1.05-1.5,2.22-.34,3.28.09,1.02.41,1.98.96,2.96,1.45,1.73,1.04,4.37.76,5.01,3.41-1.93,2.33.84,3.23,1.66,4.41.94,1.34,2.41,2.12.9,3.89-2.4-.42-3.15-2.93-5.07-4.01-.47.8.6,1.56.04,2.33Z"/>
  <path class="cls-22" d="M316.15,143.59c-7.33-2.36-14.07-6.37-21.73-7.84-5-.96-10.2-.41-15.11-2.06,6.77-1.98,13.85-1.89,20.19.35,5.92,2.09,11.74,5.24,16.64,9.55Z"/>
  <path class="cls-24" d="M176.43,46.7c-1.67-1.14-3.34-2.27-5.01-3.41,10.04,2.23,18.64,6.85,25.09,15.07-6.34-4.49-14.27-6.26-20.08-11.66Z"/>
  <path class="cls-26" d="M217.42,107.65c0,1.65-.01,3.31-.02,4.96-.91,1.5-.11,3.07-.22,4.61-.55,3.56-1.36,7.07-2.06,10.61-.2,1-.01,3.07-2.26,1.92.17-4.85-.5-9.72.37-14.55.28-.29.56-.57.84-.86,1.43-2.07,1.2-4.97,3.34-6.69Z"/>
  <path class="cls-4" d="M240.68,471.21c2.91-4.55,5.57-9.28,9.44-13.15,1.3,1.98-.68,3.2-1.42,4.32-2.19,3.31-4.12,7.01-8.02,8.83Z"/>
  <path class="cls-30" d="M213.27,106.81c-1.81-3.8-.44-7.83-.84-11.73,1.74,3.8.46,7.83.84,11.73Z"/>
  <path class="cls-9" d="M180.61,122.72c0,3.06,0,6.12,0,9.18-1.37-3.06-1.38-6.12,0-9.18Z"/>
  <path class="cls-25" d="M285.35,149.15c17.76.66,30.44,9.52,41.18,21.68,5.95,6.73,11.68,13.7,15.47,22.01,3.99,8.76,6.2,18.05,7.44,27.48,1.44,10.98,3.98,21.85,3.81,33.02-.02,1.49.79,3.51-1.23,3.69-1.75.16-1.4-1.9-1.62-3.24-1.02-6.31-3.19-12.27-5.58-18.18-3.94-9.71-6.86-19.84-11.86-29.12-3.48-6.45-7.38-12.65-11.19-18.91-4.12-6.77-9.31-12.5-14.5-18.33-8.25-9.28-17.69-15.92-30.92-14.83-1.2.1-3.21.86-3.54-1.02-.37-2.12,1.76-2.11,3.16-2.41,3.37-.72,6.76-1.33,9.38-1.84Z"/>
  <path class="cls-14" d="M213.89,172.9c4.58,2.22,1.79-2.41,3.05-3.28.45,2.62,1.44,3.88,4.46,2.68,2.53-1,5.32-1.53,8.04-1.85,1.47-.17,3.6-1.02,4.48.97.88,1.99-.88,3.56-2.03,4.67-2.89,2.79-6.82,3.95-10.64,4.09-9.23.34-18.61,1.2-27.36-3.06-1.29-.63-3.42-.57-2.95-2.71.4-1.83,2.02-2.45,3.89-2.42,6.36.11,12.68,1.33,19.07.88Z"/>
  <path class="cls-23" d="M127.4,198.74c4.79.05,8.13,2.96,8.04,7.01-.1,4.76-3.53,8.17-8.13,8.08-4.19-.08-8.53-3.61-8.56-6.95-.04-4.52,3.85-8.18,8.65-8.13Z"/>
  <path class="cls-10" d="M259.42,321.76c-4.5-.04-7.51-3.22-7.55-7.98-.03-3.96,3.75-8.52,7.11-8.57,3.42-.05,7.12,4.91,7.04,9.44-.09,4.94-2.14,7.15-6.61,7.11Z"/>
  <path class="cls-21" d="M187.7,260.71c-4.63-.06-8.37-3.35-8.45-7.43-.07-3.36,4.42-7.8,7.79-7.7,3.56.1,7.57,4.43,7.47,8.05-.13,4.6-2.56,7.13-6.82,7.07Z"/>
  <path class="cls-34" d="M287.39,197.11c.13,4.5-3.27,8.18-7.55,8.2-3.74.01-6.28-2.95-6.26-7.3.01-3.29,3.81-7.38,6.79-7.31,3.61.08,6.93,3.12,7.02,6.42Z"/>
  <path class="cls-11" d="M149.58,337.54c-3.36.02-7.32-3.27-7.3-6.06.02-4.49,2.42-7.83,5.65-7.87,4.65-.06,8.52,3.35,8.39,7.38-.11,3.47-3.27,6.54-6.75,6.56Z"/>
  <path class="cls-7" d="M209.69,414.45c-3.66-.03-5.71-2.25-5.64-6.1.08-4.15,3.35-7.87,6.99-7.94,3.26-.06,6.44,2.86,6.35,5.85-.13,4.51-3.62,8.22-7.7,8.19Z"/>
  <path class="cls-7" d="M309.06,257.75c-3.05-.07-5.62-3.65-5.51-7.68.1-3.7,3.04-6.36,6.87-6.2,3.57.15,6.38,2.78,6.32,5.92-.09,4.1-3.89,8.05-7.68,7.96Z"/>
  <path class="cls-29" d="M128.78,272.9c-.03,4.03-2.8,6.61-6.99,6.51-2.65-.07-5.7-3.49-5.57-6.26.17-3.66,3.38-6.66,7.18-6.72,3.36-.05,5.4,2.41,5.37,6.46Z"/>
  <path class="cls-35" d="M158.91,433c-.14,3.73-3.23,7.43-6.02,7.21-3.08-.25-5.77-3.22-5.56-6.14.3-4.24,3.27-7.9,6.37-7.85,2.77.04,5.33,3.38,5.21,6.79Z"/>
  <path class="cls-19" d="M252.15,256.42c-2.97.04-6.55-3.29-6.13-6.13.44-3.03,1.85-5.51,5.56-5.54,3.42-.03,6.68,2.58,6.68,5.49,0,3.15-2.95,6.14-6.11,6.18Z"/>
  <path class="cls-12" d="M209.08,468.38c.1,3.6-1.17,5.91-4.79,6.2-3.08.24-5.36-2.2-5.25-5.53.12-3.55,2.59-5.44,5.57-5.63,2.98-.19,4.7,1.98,4.47,4.96Z"/>
  <path class="cls-37" d="M205.36,344.96c.03-2.89,2.84-6.08,5.71-5.55,2.56.47,4.59,2.06,4.71,5.05.12,2.92-2.97,6.49-5.61,6.22-3.05-.31-4.63-2.27-4.81-5.72Z"/>
  <path class="cls-32" d="M286.08,360.56c.06,3.23-1.99,5.21-5.46,5.37-2.94.14-4.4-1.39-4.57-4.13-.17-2.76,3.09-6,5.91-5.85,2.78.15,4.08,1.88,4.12,4.61Z"/>
  <path class="cls-18" d="M156.43,378.81c.31,2.43-.82,4.49-3.73,5.06-2.08.41-5.28-2.76-5.01-5.06.33-2.84,1.48-5.69,4.84-5.7,3.06,0,3.91,2.5,3.9,5.7Z"/>
  <path class="cls-20" d="M155.73,172.98c-2.83.02-5.29-.59-5.06-3.69.22-2.91,1.93-5.39,5.17-5.5,2.82-.1,4.85,1.62,4.69,4.58-.15,2.89-1.59,5.02-4.8,4.61Z"/>
  <path class="cls-5" d="M173.97,53.31c-.31-1.44-3.24-2.39-1.88-3.58,1.69-1.48,3.06.72,4.19,2.11.88,1.08,1.81,2.1,2.72,3.15,6.1,8.7,12.12,17.46,15.37,28.26,2.98-4.66,3.06-10.18,7.05-13.73,1.62.86.88,2.1.49,3.19-1.16,3.27-2.28,6.57-3.62,9.77-2.3,5.5-1.3,10.75.99,16.6,2.07-4.47,3.05-9.02,6.82-12.02-1.63,9.15-8.52,17.38-4.13,27.29,1.85-2.96,2.49-6.89,6.4-9.19.23,2.86-.96,4.76-1.85,6.67-2.79,6.02-4,12.39-4.1,18.94-.09,5.82,2.01,11.1,4.48,16.29.61,1.29,2.38,3.56.59,4.33-1.81.78-2.25-2.02-2.82-3.39-1.74-4.2-3.19-8.51-4.76-12.78-1.27-3.53.35-7.3-.87-10.83-3.82-.99-6.48-4.26-10.3-5.27-.64-.17-1.29-.71-1.01-1.55.28-.84,1.11-.65,1.76-.71,2.09-.19,3.7.84,5.35,1.96,1.24.84,2.66,1.39,3.91,2.03.97-.73.22-1.4.32-2,1.83-11.2-6.04-15.07-14.16-18.81-2.14-.98-4.63-1.51-6.79-4.65,7.75,1.35,13.68,3.84,18.77,8.63-.33-10.51-9.75-20.99-19.73-22.27-.76-.1-1.92.22-1.96-.95-.04-1.24,1.09-1.43,2.09-1.52,4.64-.38,8.3,1.79,11.7,4.57.94.77,1.78,1.67,3.02,2.27-3.17-12.5-10.14-22.9-18.03-32.8Z"/>
  <path class="cls-27" d="M213.21,130.2c1.92-4.24,1.33-9.1,3.32-13.32,2.13,2.68,1.38,5.89,1.2,8.78-.29,4.82-.58,9.65-1.03,14.46-1.04,3.26-.53,6.62-.6,9.93-.05,2.37-.04,4.72-1.25,6.86l.03.11c-1.11.87-2.22.84-3.32-.02-.01-3.08-1.3-6.04-.82-9.16,1.16-3.26-.37-6.75.86-10.01,1.55-2.36.5-5.01.83-7.51.19-.47.44-.49.76-.12Z"/>
  <path class="cls-2" d="M213.21,130.2c-.26.03-.51.07-.76.12,0-5.21-.02-10.42-.01-15.64,0-.09.15-.18.23-.27.19.26.39.52.58.78-.01,5-.02,10-.04,15Z"/>
  <path class="cls-33" d="M211.58,157c1.11,0,2.21.01,3.32.02.29,1.3-.4,2.39-.79,3.53-.74,2.2-1.09-.48-1.7-.17-.28-1.13-.55-2.25-.83-3.38Z"/>
  <path class="cls-8" d="M199.03,124.38c1.82,3.49.33,7.24.87,10.83-1.92-3.48-.4-7.24-.87-10.83Z"/>
  <path class="cls-15" d="M211.62,137.83c-.45,3.32.85,6.79-.86,10.01.06-3.35.12-6.69.19-10.04,0-.05.2-.14.31-.13.13.01.24.11.36.17Z"/>
  <path class="cls-28" d="M262.59,60.05c.16-.52.3-1.5.47-1.51,3.04-.09,5.9-1.3,9.84-2.37-2.4,3.34-4.29,5.47-5.75,7.95-3.63,6.18-1.57,12.48.2,18.26,3.84,12.51-1.01,22.07-8.55,31.26-3.31,4.04-8.11,6.35-11.29,10.63-1.18,1.59-4.65,1.41-6.84,3.12-6.81,5.3-13.84,10.3-18.88,17.49-.14.2-.35.36-.53.54-.17-.34-.33-.68-.5-1.02-1.59-1.79-.25-3.7-.24-5.56.04-11.14,7.2-16.76,16.18-20.99,4.72-2.22,9.45-4.41,14.17-6.62-7.59,1.94-14.55,5.23-20.94,9.73-.8.56-1.53,1.22-2.35,1.72-.79.48-1.61,1.35-2.6.58-.74-.58-.46-1.52-.42-2.34.24-4.57,2.32-8.21,5.62-11.25,5.19-5.26,11.53-8.57,18.46-10.88,3.76-1.25,7.56-2.38,11.11-4.2-10.62,3.19-21.13,6.61-29.7,14.12-2.48-.78-1.52-2.61-1.09-4.07,2.34-7.85,8.31-12.66,14.71-16.97,3.35-2.26,7.16-3.71,11.08-4.76-5.34,1.24-10.21,3.53-14.73,6.61-.97.66-2.02,2.11-3.22,1.13-1.23-1,0-2.28.48-3.37,3.53-7.99,9.58-13.92,16.02-19.52,3.04-2.64,6.13-5.23,9.29-7.73Z"/>
  <path class="cls-3" d="M230.83,110.2c-3.19,3.55-5.61,7.44-5.27,12.74,5.88-4.87,12.51-8.59,19.73-11.18,2.64-.95,5.18-2.57,8.21-1.72-.98,3.43-4.42,3.05-6.78,4.26-6.25,3.22-12.87,5.7-18.54,10.05-2.88,2.21-5.01,4.42-5.36,8.29-.36,3.96-1.35,7.86-2.06,11.78-1.76,2.58-1.37,5.75-2.37,8.56-.36,1.03-.24,2.25-1.78,2.29-2.48-2.57-.19-5.55-.74-8.29.81-3.07,1.2-6.24,2.05-9.29,1.39-5.04,1.47-10.04.16-15.08.26-1.12.16-2.51,1.92-2.45.51.75,1.01,1.5,1.56,2.31,3.59-5.51,1.3-10.75-.19-16.02-.26-.92-.48-1.88-.54-2.83-.03-.46.26-1.18.61-1.36.77-.38,1.29.25,1.59.89,1.13,2.45,1.18,5.09,1.18,8.53,1.57-4.27,2.82-7.81,4.17-11.31,1.19-3.08-.29-5.92-.63-8.87-.15-1.26-1.31-3.11,1.43-3.08,1.4.44,1.4,1.95,2.25,3,3.34-5.62,6.34-11.36,10.46-16.41,3.54-4.33,8.13-7.48,12.12-11.28.48-.46,1.18-.73,1.91-.39,2.15-1.24,4.06-2.97,6.67-3.26-1.59,3.97-5.46,5.7-8.4,8.26-7.15,6.23-13.58,12.93-17.29,22.25,6.22-4.63,12.48-8.26,20.38-7.85-3.85,1.65-7.89,2.95-11.5,5.01-7.37,4.19-13.68,9.52-16.2,18.14-.28.97-.69,1.86.39,2.58.79.34,1.28.82.88,1.76Z"/>
  <path class="cls-28" d="M255.92,63.31c-10.61,8.15-19.02,18.09-24.35,30.59-2.02-1.62-1.31-3.92-2.39-5.5,5.17-10.16,12.4-18.48,22.09-24.57,1.35-.85,2.84-2.76,4.66-.53Z"/>
  <path class="cls-1" d="M219.05,122.79c2.96,8.45-.31,16.28-2.4,24.23-2.73-1.94-.95-4.49-.93-6.8-.38-7.8,1.48-15.52.8-23.33.32-1.41-.47-3.05.87-4.26-.62,2.32,1.42,3.88,1.69,5.95-.5,1.4-.72,2.81-.04,4.22Z"/>
  <path class="cls-36" d="M215.73,140.21c.43,2.25-.87,4.74.92,6.8.47,2.75-1.15,5.49-.03,8.25-.59.55-1.17,1.1-1.76,1.65.64-5.55-1.03-11.21.87-16.7Z"/>
  <path class="cls-26" d="M219.05,122.79c-.71-1.41-2.44-2.83.04-4.22.3.53.61,1.05.91,1.58-1.05.62-.85,1.68-.94,2.64Z"/>
  <path class="cls-6" d="M230.83,110.2c-.29-.58-.58-1.17-.88-1.76,4.24-6.07,11.01-8.22,17.37-10.77,4.65-1.86,9.39-3.82,15.7-4.49-3.54,3.23-6.79,4.28-10.02,5.26-8.18,2.46-15.83,5.87-22.18,11.76Z"/>
</svg>