<?xml version="1.0" encoding="UTF-8"?>
<svg id="Layer_1" data-name="Layer 1" xmlns="http://www.w3.org/2000/svg" viewBox="0 0 445 558">
  <defs>
    <style>
      .cls-1 {
        fill: #e83543;
      }

      .cls-1, .cls-2, .cls-3, .cls-4, .cls-5, .cls-6, .cls-7, .cls-8, .cls-9, .cls-10, .cls-11, .cls-12, .cls-13, .cls-14, .cls-15, .cls-16, .cls-17, .cls-18, .cls-19 {
        stroke-width: 0px;
      }

      .cls-2 {
        fill: #ef2d3d;
      }

      .cls-3 {
        fill: #eb2d3c;
      }

      .cls-4 {
        fill: #ea3340;
      }

      .cls-5 {
        fill: #e82e3e;
      }

      .cls-6 {
        fill: #ef2e3d;
      }

      .cls-7 {
        fill: #e03848;
      }

      .cls-8 {
        fill: #ee2f40;
      }

      .cls-9 {
        fill: #de3645;
      }

      .cls-10 {
        fill: #ec2f3f;
      }

      .cls-11 {
        fill: #db404f;
      }

      .cls-12 {
        fill: #fefefe;
      }

      .cls-13 {
        fill: #fef6f3;
      }

      .cls-14 {
        fill: #ec3040;
      }

      .cls-15 {
        fill: #e13644;
      }

      .cls-16 {
        fill: #e82d3d;
      }

      .cls-17 {
        fill: #ec2e3d;
      }

      .cls-18 {
        fill: #e14352;
      }

      .cls-19 {
        fill: #eb3141;
      }
    </style>
  </defs>
  <path class="cls-17" d="M119.51,206.32c6.01-1.43,12.01-2.93,18.05-4.23,1.97-.42,2.71-1.23,2.83-3.29,1.26-21.78,7.49-42.36,16.28-62.09,9-20.2,22.61-36.57,43.19-46.15,10.09-4.69,21.01-6.36,31.89-7.72,9.18-1.15,18.5-2.36,27.72-1.62,14.81,1.2,29.27,3.95,40.88,14.58,3.78,3.46,9.18,3.42,13.8,5.07,15.2,5.43,26.78,15.22,35.29,28.62,4.73,7.45,8.37,15.54,10.7,24.15,2.97,10.96,3.74,22.03,1.45,33.17-.48,2.34.64,2.38,2.07,2.97,4.7,1.95,9.81.92,14.61,2.1,3.59.88,5.04,2.97,4.71,6.77-1.32,15.16-4.57,29.94-8.19,44.67-1.6,6.51-5.12,12.13-8.44,17.75-2.03,3.44-6.2,1.75-9.2,1.28-12.62-1.96-24.07-7.56-35.85-12.13-2.51-.98-2.75-2.56-2.25-4.93,2.94-13.72,6.69-27.19,12.7-39.93,1.49-3.15,1.8-6.63,2.84-9.9,1.67-5.23,3.58-6.84,8.99-6.78,4.12.04,8.15-1.6,12.37-.24,2.31.75,2.59-1.43,2.85-3.08,2.53-16.27-.95-31.44-8.01-46.1-5.09-10.56-12.35-19.24-21.5-26.38-6.68-5.22-14.39-8.45-22.3-10.89-.86.65-.54,1.19-.18,1.56,6.86,7.06,9.08,15.73,9.64,25.3.41,7.04,1.15,14,.06,21.05-2.33,15.11-12.31,22.73-26.11,26.03-11.62,2.78-22.81,1.4-32.57-6.27-5.09-4-10.64-7.42-14.7-12.69-4.4-5.72-5.94-12.21-5.05-19.08.68-5.26,1.84-10.51,3.59-15.6,3.34-9.69,10.43-15.33,19.67-18.77,10.55-3.93,21.02-8.15,33.33-7.43-6.97-6.42-15.21-7.89-23.21-9.99-14.83-3.9-29.51-.91-44.24.67-8.36.9-16.4,2.74-24.29,5.84-10.69,4.2-19.42,11.02-26.77,19.44-16.85,19.32-24.5,42.89-30.03,67.35-1.31,5.8-1.93,11.66-2.5,17.56-.31,3.13.66,3.24,3.4,2.56,11.04-2.74,22.05-5.5,32.9-8.98,7.04-2.26,14.4-3.45,21.77-4.53,6.11-.89,11.36,1.66,15.61,4.52,7.07,4.76,13.67,10.57,18.3,18.08.47.76.7,1.48.68,2.33,1.35,1.63,2.9,3.14,3.12,5.42.17,1.83-.55,3.12-2.27,3.82-7.75,1.61-15.65,2.16-23.48,3.15-17.94,2.26-34.58,8.95-51.6,14.4-11.37,3.64-23.01,6.31-34.87,7.78-8.97,1.11-17.51,2.47-25.1,8.48-7.92,6.26-17.77,9.6-26.53,14.68-5.64,3.27-7.97,7.53-8.23,13.7-.49,11.67.36,23.27,2.01,34.79.69,4.84-.26,9.71.9,14.47.13.45.22.9.27,1.37,2.23,22.75,4.33,45.52,10.14,67.73,1.15,4.42,2,8.9,3.34,13.28,1.47,4.82,3.63,8.94,7.78,11.91.68.48,1.21,1.14,1.47,1.97-.08,2.4-1.55,2.03-3.08,1.55-4.62-1.95-7.44-5.67-8.9-10.17-4.55-14.13-7.94-28.59-9.99-43.26-2.73-19.52-5.3-39.07-6.08-58.82-.23-5.89-1.42-11.75-1.83-17.67-.63-8.99.24-17.96.57-26.91.37-9.87,1.09-19.77,3.01-29.53.8-4.04,1.57-8.07,2.81-12,2.77-.54,2.12,1.71,2.53,3.09-1.13,9.63-3.27,19.13-3.76,28.85-.06,1.2-.59,2.4.19,3.98,6.31-3.73,12.32-7.68,18.74-10.92,6.33-3.19,12.47-6.72,18.17-10.94,5.86-4.33,12.94-4,19.52-4.97,14.2-2.09,28.2-4.95,41.62-9.95,20.16-7.51,40.81-12.64,62.25-14.49,4.04-.35,4.05-.53,1.9-4.03-4.43-7.23-9.97-13.26-17.55-17.33-6.52-3.5-13.21-4.55-20.5-2.99-14.81,3.16-28.89,8.99-43.82,11.7-3.93.71-4.43,1.98-3.6,5.96.89,4.26,1.32,4.54,5.57,3.99,4.68-.6,9.32-1.53,14.07-1.4,1.11.03,2.22.02,3.31.33.98.28,1.87.79,2.03,1.85.17,1.1-.62,1.77-1.47,2.31-1.6,1.02-3.42,1.11-5.23,1.06-4.2-.11-8.28.75-12.41,1.3-2.67.35-3.56,1.67-2.72,4.31.76,2.37,1.36,4.81,1.49,7.33.06,1.19-.25,2.3-1.56,2.6-1.11.26-1.81-.58-2.33-1.4-1.45-2.27-1.99-4.89-2.49-7.46-.56-2.91-2.01-3.54-4.74-2.75-3.2.93-6.33,2.1-9.56,2.92-1.6.41-3.58.93-4.31-1.14-.74-2.09,1.14-2.86,2.65-3.59,3.27-1.57,6.79-2.42,10.23-3.52,3.41-1.08,3.45-1.9,2.1-6.97-.81-3.05-2.56-2.6-4.75-2.02-3.89,1.03-7.79,2.06-11.87,2.09-1.55-.47-4.13.64-3.9-2.54Z"/>
  <path class="cls-16" d="M236.96,219.44c2.42-1.02,1.3-2.74,1.12-4.49-.17-1.65-1.89-2.4-1.79-4.02,4.86,3.3,8.22,8.05,11.52,12.69,15.62,21.94,28.77,45.34,40.78,69.42,9.68,19.41,17.4,39.54,23.42,60.36.88,3.03.8,5.97-1.22,8.64-5.75,7.61-11.75,14.99-19.47,20.75-1.08-.5-2.72-.15-2.95-1.94.03-.28.04-.63.23-.77,3.1-2.29,4.6-5.43,5.01-9.18,1.1-.32,2.47.27,3.3-.99,4.49-2.3,7.44-6.11,9.99-10.25,1.29-2.09.59-4.39-.05-6.48-3.42-11.13-6.46-22.38-10.96-33.18-7.26-17.45-15.56-34.41-24.8-50.85-8.49-15.1-17.02-30.24-27.77-43.94-.41-.54-.81-1.09-1.1-1.71-.12-.25-.21-.5-.26-.76-.23.36.18.63.15.98.25,1.29.15,2.67,1.15,3.72.24.36.43.74.58,1.14,5.98,22.22,10.95,44.65,15.28,67.26,5.16,26.94,11.13,53.72,17.37,80.44.79,3.38,2.7,6.4,3.09,9.9.03.66-.04,1.33-.1,1.99-.11,1.07-.15,2.23-1.28,2.74-1.51.68-2.07-.68-2.87-1.49-5.15-8.84-6.43-18.86-8.44-28.6-3.66-17.66-7.79-35.22-11.35-52.9-.2-.67-.31-1.35-.38-2.05-3.99-17.86-6.32-36.08-11.35-53.7-2.28-7.97-5.76-15.6-7.16-23.84-.51-2.98-1.51-5.98.33-8.87Z"/>
  <path class="cls-10" d="M288.73,380.97c.31,1.38,2.8-.34,2.58,1.81-3.09,4.29-7.23,7.46-11.66,10.15-11.56,7-23.56,13.21-35.99,18.56-5.21,2.24-10.89,2.75-16.34,4.14-8.24,2.1-16.5,4.22-24.87,5.66-11.39,1.95-22.89,3.25-34.34,4.83-2.47-.08-5.26,1.8-7.27-1.15.84-2.06,2.85-2.01,4.52-2.31,8.46-1.47,16.9-3.1,25.49-3.7,3.18-.22,6.33-.83,9.43-1.54,13.11-2.98,26.18-6.16,39.17-9.59,7.34-1.94,13.97-6.01,20.77-9.44,5.56-2.81,10.89-6.02,16.33-9.04.67.83,1.5,2.24,1.94-.01.17-.87-.11-1.86.39-2.73,2.21-.08,3.63-1.53,5.21-2.8,1.4-1.12,2.32-3.14,4.62-2.82Z"/>
  <path class="cls-19" d="M161.2,424.49c1.72,3.05,4.68.8,6.92,1.61-4.45,1.6-9.18,1.48-13.77,2.16-3.53.52-7.09.9-10.48,1.96-5.77,1.8-11.71,1.02-17.57,1.39-7.56.48-14.98,2.41-22.64,1.97-4.92-.29-9.43-1.42-13.52-4.16,1.11-.14,2.46.15,2.68-1.54,2.17-1.06,4.02.42,5.99.8,5.94,1.14,11.85.81,17.77-.09,4.8-.73,9.59-1.6,14.48-1.28,5.34.34,10.47-.84,15.6-2.04.69-.2,1.4-.32,2.11-.37,2.86-.4,5.7-.94,8.58-1.11,1.34-.08,2.75-.58,3.84.7Z"/>
  <path class="cls-9" d="M74.49,221.29c7.11-4.74,14.73-8.25,23.23-9.62,1.4.48,3.05-.26,4.31.9.34,1.37-.73,1.75-1.61,1.95-8.71,1.97-16.87,5.36-24.83,9.32-1.16-.51-1.91-1.2-1.1-2.55Z"/>
  <path class="cls-15" d="M102.14,212.78c-1.49-.31-3.28.57-4.42-1.12,7.02-2.77,14.64-3.1,21.79-5.35.77,2.38,2.82.97,4.24,1.43.03,1.26-.95,1.63-1.86,1.91-5.58,1.71-11.29,2.89-17.04,3.84-.97.16-1.95.05-2.71-.72Z"/>
  <path class="cls-11" d="M71.22,234.56c-.36-1.23.61-3.02-1.5-3.5.77-1.94,1.53-3.89,2.3-5.83,1.21-.46,2.08,0,2.73,1.02-.4,3.1-.72,6.24-3.54,8.31Z"/>
  <path class="cls-7" d="M74.36,226.05c-.78-.27-1.56-.54-2.34-.82-.32-2.03,1.56-2.68,2.46-3.94.3.81.6,1.62.9,2.43.66,1.21.16,1.92-1.02,2.33Z"/>
  <path class="cls-13" d="M313.8,140.04c.27,4.3.04,8.55-1.15,12.73-3.39,11.88-15.73,20.73-28.2,20.85-8.31.08-16.29-.82-23.02-5.95-7.77-5.91-17.09-10.45-19.62-21.36-1.31-5.66.01-10.97,1.15-16.32,1.65-7.76,4.41-14.98,11.54-19.57,5.2-3.35,11.04-5.33,16.8-7.34,7.28-2.54,14.73-4.31,22.65-3.77,4.04.28,6.88,1.5,9.34,4.82,9.05,12.21,9.27,14.03,10.52,35.92Z"/>
  <path class="cls-14" d="M277.72,319.38c8.32,11.15,10.89,24.64,15.18,37.43,1.49,4.43,2.67,8.96,3.99,13.45-.56,2.77-2.33.57-3.5.85-4.84-13.95-7.92-28.46-13.54-42.15-1.08-2.64-2.43-5.16-3.66-7.74-.51-1.47-.46-2.46,1.54-1.84Z"/>
  <path class="cls-2" d="M147.74,296c2.3-.4,4.76.53,6.76,1.83,2.68,1.74,3.75.54,5.6-1.31,5.47-5.47,11.39-10.41,19.76-10.64,11.85-.32,18.6,10.76,13.98,21.16-3.68,8.29-8.6,15.84-15.02,22.57-5.19,5.44-9.26,11.96-14.62,17.38-2.45,2.48-4.79,2.8-7.76,1.25-8.87-4.66-14.08-12.53-18.52-21.03-1.95-3.73-4.04-7.35-4.87-11.69-1.93-10.04,4.84-19.56,14.69-19.52Z"/>
  <path class="cls-3" d="M193.4,343.54c.33.08,1.45.21,2.45.62,4,1.64,6.88,1.73,10.53.05,4.36-2,9.04-2.1,13.48-1.21,6.94,1.38,9.68,7.44,7.55,14.79-1.68,5.79-5.07,10.56-9.57,14.22-6.17,5.03-11.82,10.85-19.26,14.19-.31.14-.44.65-.73.9-6.04,5.29-6.13,5.18-9.95-1.87-4.56-8.42-7.56-17.33-9.18-26.72-1.04-6.04,1.28-10.41,6.77-13.09,2.23-1.09,4.57-1.92,7.9-1.89Z"/>
  <path class="cls-3" d="M101.92,343c1.77.31,3.91.09,5.22,1.03,3.62,2.6,5.61.86,8.14-1.75,3.61-3.71,8.66-4.79,13.58-5.3,3.98-.41,8.93,6.2,8.02,10.84-2.37,12.02-4.47,24.15-10.56,35.07-2.75,4.92-4.56,5.36-9.12,2.15-7.91-5.58-15.08-12.04-22.28-18.46-2.26-2.02-4.32-4.46-5.26-7.29-3.23-9.73,2.18-15.12,12.25-16.29Z"/>
  <path class="cls-6" d="M152.08,378.68c2.89,2.14,4.19-.49,5.94-2.4,3.85-4.2,8.9-3.1,13.36-.94,3.68,1.78,5.25,6.86,3.97,11.04-1.69,5.54-4.48,10.41-8.37,14.8-1.92,2.16-2.83,5.08-5.3,7.06-1.38,1.11-2.32,1.38-3.52.54-6.02-4.21-11.78-8.69-15.27-15.43-3.43-6.63,1.29-14.51,9.19-14.67Z"/>
  <path class="cls-5" d="M230.17,266.15c.26,2.52-1.93,2.38-3.32,2.86-8.61,2.96-10.22,5.24-9.84,14.13.1,2.35,0,4.71.09,7.07.07,1.93-.48,3.4-2.66,3.35-2.11-.05-2.06-1.92-2.28-3.37-.12-.81-.14-1.7.08-2.48,2.4-8.51-4.44-13.74-11.25-16.86-1.21-.56-3.03-.42-3.2-2.09-.2-1.97,1.79-1.7,2.96-2.22,5.73-2.52,10.36-8.41,8.88-15.82-.21-1.06-.13-2.21-.01-3.31.14-1.32.91-2.68,2.2-2.57,1.42.12,1.3,1.53,1.33,2.88.13,6.36,2.72,11.76,7.66,15.7,2.38,1.9,5.73,1.54,8.71,1.89.39.15.6.43.66.84Z"/>
  <path class="cls-8" d="M99.65,279.46c.12.16.26.18.41.05,3.5,5.73,8.14,10.07,14.73,12,.78.23,1.63.28,2.45.32,1.32.06,3.06-.81,3.78.71.98,2.07-1.47,2.91-2.42,3.61-5.56,4.09-7.45,8.95-4.4,15.4.55,1.17.63,2.5-.84,3.22-1.7.83-2.24-.67-2.82-1.65-3.61-6.15-8.56-9.51-15.99-8.02-1.13.23-1.92-.39-2.4-1.27-.59-1.07.09-1.97.91-2.48,7.13-4.36,6.23-11.06,5.09-17.71-.33-1.9-.32-3.24,1.49-4.18Z"/>
  <path class="cls-4" d="M247.91,382.14c.07,1.49.19,2.32.14,3.15-.08,1.37,0,3.06-1.87,3.22-2.38.2-1.41-1.87-1.68-3.01-.55-2.36.25-5.48-3.82-5.56-1.08-.02-1.59-1.87-.48-2,5.4-.63,2.28-4.35,2.48-6.66.11-1.27-1.02-3.02.85-3.37,1.4-.26,1.83,1.7,2.58,2.76.21.3.15.81.15,1.22-.02,2.85.87,4.33,4.13,3.37.89-.26,2.81-1.02,3.08.79.18,1.23-1.35,1.54-2.47,1.64-3.4.3-3.29,2.66-3.08,4.45Z"/>
  <path class="cls-1" d="M163.26,255.76c-.77,1.33-2.07,1.77-3.42,2.07-3.13.69-4.63,2.39-3.35,5.61.72,1.83.24,3.03-1.58,3.47-2,.48-2.4-1.24-2.45-2.53-.09-2.45-.3-4.34-3.57-3.53-.8.2-1.69-.39-1.77-1.35-.09-.97.74-1.69,1.51-1.65,3.14.2,2.72-1.8,2.59-3.77-.05-.74-.32-1.76.78-2.08.89-.26,1.96.05,2.12.84.88,4.5,3.73,2.82,6.23,2.07,1.23-.37,2.37-.95,2.91.86Z"/>
  <path class="cls-12" d="M93.18,299.47c.48-1.73.23-3.02,1.68-3.27.26-.05.89.42.87.56-.21,1.13-1.14,1.67-2.54,2.71Z"/>
  <path class="cls-12" d="M169.38,262.58c-.22.1-.62.41-.82.32-.44-.21-1.05-.58-1.12-.97-.14-.74.56-.8,1.11-.71.63.1.88.55.83,1.37Z"/>
  <path class="cls-18" d="M277.72,319.38c-1.14.09-1.47.85-1.54,1.84-1.59-1.91-3.78-3.54-3.05-6.7,2.81.57,3.33,3.07,4.59,4.86Z"/>
</svg>