<?xml version="1.0" encoding="UTF-8"?>
<svg id="Layer_1" data-name="Layer 1" xmlns="http://www.w3.org/2000/svg" viewBox="0 0 1128.45 232.72">
  <defs>
    <style>
      .cls-1 {
        fill: #cf1d40;
        stroke-width: 0px;
      }
    </style>
  </defs>
  <g>
    <path class="cls-1" d="M70.26,78.61l-10.06.75c-5.4.56-5.22-5.96-3.35-9.5h14.72l4.1-26.27c8.01-5.22,20.5-7.64,18.07,1.3-1.68,8.38-3.35,16.58-4.84,24.78l12.48-.19c8.01,0,8.57,2.42,5.96,7.45l-19.94.75c-8.2,46.21-12.11,83.47-2.42,83.47,10.99,0,18.26-16.02,21.61-25.34,2.98-1.86,7.45-1.12,6.89,2.24-1.49,10.62-15.65,30.56-30,30.56-22.55,0-21.99-30.37-13.23-90Z"/>
    <path class="cls-1" d="M138.64,109.35c-7.08,9.88-16.58,32.23-22.73,54.03-11.74,4.47-14.35,1.86-14.35-5.96,0-17.51,11.37-114.96,12.11-121.11,7.27-5.22,19.94-7.83,18.45,1.3l-15.65,101.92c17.51-46.58,31.3-63.91,42.85-43.97-13.23,42.3-8.01,61.11-2.79,61.11,3.91,0,8.38-2.61,13.6-15.28,2.79-2.05,7.45-.75,6.52,2.61-3.35,11.55-13.04,21.61-24.04,21.61-16.58,0-18.63-26.46-13.97-56.27Z"/>
    <path class="cls-1" d="M234.78,141.4c2.79-2.05,7.45-.75,6.52,2.61-3.35,11.55-13.04,21.61-24.04,21.8-4.66,0-10.81-1.86-13.42-11.92-5.59,9.5-10.81,11.74-16.77,11.74-13.42,0-19-13.6-19-30,0-21.61,11.74-47.7,35.4-47.7,8.01,0,18.07,5.22,15.65,17.14,1.86,1.12,3.17,4.47,1.12,11.74-6.52,22.54-7.45,39.87.93,39.87,3.91,0,8.38-2.61,13.6-15.28ZM200.31,96.87c-10.25,0-15.84,24.97-15.84,42.67,0,9.88,2.05,17.33,5.96,17.33,5.4,0,11.55-9.32,13.97-38.94-2.79-.75-3.73-2.05-3.54-5.03,4.47-4.66,6.89-16.02-.56-16.02Z"/>
    <path class="cls-1" d="M267.2,110.47c-7.08,15.09-14.35,32.23-22.54,53.48-9.69,3.54-13.6.19-13.6-4.84.19-13.23,2.79-41.36,6.33-67.82l6.71-2.98c6.33-2.79,11.18-.37,10.43,4.29-2.42,14.53-8.38,36.89-10.62,55.34,10.62-28.14,16.96-41.74,25.53-58.13,2.79-5.4,10.43-6.33,17.52,2.24-10.81,50.49-6.33,64.65-1.12,64.65,3.91,0,8.38-2.61,13.6-15.28,2.79-2.05,7.45-.75,6.52,2.61-3.35,11.55-13.04,21.61-24.04,21.61-14.53,0-19.56-22.54-14.72-55.15Z"/>
    <path class="cls-1" d="M352.72,155.74c3.91,0,8.01-4.47,11.92-14.35,2.79-2.05,7.64-.56,6.52,2.61-4.84,14.53-13.79,21.61-22.73,21.61s-18.45-7.83-23.85-21.8c-1.49-3.91-1.49-5.78.37-7.08,13.97-10.25,19-26.27,13.23-36.71-19.19,25.34-27.58,57.76-30,62.23-1.86,4.47-7.45,4.47-11.55.37l12.86-126.33c4.47-2.98,20.31-7.64,18.82,1.3l-13.6,90c.93-2.42,17.14-42.85,28.13-42.85,19.75,0,14.16,35.21-4.66,50.87,3.35,10.99,8.57,20.12,14.53,20.12Z"/>
    <path class="cls-1" d="M372.1,103.2c-.56-2.05-.75-4.1-.75-6.33,0-11.18,7.45-17.7,19-17.7,6.15,7.08,5.96,13.23-.56,19.56,0,10.62,14.16,27.95,14.16,45.65,0,19.38-15.65,30.37-28.13,30.37-8.2,0-11.55-4.66-11.55-7.27,0-4.29,2.42-6.89,6.33-7.27,1.68,3.17,5.78,6.33,9.88,6.33,5.22,0,10.25-2.98,10.25-13.6,0-13.04-6.15-23.48-11.55-33.17-1.68,10.25-5.22,21.99-8.76,28.14-2.42,4.29-6.52,3.73-8.2-.19,4.1-8.01,9.69-27.2,9.88-44.16v-.37Z"/>
    <path class="cls-1" d="M442.16,134.13c3.91-36.89,8.94-69.69,13.97-98.01,6.52-7.45,20.68-7.64,18.07,4.47-9.5,43.41-14.35,74.72-18.63,109.56,6.89,10.43,15.84,5.96,21.8-12.48,3.35-2.05,7.83-.93,6.89,2.24-4.84,17.14-13.42,24.41-21.8,24.97,12.67,36.71,1.49,60.74-19.94,60.74-1.86,0-4.1-.56-6.34-2.98.75-25.34,2.42-49.38,4.47-71.92-1.12-2.05-1.86-4.1-2.61-6.33-.56-4.29,1.49-8.01,4.1-10.25ZM452.6,174.75l-4.66,43.41c7.83-.75,15.28-17.33,4.66-43.41Z"/>
    <path class="cls-1" d="M497.31,93.33c3.54-5.59,8.76-7.45,11.92-7.45,10.25,0,19,8.01,19,25.9s-5.03,31.3-11.55,40.25c1.86,2.61,4.47,4.1,7.64,4.1,12.86,0,15.65-25.9,16.77-43.41-5.22-2.05-8.2-6.33-8.2-15.46,0-7.45,5.22-22.55,16.58-17.14,1.49,6.15,2.24,13.42,2.24,20.87,8.76.19,18.82-1.3,22.73-3.91,2.79.19,5.4,1.12,3.91,6.15-10.99,38.2-7.08,53.48-1.49,53.48,3.91,0,8.38-2.61,13.6-15.28,2.79-2.05,7.45-.75,6.52,2.61-3.35,11.55-13.04,21.61-24.04,21.61-8.76,0-21.24-10.25-13.97-51.61-2.79.19-5.4.37-7.83.37-2.79,26.09-13.42,51.8-30.18,51.8-5.4,0-9.5-2.42-12.11-5.96-4.47,3.54-8.94,5.4-12.48,5.4-6.52,0-21.05-3.73-21.05-30.74,0-31.49,14.35-42.3,21.99-41.55ZM510.91,144.75c2.05-6.89,3.35-15.65,3.73-23.66-5.03,3.17-19.38.93-20.68-11.37-7.64,24.22-.37,47.7,7.08,47.7,2.05,0,3.91-1.12,5.4-3.17v-1.86c0-3.35.93-6.52,4.47-7.64ZM515.01,116.43v-3.91c0-16.4-8.01-21.05-9.32-16.77-1.86,5.78-.75,15.28,9.32,20.68Z"/>
    <path class="cls-1" d="M657.92,112.33c-16.02,32.79-25.9,47.89-29.44,101.73-6.71,3.91-13.42,5.59-13.04.56.19-5.78,12.67-120.37,13.23-126.51,3.91-2.79,20.12-11.18,17.89,2.79l-8.01,50.12c16.21-45.28,24.97-60.74,40.06-47.14-17.51,57.39-7.83,62.79-2.61,62.79,3.91,0,10.25-2.61,15.46-15.28,2.79-2.05,7.45-.75,6.52,2.61-3.35,11.55-14.91,21.61-25.9,21.61s-22.73-5.22-14.16-53.29Z"/>
    <path class="cls-1" d="M727.24,141.4c4.1-2.05,7.83-.75,6.52,2.61-4.47,11.18-13.04,21.61-24.04,21.61-28.88,0-24.04-51.05-3.73-137.51,2.05-2.05,4.47-2.05,6.52-1.49,22.73,6.52,18.82,57.95-7.64,94.28-.75,21.8,2.79,35.77,8.76,35.77,3.91,0,8.38-2.61,13.6-15.28ZM706,105.25c8.2-16.77,12.48-34.1,9.69-48.07-5.03,17.51-8.2,33.91-9.69,48.07Z"/>
    <path class="cls-1" d="M792.08,141.4c2.79-2.05,7.45-.75,6.52,2.61-3.35,11.55-13.04,21.61-24.04,21.8-4.66,0-10.81-1.86-13.42-11.92-5.59,9.5-10.81,11.74-16.77,11.74-13.42,0-19-13.6-19-30,0-21.61,11.74-47.7,35.4-47.7,8.01,0,18.07,5.22,15.65,17.14,1.86,1.12,3.17,4.47,1.12,11.74-6.52,22.54-7.45,39.87.93,39.87,3.91,0,8.38-2.61,13.6-15.28ZM757.61,96.87c-10.25,0-15.84,24.97-15.84,42.67,0,9.88,2.05,17.33,5.96,17.33,5.4,0,11.55-9.32,13.97-38.94-2.79-.75-3.73-2.05-3.54-5.03,4.47-4.66,6.89-16.02-.56-16.02Z"/>
    <path class="cls-1" d="M841.27,142.52c-5.96,53.85-26.83,76.77-44.35,76.77-8.38,0-23.48-3.73-23.48-13.6,0-5.4,5.4-7.83,7.83-7.83,3.91,5.22,10.25,13.97,19.38,13.97,10.25,0,19.56-15.28,25.71-66.89-3.91,15.46-11.92,20.68-17.33,20.68-21.61,0-22.92-38.38-10.06-76.95,17.51-4.47,18.07-.37,16.21,4.66-12.11,33.17-9.88,60.18-2.42,60.18,4.84,0,10.25-10.81,14.16-46.95,9.32-6.89,19.94-7.45,19-.37l-4.66,36.33Z"/>
    <path class="cls-1" d="M887.85,141.4c2.79-2.05,7.45-.75,6.52,2.61-3.35,11.55-13.04,21.43-24.04,21.61-11.74,0-22.36-17.7-10.43-70.06,14.16-5.96,17.33-1.86,16.21,2.98-9.32,39.69-10.81,57.95-1.86,57.95,3.91,0,8.38-2.42,13.6-15.09ZM861.76,71.34c0-5.78,4.84-10.25,10.06-10.25s11.37,1.68,11.37,10.43c0,11.92-21.43,12.3-21.43-.19Z"/>
    <path class="cls-1" d="M920.27,110.47c-7.08,15.09-14.35,32.23-22.54,53.48-9.69,3.54-13.6.19-13.6-4.84.19-13.23,2.79-41.36,6.33-67.82l6.71-2.98c6.33-2.79,11.18-.37,10.43,4.29-2.42,14.53-8.38,36.89-10.62,55.34,10.62-28.14,16.96-41.74,25.53-58.13,2.79-5.4,10.43-6.33,17.51,2.24-10.81,50.49-6.33,64.65-1.12,64.65,3.91,0,8.38-2.61,13.6-15.28,2.79-2.05,7.45-.75,6.52,2.61-3.35,11.55-13.04,21.61-24.04,21.61-14.53,0-19.56-22.54-14.72-55.15Z"/>
    <path class="cls-1" d="M969.46,165.62c-12.3,0-19-11.74-19-30,0-21.61,11.74-47.7,35.4-47.7,3.17,0,6.33.93,9.32,4.1,5.59-1.68,10.06.75,8.2,20.31-4.84,52.17-11.37,106.95-46.95,106.95-9.13,0-21.99-5.96-21.99-13.23,0-3.54,2.61-8.2,8.38-7.64,3.91,6.89,10.62,13.79,18.07,13.79,13.04,0,18.26-17.14,21.8-53.85-4.29,5.03-8.94,7.27-13.23,7.27ZM982.69,96.87c-15.84,0-21.05,60-9.88,60,5.03,0,11.37-11.18,13.97-39.5-.56-7.64-.75-15.84.93-17.33-1.3-1.86-1.86-3.17-5.03-3.17Z"/>
    <path class="cls-1" d="M1044.17,36.12l-5.22,89.44c3.35,4.29,9.69,4.1,11.55-.37,0,0,15.09-78.63,16.4-87.57,1.49-8.94-18.26-4.47-22.73-1.49Z"/>
  </g>
  <path class="cls-1" d="M1060.87,144.9c-4.09-1.26-9.26,1.06-13.97,5.69-3.6-5.36-8.2-8.49-12.54-7.88-7.38,1.04-11.19,12.54-8.51,25.7,2.08,10.22,7.47,18.43,13.24,21.1.48.29,1,.52,1.56.69,7.02,2.16,17.23-6.23,22.82-18.73,5.58-12.51,4.42-24.4-2.59-26.57Z"/>
</svg>